<?xml version="1.0" standalone="no"?>
<!DOCTYPE svg PUBLIC "-//W3C//DTD SVG 20010904//EN"
 "http://www.w3.org/TR/2001/REC-SVG-20010904/DTD/svg10.dtd">
<svg version="1.0" xmlns="http://www.w3.org/2000/svg"
 width="700.000000pt" height="700.000000pt" viewBox="0 0 700.000000 700.000000"
 preserveAspectRatio="xMidYMid meet">
<metadata>
Created by potrace 1.11, written by Peter Selinger 2001-2013
</metadata>
<g transform="translate(0.000000,700.000000) scale(0.100000,-0.100000)"
fill="#000000" stroke="none">
<path d="M3235 6774 c-103 -9 -344 -46 -455 -70 -398 -87 -780 -249 -1129
-479 -213 -140 -430 -326 -623 -535 -393 -426 -686 -994 -803 -1556 -67 -325
-89 -636 -65 -940 25 -308 81 -499 178 -599 47 -48 87 -65 155 -65 146 0 265
104 325 285 36 106 52 235 62 485 24 598 30 686 50 781 89 430 293 629 518
509 114 -60 199 -177 267 -365 78 -216 168 -315 285 -315 52 0 87 18 133 69
50 56 71 99 112 242 98 332 298 601 429 575 16 -4 60 -28 97 -56 38 -27 82
-56 99 -65 26 -14 31 -21 28 -47 -3 -27 1 -32 25 -39 55 -15 102 18 185 126
102 134 131 150 189 98 45 -41 64 -149 113 -658 74 -759 137 -1042 267 -1203
54 -66 127 -97 188 -81 119 33 187 191 225 522 11 90 14 101 42 126 39 35 42
87 8 133 l-24 32 22 241 c44 472 109 710 228 830 l46 45 191 0 192 0 53 -36
c106 -71 213 -197 280 -330 35 -68 108 -141 175 -173 160 -77 323 -36 475 119
121 123 209 155 308 111 58 -26 79 -44 111 -95 83 -130 113 -372 94 -751 -35
-686 -25 -853 62 -981 42 -64 107 -97 185 -97 182 0 273 192 303 638 76 1115
-404 2188 -1286 2872 -468 363 -986 582 -1590 673 -109 17 -199 22 -410 25
-148 1 -292 1 -320 -1z"/>
<path d="M3087 4079 c-22 -13 -47 -61 -47 -93 0 -14 13 -40 28 -57 23 -26 36
-32 70 -32 48 0 70 15 89 61 17 42 3 93 -32 116 -27 18 -81 21 -108 5z"/>
<path d="M2759 3451 c-33 -33 -38 -75 -14 -121 34 -66 141 -57 171 15 18 45
10 78 -28 110 -42 35 -91 34 -129 -4z"/>
<path d="M3342 2675 c-17 -14 -33 -39 -37 -55 -14 -62 53 -125 118 -113 36 7
77 57 77 94 0 41 -15 66 -50 84 -42 22 -74 19 -108 -10z"/>
<path d="M3778 2685 c-33 -19 -48 -44 -48 -84 0 -37 41 -87 77 -94 71 -13 139
60 114 122 -7 16 -21 37 -31 46 -25 23 -80 28 -112 10z"/>
</g>
</svg>
