<?xml version="1.0" encoding="UTF-8" standalone="no"?>
<svg xmlns:rdf="http://www.w3.org/1999/02/22-rdf-syntax-ns#" xmlns="http://www.w3.org/2000/svg" height="72.571mm" width="75.367mm" version="1.1" xmlns:cc="http://creativecommons.org/ns#" xmlns:xlink="http://www.w3.org/1999/xlink" viewBox="0 0 267.04831 257.14285" xmlns:dc="http://purl.org/dc/elements/1.1/">
<defs>
<linearGradient id="b">
<stop stop-color="#582d00" offset="0"/>
<stop stop-color="#7b3f00" stop-opacity="0" offset="1"/>
</linearGradient>
<linearGradient id="c">
<stop stop-color="#5b2f00" offset="0"/>
<stop stop-color="#7b3f00" offset="1"/>
</linearGradient>
<linearGradient id="a">
<stop stop-color="#7b3f00" offset="0"/>
<stop stop-color="#a15200" offset="1"/>
</linearGradient>
<linearGradient id="k" y2="188.29" xlink:href="#a" gradientUnits="userSpaceOnUse" x2="222.49" gradientTransform="matrix(.86813 0 0 .86813 45.2 -15.146)" y1="58.794" x1="222.49"/>
<linearGradient id="linearGradient4282" y2="102.54" xlink:href="#a" gradientUnits="userSpaceOnUse" x2="222.49" y1="193.53" x1="222.49"/>
<linearGradient id="j" y2="161.87" xlink:href="#c" gradientUnits="userSpaceOnUse" x2="222.49" gradientTransform="matrix(2.1594 0 0 2.285 -345.73 -201.04)" y1="246.39" x1="222.49"/>
<filter id="o" style="color-interpolation-filters:sRGB" height="1.024" width="1.024" y="-.012" x="-.012">
<feGaussianBlur stdDeviation="0.45068169"/>
</filter>
<linearGradient id="i" y2="223.2" xlink:href="#b" gradientUnits="userSpaceOnUse" x2="222.49" gradientTransform="matrix(.94505 0 0 1 -71.969 -4.4179)" y1="115.09" x1="222.49"/>
<filter id="n" style="color-interpolation-filters:sRGB" height="1.0467" width="1.0494" y="-.023341" x="-.024698">
<feGaussianBlur stdDeviation="1.0097551"/>
</filter>
<linearGradient id="h" y2="20.32" xlink:href="#a" gradientUnits="userSpaceOnUse" x2="143.2" gradientTransform="matrix(.64574 0 0 .96296 43.265 -10.529)" y1="43.934" x1="143.2"/>
<linearGradient id="g" y2="158" xlink:href="#b" gradientUnits="userSpaceOnUse" x2="134.62" gradientTransform="translate(-3.9623 -8)" y1="241.15" x1="134.62"/>
<filter id="m" style="color-interpolation-filters:sRGB" height="1.0304" width="1.0198" y="-.015212" x="-.0099079">
<feGaussianBlur stdDeviation="0.71595634"/>
</filter>
<linearGradient id="f" y2="-58.31" gradientUnits="userSpaceOnUse" x2="344.16" gradientTransform="translate(-208.92 -7.3289)" y1="111.11" x1="344.16">
<stop stop-color="#f3e5ab" offset="0"/>
<stop stop-color="#917816" offset="1"/>
</linearGradient>
<filter id="l" style="color-interpolation-filters:sRGB" height="1.0228" width="1.0254" y="-.011384" x="-.012686">
<feGaussianBlur stdDeviation="0.69793607"/>
</filter>
<linearGradient id="e" y2="200.67" xlink:href="#c" gradientUnits="userSpaceOnUse" x2="336.11" y1="46.573" x1="336.11"/>
</defs>
<g>
<ellipse rx="49.062" transform="matrix(2.285 0 0 2.285 -180.63 -185.4)" ry="51.914" filter="url(#n)" cy="138.06" cx="137.49" fill="url(#i)"/>
<ellipse rx="112.1" ry="118.62" cy="124.51" cx="132.87" fill="url(#j)"/>
<ellipse rx="58.089" ry="31.465" cy="38.202" cx="132.87" fill="url(#h)"/>
<ellipse rx="86.713" transform="matrix(.94785 0 0 1.0058 6.9297 1.2385)" ry="56.478" filter="url(#m)" cy="181.83" cx="132.87" fill="url(#g)"/>
<circle transform="matrix(2.2002 0 0 2.2002 -389.92 -127.97)" filter="url(#o)" cy="108.54" cx="237.61" r="45.068" fill="url(#k)"/>
</g>
<path d="m86.756 42.336c-1.2129 0.05544-2.1016 0.30859-2.1016 0.30859a2.359 2.359 0 0 0 -1.4766 1.3789c-4.793 12.104-2.608 21.245-1.333 24.958-5.709 6.717-9.282 15.191-9.282 25.33 0 18.239 5.6942 29.963 14.234 37.152 7.4122 6.24 16.704 8.9539 25.893 10.365-1.5489 2.3351-2.7584 5.2972-3.4453 8.8789-2.5071 1.0198-6.1926 2.1559-10.139 1.8047-4.4246-0.39381-8.9776-2.3728-12.783-8.8906l0.0293 0.0527s-5.3675-10.023-16.111-10.768a2.359 2.359 0 0 0 -0.13281 -0.006s-0.70466-0.008-1.5723 0.0879c-0.8676 0.0957-1.9343 0.21851-3.1016 0.88282-0.58362 0.33215-1.2619 0.86672-1.6562 1.7695-0.39433 0.90281-0.3171 2.0272 0.0332 2.8613 0.7006 1.6682 2.0331 2.7958 4.2988 4.3418a2.359 2.359 0 0 0 0.32617 0.18555s1.0702 0.46337 2.8965 2.2949c1.8262 1.8316 4.2082 4.9326 6.2031 9.9922l-0.04492-0.12695s1.6417 4.8722 6.7734 8.7148c4.7347 3.5453 12.663 6.0355 24.352 4.1465 0.0463 6.3296 0.11133 12.668 0.11133 14.586 0 1.1178-0.12987 3.1236 1.4238 4.7305s3.8492 2.073 7.4062 2.0879a2.359 2.359 0 0 0 0.01 0h33.865c3.1129 0 5.3134-0.48519 6.7188-2.1211s1.2402-3.4769 1.2402-4.6856c0-2.9908 0.125-13.031 0.125-25.438 0-6.6793-1.6864-11.81-4.1211-15.451 9.1934-1.3907 18.48-4.0705 25.893-10.275 8.5621-7.1673 14.268-18.89 14.268-37.174 0-10.135-3.5469-18.61-9.2754-25.33 1.2846-3.7206 3.4568-12.842-1.3496-24.949a2.359 2.359 0 0 0 -1.4707 -1.375s-0.88915-0.25586-2.1035-0.3125-2.9451 0.02372-5.207 0.5c-4.3687 0.91988-10.765 3.3802-19.336 9.0684-7.315-1.934-15.043-2.9609-22.742-2.9941a2.359 2.359 0 0 0 -0.0195 0c-7.7123 0.03331-15.445 1.0496-22.76 2.9883-12.996-8.5877-20.984-9.7346-24.535-9.5723z" xlink:href="#d" transform="translate(-.0097833 -2)" filter="url(#l)" fill="url(#e)"/>
<path id="d" d="m117.57 187.1c-6.6133-0.0276-6.4817-2.1329-6.4817-4.4582s-0.0849-9.5161-0.13017-17.256c-25.776 5.601-31.225-10.931-31.225-10.931-4.2205-10.704-10.291-13.556-10.291-13.556-8.4242-5.7482 0.63908-5.635 0.63908-5.635 9.3068 0.64488 14.207 9.5501 14.207 9.5501 8.2716 14.167 21.703 10.071 26.976 7.6944 0.84258-5.9745 3.2414-10.071 5.8839-12.379-20.577-2.3422-42.223-10.297-42.223-45.816 0-10.127 3.6153-18.387 9.5331-24.877-0.94487-2.3536-4.1358-11.785 0.91645-24.543 0 0 7.7737-2.4894 25.493 9.5048 7.3888-2.065 15.315-3.0834 23.196-3.1174 7.8754 0.03404 15.807 1.0636 23.208 3.1286 17.686-12.005 25.471-9.5048 25.471-9.5048 5.0692 12.769 1.8783 22.189 0.92785 24.532 5.9404 6.4894 9.5275 14.75 9.5275 24.877 0 35.609-21.68 43.451-42.33 45.748 3.3381 2.8741 6.2913 8.5091 6.2913 17.154 0 12.39-0.12456 22.382-0.12456 25.437 0 2.4667 0.0783 4.4468-5.599 4.4468z" fill="url(#f)"/>
</svg>
