<?xml version="1.0" encoding="UTF-8" standalone="no"?>
<!-- Created with Inkscape (http://www.inkscape.org/) -->

<svg
   xmlns:dc="http://purl.org/dc/elements/1.1/"
   xmlns:cc="http://creativecommons.org/ns#"
   xmlns:rdf="http://www.w3.org/1999/02/22-rdf-syntax-ns#"
   xmlns:svg="http://www.w3.org/2000/svg"
   xmlns="http://www.w3.org/2000/svg"
   xmlns:xlink="http://www.w3.org/1999/xlink"
   xmlns:sodipodi="http://sodipodi.sourceforge.net/DTD/sodipodi-0.dtd"
   xmlns:inkscape="http://www.inkscape.org/namespaces/inkscape"
   width="75.366966mm"
   height="72.571426mm"
   viewBox="0 0 267.04831 257.14285"
   id="svg2"
   version="1.1"
   inkscape:version="0.91 r13725"
   sodipodi:docname="Choconana_Accounts_LinkedIn.svg">
  <defs
     id="defs4">
    <linearGradient
       id="linearGradient4641"
       inkscape:collect="always">
      <stop
         id="stop4643"
         offset="0"
         style="stop-color:#582d00;stop-opacity:1" />
      <stop
         id="stop4645"
         offset="1"
         style="stop-color:#7b3f00;stop-opacity:0;" />
    </linearGradient>
    <linearGradient
       inkscape:collect="always"
       id="linearGradient4609">
      <stop
         style="stop-color:#f3e5ab;stop-opacity:1;"
         offset="0"
         id="stop4611" />
      <stop
         style="stop-color:#917816;stop-opacity:1"
         offset="1"
         id="stop4613" />
    </linearGradient>
    <inkscape:path-effect
       effect="bend_path"
       id="path-effect4568"
       is_visible="true"
       bendpath="m -392.4082,476.41345 803.71158,0"
       prop_scale="1"
       scale_y_rel="false"
       vertical="false" />
    <linearGradient
       id="linearGradient4339"
       inkscape:collect="always">
      <stop
         id="stop4312"
         offset="0"
         style="stop-color:#5b2f00;stop-opacity:1;" />
      <stop
         id="stop4314"
         offset="1"
         style="stop-color:#7b3f00;stop-opacity:1" />
    </linearGradient>
    <filter
       style="color-interpolation-filters:sRGB"
       inkscape:label="Drop Shadow"
       id="filter4451">
      <feFlood
         flood-opacity="0.498039"
         flood-color="rgb(0,0,0)"
         result="flood"
         id="feFlood4453" />
      <feComposite
         in="flood"
         in2="SourceGraphic"
         operator="in"
         result="composite1"
         id="feComposite4455" />
      <feGaussianBlur
         in="composite1"
         stdDeviation="3"
         result="blur"
         id="feGaussianBlur4457" />
      <feOffset
         dx="6"
         dy="6"
         result="offset"
         id="feOffset4459" />
      <feComposite
         in="SourceGraphic"
         in2="offset"
         operator="over"
         result="composite2"
         id="feComposite4461" />
    </filter>
    <linearGradient
       id="linearGradient4394"
       inkscape:collect="always">
      <stop
         id="stop4396"
         offset="0"
         style="stop-color:#7b3f00;stop-opacity:1;" />
      <stop
         id="stop4398"
         offset="1"
         style="stop-color:#a15200;stop-opacity:1" />
    </linearGradient>
    <filter
       style="color-interpolation-filters:sRGB"
       inkscape:label="Blur"
       id="filter4868">
      <feGaussianBlur
         stdDeviation="2 2"
         result="fbSourceGraphic"
         id="feGaussianBlur4870" />
      <feColorMatrix
         result="fbSourceGraphicAlpha"
         in="fbSourceGraphic"
         values="0 0 0 -1 0 0 0 0 -1 0 0 0 0 -1 0 0 0 0 1 0"
         id="feColorMatrix4872" />
      <feGaussianBlur
         id="feGaussianBlur4874"
         stdDeviation="2 2"
         result="blur"
         in="fbSourceGraphic" />
    </filter>
    <filter
       style="color-interpolation-filters:sRGB"
       inkscape:label="Blur"
       id="filter4876">
      <feGaussianBlur
         stdDeviation="2 2"
         result="blur"
         id="feGaussianBlur4878" />
    </filter>
    <linearGradient
       inkscape:collect="always"
       xlink:href="#linearGradient4339"
       id="linearGradient5247"
       x1="571.62506"
       y1="224.00905"
       x2="572.11285"
       y2="366.44055"
       gradientUnits="userSpaceOnUse" />
    <linearGradient
       inkscape:collect="always"
       xlink:href="#linearGradient4394"
       id="linearGradient4257"
       x1="222.48842"
       y1="58.794418"
       x2="222.48842"
       y2="188.28528"
       gradientUnits="userSpaceOnUse"
       gradientTransform="matrix(0.86813186,0,0,0.86813186,45.19983,-15.145808)" />
    <linearGradient
       inkscape:collect="always"
       xlink:href="#linearGradient4394"
       id="linearGradient4282"
       gradientUnits="userSpaceOnUse"
       x1="222.48842"
       y1="193.53398"
       x2="222.48842"
       y2="102.54192" />
    <linearGradient
       inkscape:collect="always"
       xlink:href="#linearGradient4339"
       id="linearGradient4257-1"
       x1="222.48842"
       y1="246.3866"
       x2="222.48842"
       y2="161.87218"
       gradientUnits="userSpaceOnUse"
       gradientTransform="matrix(2.1594175,0,0,2.284965,-345.72517,-201.03898)" />
    <filter
       inkscape:collect="always"
       style="color-interpolation-filters:sRGB"
       id="filter4308"
       x="-0.012"
       width="1.024"
       y="-0.012"
       height="1.024">
      <feGaussianBlur
         inkscape:collect="always"
         stdDeviation="0.45068169"
         id="feGaussianBlur4310" />
    </filter>
    <linearGradient
       inkscape:collect="always"
       xlink:href="#linearGradient4641"
       id="linearGradient4257-1-6"
       x1="222.48842"
       y1="115.09255"
       x2="222.48842"
       y2="223.19911"
       gradientUnits="userSpaceOnUse"
       gradientTransform="matrix(0.94505494,0,0,1,-71.968645,-4.417936)" />
    <filter
       inkscape:collect="always"
       style="color-interpolation-filters:sRGB"
       id="filter4352"
       x="-0.024697675"
       width="1.0493953"
       y="-0.023340659"
       height="1.0466813">
      <feGaussianBlur
         inkscape:collect="always"
         stdDeviation="1.0097551"
         id="feGaussianBlur4354" />
    </filter>
    <linearGradient
       inkscape:collect="always"
       xlink:href="#linearGradient4394"
       id="linearGradient4366"
       x1="143.20433"
       y1="43.934399"
       x2="143.20433"
       y2="20.320427"
       gradientUnits="userSpaceOnUse"
       gradientTransform="matrix(0.64573992,0,0,0.96296296,43.264974,-10.5291)" />
    <linearGradient
       inkscape:collect="always"
       xlink:href="#linearGradient4641"
       id="linearGradient4376"
       x1="134.61551"
       y1="241.14973"
       x2="134.61552"
       y2="158.00287"
       gradientUnits="userSpaceOnUse"
       gradientTransform="translate(-3.9622909,-8)" />
    <filter
       inkscape:collect="always"
       style="color-interpolation-filters:sRGB"
       id="filter4378"
       x="-0.0099078945"
       width="1.0198158"
       y="-0.015212122"
       height="1.0304242">
      <feGaussianBlur
         inkscape:collect="always"
         stdDeviation="0.71595634"
         id="feGaussianBlur4380" />
    </filter>
    <linearGradient
       inkscape:collect="always"
       xlink:href="#linearGradient4609"
       id="linearGradient4541"
       gradientUnits="userSpaceOnUse"
       x1="217.75186"
       y1="372.9126"
       x2="217.75186"
       y2="-667.50092"
       gradientTransform="matrix(0.29056848,0,0,0.29056848,71.034905,41.040627)" />
    <linearGradient
       inkscape:collect="always"
       xlink:href="#linearGradient4339"
       id="linearGradient4545"
       gradientUnits="userSpaceOnUse"
       x1="217.75186"
       y1="-201.76488"
       x2="217.75186"
       y2="492.59567" />
    <linearGradient
       inkscape:collect="always"
       xlink:href="#linearGradient4609"
       id="linearGradient4553"
       gradientUnits="userSpaceOnUse"
       x1="217.75186"
       y1="372.9126"
       x2="217.75186"
       y2="-667.50092" />
    <linearGradient
       inkscape:collect="always"
       xlink:href="#linearGradient4609"
       id="linearGradient4555"
       gradientUnits="userSpaceOnUse"
       x1="217.75186"
       y1="372.9126"
       x2="217.75186"
       y2="-667.50092" />
    <linearGradient
       inkscape:collect="always"
       xlink:href="#linearGradient4609"
       id="linearGradient4557"
       gradientUnits="userSpaceOnUse"
       x1="217.75186"
       y1="372.9126"
       x2="217.75186"
       y2="-667.50092" />
    <linearGradient
       inkscape:collect="always"
       xlink:href="#linearGradient4609"
       id="linearGradient4559"
       gradientUnits="userSpaceOnUse"
       x1="217.75186"
       y1="372.9126"
       x2="217.75186"
       y2="-667.50092" />
    <linearGradient
       inkscape:collect="always"
       xlink:href="#linearGradient4609"
       id="linearGradient4561"
       gradientUnits="userSpaceOnUse"
       x1="217.75186"
       y1="372.9126"
       x2="217.75186"
       y2="-667.50092" />
    <linearGradient
       inkscape:collect="always"
       xlink:href="#linearGradient4609"
       id="linearGradient4563"
       gradientUnits="userSpaceOnUse"
       x1="217.75186"
       y1="372.9126"
       x2="217.75186"
       y2="-667.50092" />
    <linearGradient
       inkscape:collect="always"
       xlink:href="#linearGradient4609"
       id="linearGradient4565"
       gradientUnits="userSpaceOnUse"
       x1="217.75186"
       y1="372.9126"
       x2="217.75186"
       y2="-667.50092" />
    <linearGradient
       inkscape:collect="always"
       xlink:href="#linearGradient4609"
       id="linearGradient4567"
       gradientUnits="userSpaceOnUse"
       x1="217.75186"
       y1="372.9126"
       x2="217.75186"
       y2="-667.50092" />
    <linearGradient
       inkscape:collect="always"
       xlink:href="#linearGradient4609"
       id="linearGradient4569"
       gradientUnits="userSpaceOnUse"
       x1="217.75186"
       y1="372.9126"
       x2="217.75186"
       y2="-667.50092" />
    <linearGradient
       inkscape:collect="always"
       xlink:href="#linearGradient4609"
       id="linearGradient4571"
       gradientUnits="userSpaceOnUse"
       x1="217.75186"
       y1="372.9126"
       x2="217.75186"
       y2="-667.50092" />
    <linearGradient
       inkscape:collect="always"
       xlink:href="#linearGradient4609"
       id="linearGradient4573"
       gradientUnits="userSpaceOnUse"
       x1="217.75186"
       y1="372.9126"
       x2="217.75186"
       y2="-667.50092" />
    <linearGradient
       inkscape:collect="always"
       xlink:href="#linearGradient4609"
       id="linearGradient4575"
       gradientUnits="userSpaceOnUse"
       x1="217.75186"
       y1="372.9126"
       x2="217.75186"
       y2="-667.50092" />
    <linearGradient
       inkscape:collect="always"
       xlink:href="#linearGradient4609"
       id="linearGradient4577"
       gradientUnits="userSpaceOnUse"
       x1="217.75186"
       y1="372.9126"
       x2="217.75186"
       y2="-667.50092" />
    <linearGradient
       inkscape:collect="always"
       xlink:href="#linearGradient4609"
       id="linearGradient4579"
       gradientUnits="userSpaceOnUse"
       x1="217.75186"
       y1="372.9126"
       x2="217.75186"
       y2="-667.50092" />
    <linearGradient
       inkscape:collect="always"
       xlink:href="#linearGradient4609"
       id="linearGradient4581"
       gradientUnits="userSpaceOnUse"
       x1="217.75186"
       y1="372.9126"
       x2="217.75186"
       y2="-667.50092" />
    <filter
       inkscape:collect="always"
       style="color-interpolation-filters:sRGB"
       id="filter4619"
       x="-0.011749996"
       width="1.0235"
       y="-0.012260874"
       height="1.0245217">
      <feGaussianBlur
         inkscape:collect="always"
         stdDeviation="0.65266602"
         id="feGaussianBlur4621" />
    </filter>
  </defs>
  <sodipodi:namedview
     id="base"
     pagecolor="#ffe135"
     bordercolor="#666666"
     borderopacity="1.0"
     inkscape:pageopacity="0"
     inkscape:pageshadow="2"
     inkscape:zoom="4.9579505"
     inkscape:cx="184.98437"
     inkscape:cy="154.90951"
     inkscape:document-units="px"
     inkscape:current-layer="layer7"
     showgrid="false"
     inkscape:window-width="1920"
     inkscape:window-height="1138"
     inkscape:window-x="-8"
     inkscape:window-y="-8"
     inkscape:window-maximized="1"
     fit-margin-top="0"
     fit-margin-left="0"
     fit-margin-right="0"
     fit-margin-bottom="0"
     showguides="false"
     inkscape:guide-bbox="true" />
  <metadata
     id="metadata7">
    <rdf:RDF>
      <cc:Work
         rdf:about="">
        <dc:format>image/svg+xml</dc:format>
        <dc:type
           rdf:resource="http://purl.org/dc/dcmitype/StillImage" />
        <dc:title></dc:title>
      </cc:Work>
    </rdf:RDF>
  </metadata>
  <g
     inkscape:groupmode="layer"
     id="layer6"
     inkscape:label="round"
     sodipodi:insensitive="true">
    <path
       style="opacity:1;fill:url(#linearGradient4282);fill-opacity:1;stroke:none;stroke-width:11;stroke-linecap:square;stroke-linejoin:miter;stroke-miterlimit:4;stroke-dasharray:none;stroke-dashoffset:0;stroke-opacity:1"
       id="path4249-0"
       r="51.913963"
       cy="142.47574"
       cx="221.63271"
       d=""
       inkscape:connector-curvature="0" />
    <g
       id="g4479">
      <ellipse
         transform="matrix(2.284965,0,0,2.284965,-180.62757,-185.39659)"
         ry="51.913963"
         rx="49.061546"
         cx="137.48645"
         cy="138.0578"
         id="path4249-1-4"
         style="opacity:1;fill:url(#linearGradient4257-1-6);fill-opacity:1;stroke:none;stroke-width:11;stroke-linecap:square;stroke-linejoin:miter;stroke-miterlimit:4;stroke-dasharray:none;stroke-dashoffset:0;stroke-opacity:1;filter:url(#filter4352)" />
      <ellipse
         ry="118.62159"
         rx="112.10392"
         cx="132.87238"
         cy="124.51309"
         id="path4249-1"
         style="opacity:1;fill:url(#linearGradient4257-1);fill-opacity:1;stroke:none;stroke-width:11;stroke-linecap:square;stroke-linejoin:miter;stroke-miterlimit:4;stroke-dasharray:none;stroke-dashoffset:0;stroke-opacity:1" />
      <ellipse
         ry="31.464615"
         rx="58.08852"
         cy="38.202499"
         cx="132.87238"
         id="path4358"
         style="opacity:1;fill:url(#linearGradient4366);fill-opacity:1;stroke:none;stroke-width:11;stroke-linecap:square;stroke-linejoin:miter;stroke-miterlimit:4;stroke-dasharray:none;stroke-dashoffset:0;stroke-opacity:1" />
      <ellipse
         transform="matrix(0.94784693,0,0,1.0057568,6.9296978,1.2385005)"
         ry="56.477829"
         rx="86.71344"
         cy="181.82584"
         cx="132.87238"
         id="path4368"
         style="opacity:1;fill:url(#linearGradient4376);fill-opacity:1;stroke:none;stroke-width:11;stroke-linecap:square;stroke-linejoin:miter;stroke-miterlimit:4;stroke-dasharray:none;stroke-dashoffset:0;stroke-opacity:1;filter:url(#filter4378)" />
      <circle
         transform="matrix(2.2002279,0,0,2.2002279,-389.91549,-127.9683)"
         cx="237.60623"
         cy="108.54191"
         r="45.068169"
         id="path4249"
         style="opacity:1;fill:url(#linearGradient4257);fill-opacity:1;stroke:none;stroke-width:11;stroke-linecap:square;stroke-linejoin:miter;stroke-miterlimit:4;stroke-dasharray:none;stroke-dashoffset:0;stroke-opacity:1;filter:url(#filter4308)" />
    </g>
  </g>
  <g
     inkscape:groupmode="layer"
     id="layer7"
     inkscape:label="LinkedIn"
     style="display:inline">
    <path
       sodipodi:type="inkscape:offset"
       inkscape:radius="1.7467065"
       inkscape:original="M 86.197266 42.535156 C 76.469437 42.535156 69.751953 49.182753 69.751953 57.738281 C 69.751953 66.11675 76.267405 72.951172 85.841797 72.951172 L 86.021484 72.951172 C 95.932792 72.951172 102.46094 66.116632 102.46094 57.738281 A 1.2830421 1.2830421 0 0 0 102.45898 57.708984 C 102.26965 49.207413 95.925913 42.535156 86.197266 42.535156 z M 165.16797 79.484375 C 153.11924 79.484375 146.36572 85.053783 142.30273 90.148438 L 142.30273 82.662109 A 1.2830421 1.2830421 0 0 0 141.01953 81.378906 L 114.22656 81.378906 A 1.2830421 1.2830421 0 0 0 112.94531 82.722656 C 113.11543 86.288571 113.12518 106.58775 113.08008 125.78516 C 113.03497 144.98257 112.94336 163.23633 112.94336 163.23633 A 1.2830421 1.2830421 0 0 0 114.22656 164.52539 L 141.02344 164.52539 A 1.2830421 1.2830421 0 0 0 142.30664 163.24219 L 142.30664 118.24023 C 142.30664 115.89368 142.52223 113.60462 143.09961 112.19727 A 1.2830421 1.2830421 0 0 0 143.10156 112.18945 C 144.90246 107.71166 148.83018 103.19336 155.65625 103.19336 C 160.17827 103.19336 163.0562 104.80206 165.01758 107.68164 C 166.97896 110.56122 167.94336 114.86896 167.94336 120.13086 L 167.94336 163.24219 A 1.2830421 1.2830421 0 0 0 169.22656 164.52539 L 196.01367 164.52539 A 1.2830421 1.2830421 0 0 0 197.29688 163.24219 L 197.29688 117.03711 C 197.29688 104.43317 193.91751 95.012844 188.14453 88.751953 C 182.37156 82.49106 174.26218 79.484227 165.16797 79.484375 z M 72.626953 81.378906 A 1.2830421 1.2830421 0 0 0 71.34375 82.662109 L 71.34375 163.24219 A 1.2830421 1.2830421 0 0 0 72.626953 164.52539 L 99.412109 164.52539 A 1.2830421 1.2830421 0 0 0 100.69531 163.24219 L 100.69531 82.662109 A 1.2830421 1.2830421 0 0 0 99.412109 81.378906 L 72.626953 81.378906 z "
       xlink:href="#path4531"
       style="fill:url(#linearGradient4545);fill-opacity:1;filter:url(#filter4619)"
       id="path4543"
       inkscape:href="#path4531"
       d="m 86.197266,40.789062 c -10.523581,0 -18.191407,7.479392 -18.191407,16.949219 0,9.284011 7.43032,16.958985 17.835938,16.958985 l 0.179687,0 c 10.714293,0 18.185546,-7.673315 18.185546,-16.958985 a 1.7468812,1.7468812 0 0 0 -0.002,-0.06836 C 103.99686,48.320425 96.724549,40.789063 86.197266,40.789062 Z m 18.007814,16.88086 c 0,-0.01432 -0.003,-0.07031 -0.004,-0.08398 7.2e-4,0.01546 0.003,0.07145 0.004,0.08398 z m 60.96289,20.068359 c -10.02052,0 -16.6437,3.797013 -21.11914,8.039063 l 0,-3.115235 a 1.7468812,1.7468812 0 0 0 -0.28321,-0.955078 c -0.46484,-0.71193 -1.07908,-1.326171 -1.79101,-1.791015 a 1.7468812,1.7468812 0 0 0 -0.95508,-0.283204 l -26.79297,0 a 1.7468812,1.7468812 0 0 0 -0.98242,0.302735 c -0.71949,0.489473 -1.33439,1.133026 -1.78906,1.875 a 1.7468812,1.7468812 0 0 0 -0.25391,0.996094 c 0.15524,3.253922 0.17791,23.780679 0.13281,42.974609 -0.0451,19.19445 -0.13671,37.44727 -0.13671,37.44727 a 1.7468812,1.7468812 0 0 0 0.28125,0.95898 c 0.46395,0.71486 1.07827,1.33162 1.79101,1.79883 a 1.7468812,1.7468812 0 0 0 0.95703,0.28515 l 26.79688,0 a 1.7468812,1.7468812 0 0 0 0.95508,-0.2832 c 0.71192,-0.46484 1.32617,-1.07909 1.79101,-1.79101 a 1.7468812,1.7468812 0 0 0 0.2832,-0.95508 l 0,-45.00196 c 0,-2.23956 0.27922,-4.44757 0.66211,-5.38085 a 1.7468812,1.7468812 0 0 0 0.0215,-0.0606 l -0.0137,0.043 c 1.62461,-4.03948 4.8783,-7.90235 10.93359,-7.90235 4.10776,0 6.23373,1.25191 7.91797,3.72461 1.65507,2.42988 2.62305,6.41832 2.62305,11.4668 l 0,43.11133 a 1.7468812,1.7468812 0 0 0 0.2832,0.95508 c 0.46484,0.71192 1.07909,1.32617 1.79101,1.79101 a 1.7468812,1.7468812 0 0 0 0.95508,0.2832 l 26.78711,0 a 1.7468812,1.7468812 0 0 0 0.95508,-0.2832 c 0.71193,-0.46484 1.32617,-1.07908 1.79102,-1.79101 a 1.7468812,1.7468812 0 0 0 0.2832,-0.95508 l 0,-46.20508 c 0,-12.91616 -3.48063,-22.815671 -9.61524,-29.468751 -6.13664,-6.655303 -14.78052,-9.830232 -24.25976,-9.830078 z m -92.541017,1.894531 a 1.7468812,1.7468812 0 0 0 -0.955078,0.283204 c -0.711931,0.464844 -1.326172,1.079084 -1.791016,1.791015 a 1.7468812,1.7468812 0 0 0 -0.283203,0.955078 l 0,80.580081 a 1.7468812,1.7468812 0 0 0 0.283203,0.95508 c 0.464845,0.71192 1.079086,1.32617 1.791016,1.79101 a 1.7468812,1.7468812 0 0 0 0.955078,0.2832 l 26.785156,0 a 1.7468812,1.7468812 0 0 0 0.955081,-0.2832 c 0.71193,-0.46484 1.32617,-1.07909 1.79101,-1.79101 a 1.7468812,1.7468812 0 0 0 0.28321,-0.95508 l 0,-80.580081 a 1.7468812,1.7468812 0 0 0 -0.28321,-0.955078 c -0.46484,-0.71193 -1.07908,-1.326171 -1.79101,-1.791015 a 1.7468812,1.7468812 0 0 0 -0.955081,-0.283204 l -26.785156,0 z"
       transform="translate(-2.5988319e-4,-1.4262078)" />
    <path
       style="fill:url(#linearGradient4541);fill-opacity:1"
       d="M 86.197266 42.535156 C 76.469437 42.535156 69.751953 49.182753 69.751953 57.738281 C 69.751953 66.11675 76.267405 72.951172 85.841797 72.951172 L 86.021484 72.951172 C 95.932792 72.951172 102.46094 66.116632 102.46094 57.738281 A 1.2830421 1.2830421 0 0 0 102.45898 57.708984 C 102.26965 49.207413 95.925913 42.535156 86.197266 42.535156 z M 165.16797 79.484375 C 153.11924 79.484375 146.36572 85.053784 142.30273 90.148438 L 142.30273 82.662109 A 1.2830421 1.2830421 0 0 0 141.01953 81.378906 L 114.22656 81.378906 A 1.2830421 1.2830421 0 0 0 112.94531 82.722656 C 113.11543 86.288571 113.12518 106.58775 113.08008 125.78516 C 113.03497 144.98257 112.94336 163.23633 112.94336 163.23633 A 1.2830421 1.2830421 0 0 0 114.22656 164.52539 L 141.02344 164.52539 A 1.2830421 1.2830421 0 0 0 142.30664 163.24219 L 142.30664 118.24023 C 142.30664 115.89368 142.52223 113.60462 143.09961 112.19727 A 1.2830421 1.2830421 0 0 0 143.10156 112.18945 C 144.90246 107.71166 148.83018 103.19336 155.65625 103.19336 C 160.17827 103.19336 163.0562 104.80206 165.01758 107.68164 C 166.97896 110.56122 167.94336 114.86896 167.94336 120.13086 L 167.94336 163.24219 A 1.2830421 1.2830421 0 0 0 169.22656 164.52539 L 196.01367 164.52539 A 1.2830421 1.2830421 0 0 0 197.29688 163.24219 L 197.29688 117.03711 C 197.29688 104.43317 193.91751 95.012844 188.14453 88.751953 C 182.37156 82.49106 174.26218 79.484227 165.16797 79.484375 z M 72.626953 81.378906 A 1.2830421 1.2830421 0 0 0 71.34375 82.662109 L 71.34375 163.24219 A 1.2830421 1.2830421 0 0 0 72.626953 164.52539 L 99.412109 164.52539 A 1.2830421 1.2830421 0 0 0 100.69531 163.24219 L 100.69531 82.662109 A 1.2830421 1.2830421 0 0 0 99.412109 81.378906 L 72.626953 81.378906 z "
       id="path4531" />
    <g
       style="fill:url(#linearGradient4553);fill-opacity:1"
       id="g4398"
       transform="matrix(0.30043284,0,0,0.30043284,70.593865,40.783551)" />
    <g
       style="fill:url(#linearGradient4555);fill-opacity:1"
       id="g4400"
       transform="matrix(0.30043284,0,0,0.30043284,70.593865,40.783551)" />
    <g
       style="fill:url(#linearGradient4557);fill-opacity:1"
       id="g4402"
       transform="matrix(0.30043284,0,0,0.30043284,70.593865,40.783551)" />
    <g
       style="fill:url(#linearGradient4559);fill-opacity:1"
       id="g4404"
       transform="matrix(0.30043284,0,0,0.30043284,70.593865,40.783551)" />
    <g
       style="fill:url(#linearGradient4561);fill-opacity:1"
       id="g4406"
       transform="matrix(0.30043284,0,0,0.30043284,70.593865,40.783551)" />
    <g
       style="fill:url(#linearGradient4563);fill-opacity:1"
       id="g4408"
       transform="matrix(0.30043284,0,0,0.30043284,70.593865,40.783551)" />
    <g
       style="fill:url(#linearGradient4565);fill-opacity:1"
       id="g4410"
       transform="matrix(0.30043284,0,0,0.30043284,70.593865,40.783551)" />
    <g
       style="fill:url(#linearGradient4567);fill-opacity:1"
       id="g4412"
       transform="matrix(0.30043284,0,0,0.30043284,70.593865,40.783551)" />
    <g
       style="fill:url(#linearGradient4569);fill-opacity:1"
       id="g4414"
       transform="matrix(0.30043284,0,0,0.30043284,70.593865,40.783551)" />
    <g
       style="fill:url(#linearGradient4571);fill-opacity:1"
       id="g4416"
       transform="matrix(0.30043284,0,0,0.30043284,70.593865,40.783551)" />
    <g
       style="fill:url(#linearGradient4573);fill-opacity:1"
       id="g4418"
       transform="matrix(0.30043284,0,0,0.30043284,70.593865,40.783551)" />
    <g
       style="fill:url(#linearGradient4575);fill-opacity:1"
       id="g4420"
       transform="matrix(0.30043284,0,0,0.30043284,70.593865,40.783551)" />
    <g
       style="fill:url(#linearGradient4577);fill-opacity:1"
       id="g4422"
       transform="matrix(0.30043284,0,0,0.30043284,70.593865,40.783551)" />
    <g
       style="fill:url(#linearGradient4579);fill-opacity:1"
       id="g4424"
       transform="matrix(0.30043284,0,0,0.30043284,70.593865,40.783551)" />
    <g
       style="fill:url(#linearGradient4581);fill-opacity:1"
       id="g4426"
       transform="matrix(0.30043284,0,0,0.30043284,70.593865,40.783551)" />
  </g>
</svg>
