<?xml version="1.0" encoding="UTF-8" standalone="no"?>
<svg xmlns:rdf="http://www.w3.org/1999/02/22-rdf-syntax-ns#" xmlns="http://www.w3.org/2000/svg" height="72.571mm" width="75.367mm" version="1.1" xmlns:cc="http://creativecommons.org/ns#" xmlns:xlink="http://www.w3.org/1999/xlink" viewBox="0 0 267.04831 257.14285" xmlns:dc="http://purl.org/dc/elements/1.1/">
<defs>
<linearGradient id="b">
<stop stop-color="#582d00" offset="0"/>
<stop stop-color="#7b3f00" stop-opacity="0" offset="1"/>
</linearGradient>
<linearGradient id="a">
<stop stop-color="#f3e5ab" offset="0"/>
<stop stop-color="#917816" offset="1"/>
</linearGradient>
<linearGradient id="c">
<stop stop-color="#5b2f00" offset="0"/>
<stop stop-color="#7b3f00" offset="1"/>
</linearGradient>
<linearGradient id="l" y2="364.12" xlink:href="#a" gradientUnits="userSpaceOnUse" x2="537.55" y1="217.69" x1="537.55"/>
<linearGradient id="k" y2="321.26" xlink:href="#b" gradientUnits="userSpaceOnUse" x2="536.13" y1="240.55" x1="536.13"/>
<linearGradient id="u" y2="354.89" xlink:href="#c" gradientUnits="userSpaceOnUse" x2="373.45" gradientTransform="translate(25.072 -112.49)" y1="-1.2477" x1="373.45"/>
<linearGradient id="m" y2="235.96" xlink:href="#c" gradientUnits="userSpaceOnUse" x2="377.07" gradientTransform="matrix(.97664 0 0 .99404 33.765 -112.76)" y1="359.58" x1="377.07"/>
<linearGradient id="p" y2="97.746" gradientUnits="userSpaceOnUse" x2="370.78" gradientTransform="matrix(1 0 0 .92323 25.039 -104.85)" y1="110.6" x1="370.78">
<stop stop-color="#7b3f00" offset="0"/>
<stop stop-color="#a15200" offset="1"/>
</linearGradient>
<linearGradient id="v" y2="292.42" xlink:href="#c" gradientUnits="userSpaceOnUse" x2="371.03" gradientTransform="matrix(.98036 0 0 .92157 32.356 -85.773)" y1="309.59" x1="371.03"/>
<linearGradient id="j" y2="307.59" gradientUnits="userSpaceOnUse" x2="619.84" gradientTransform="matrix(1.0115 0 0 .97403 -225.68 -82.118)" y1="291.09" x1="619.84">
<stop stop-color="#dbba00" offset="0"/>
<stop stop-color="#d4b400" stop-opacity="0" offset="1"/>
</linearGradient>
<filter id="ad" style="color-interpolation-filters:sRGB">
<feGaussianBlur stdDeviation="2 2" result="fbSourceGraphic"/>
<feColorMatrix values="0 0 0 -1 0 0 0 0 -1 0 0 0 0 -1 0 0 0 0 1 0" result="fbSourceGraphicAlpha" in="fbSourceGraphic"/>
<feGaussianBlur in="fbSourceGraphic" stdDeviation="2 2" result="blur"/>
</filter>
<filter id="ab" style="color-interpolation-filters:sRGB" height="1.1127" width="1.0134" y="-.056354" x="-.0067149">
<feGaussianBlur stdDeviation="0.5911963"/>
</filter>
<filter id="z" style="color-interpolation-filters:sRGB" height="1.0243" width="1.0237" y="-.012173" x="-.011832">
<feGaussianBlur stdDeviation="0.72204457"/>
</filter>
<filter id="y" style="color-interpolation-filters:sRGB" height="1.0244" width="1.0236" y="-.012183" x="-.011822">
<feGaussianBlur stdDeviation="4.0741945"/>
</filter>
<filter id="x" style="color-interpolation-filters:sRGB" height="1.024" width="1.024" y="-.012019" x="-.011981">
<feGaussianBlur stdDeviation="0.84318371"/>
</filter>
<linearGradient id="r" y2="424.2" xlink:href="#a" gradientUnits="userSpaceOnUse" x2="130.97" y1="62.516" x1="130.97"/>
<filter id="ah" style="color-interpolation-filters:sRGB" height="1.0246" width="1.0234" y="-.012314" x="-.011701">
<feGaussianBlur stdDeviation="0.68992275"/>
</filter>
<linearGradient id="q" y2="431.46" xlink:href="#b" gradientUnits="userSpaceOnUse" x2="130.97" gradientTransform="translate(-.0000025470 2.9444)" y1="74.615" x1="130.97"/>
<filter id="ag" style="color-interpolation-filters:sRGB" height="1.0246" width="1.0234" y="-.012301" x="-.011713">
<feGaussianBlur stdDeviation="0.71823303"/>
</filter>
<linearGradient id="t" y2="406.46" xlink:href="#a" gradientUnits="userSpaceOnUse" x2="134.59" gradientTransform="matrix(1.072 0 0 1.072 -9.6101 -8.73)" y1="64.821" x1="134.59"/>
<linearGradient id="s" y2="380.91" xlink:href="#b" gradientUnits="userSpaceOnUse" x2="134.59" gradientTransform="matrix(1.072 0 0 1.072 -9.6101 -4.6649)" y1="97.284" x1="134.59"/>
<filter id="aj" style="color-interpolation-filters:sRGB" height="1.024" width="1.024" y="-.012018" x="-.011982">
<feGaussianBlur stdDeviation="0.7658461"/>
</filter>
<filter id="ai" style="color-interpolation-filters:sRGB" height="1.024" width="1.024" y="-.012018" x="-.011982">
<feGaussianBlur stdDeviation="0.73557476"/>
</filter>
<linearGradient id="o" y2="26.953" xlink:href="#a" gradientUnits="userSpaceOnUse" x2="246.69" gradientTransform="matrix(1.0624 0 0 1.0624 -120.13 -8.5599)" y1="135.92" x1="246.69"/>
<linearGradient id="n" y2="113.67" xlink:href="#a" gradientUnits="userSpaceOnUse" x2="260.47" gradientTransform="matrix(1.0624 0 0 1.0624 -120.13 -13.534)" y1="200.38" x1="260.47"/>
<filter id="af" style="color-interpolation-filters:sRGB" height="1.0198" width="1.0306" y="-.0098759" x="-.015288">
<feGaussianBlur stdDeviation="0.13495382"/>
</filter>
<filter id="ae" style="color-interpolation-filters:sRGB" height="1.0198" width="1.0305" y="-.0099005" x="-.015230">
<feGaussianBlur stdDeviation="0.13633307"/>
</filter>
<linearGradient id="i" y2="258.4" xlink:href="#a" gradientUnits="userSpaceOnUse" x2="132.97" y1="28.494" x1="132.97"/>
<filter id="ac" style="color-interpolation-filters:sRGB" height="1.0266" width="1.0218" y="-.013313" x="-.010922">
<feGaussianBlur stdDeviation="0.68541991"/>
</filter>
<linearGradient id="h" y2="213.9" xlink:href="#b" gradientUnits="userSpaceOnUse" x2="132.97" y1="163.13" x1="132.97"/>
<filter id="aa" style="color-interpolation-filters:sRGB" height="1.0265" width="1.0219" y="-.013239" x="-.010973">
<feGaussianBlur stdDeviation="0.72225585"/>
</filter>
<linearGradient id="g" y2="57.128" xlink:href="#a" gradientUnits="userSpaceOnUse" x2="131.45" y1="172.08" x1="131.45"/>
<filter id="w" style="color-interpolation-filters:sRGB" height="1.0373" width="1.0177" y="-.018653" x="-.0088452">
<feGaussianBlur stdDeviation="0.45441236"/>
</filter>
</defs>
<g transform="translate(-263.62 22.253)">
<g transform="translate(0,10)">
<rect ry="9.8391" height="214.29" filter="url(#ad)" width="222.54" y="-.82423" x="285.87" fill="url(#j)"/>
<rect ry="10.102" height="220" width="220" y="-13.457" x="287.14" fill="#7b3f00"/>
<rect ry="7.1429" height="180.09" width="180.09" y="-2.6455" x="307.1" fill="url(#u)"/>
<rect ry="6.6778" height="168.37" filter="url(#x)" width="168.91" y="7.7932" x="312.69" fill="url(#m)"/>
<path d="m297.21-13.457c-1.7728 0-3.4356 0.45434-4.8809 1.25l15.166 7.3398h180.24l14.223-7.2988c-1.4614-0.81976-3.1459-1.291-4.9473-1.291h-199.8z" fill="url(#p)"/>
<path d="m309.29 181.36-17.795 23.402c1.6265 1.1188 3.5967 1.7754 5.7285 1.7754h199.8c2.152 0 4.1402-0.67034 5.7754-1.8086l-16.852-23.369h-176.65z" filter="url(#ab)" fill="url(#v)"/>
</g>
</g>
<g transform="translate(-263.62 22.253)" display="none">
<g transform="translate(-138.57 -108.57)">
<path d="m579.88 137.47a3.3988 3.3988 0 0 0 -0.24218 0.0156c-0.15153 0.0145-0.30211 0.0317-0.45313 0.0508a3.3988 3.3988 0 0 0 -0.26562 0.043c-1.7423 0.36169-2.8171 1.1465-3.7383 2.4356-0.67354 0.94245-0.96283 1.9697-1.0527 2.3184-0.0481 0.18631-0.0784 0.24819-0.17969 0.62109-0.005 0.0177-0.0172 0.10608-0.0234 0.12305a3.3988 3.3988 0 0 0 -0.0645 0.18164c-2.4111 7.9834-4.7488 15.942-7.1152 23.883-3.4487-3.6238-7.5454-6.6814-12.299-8.6973-6.1553-2.652-12.825-3.8882-19.459-3.7578-5.258-0.11217-10.418 0.56916-15.377 1.7695-5.0359 1.1104-10.316 2.8747-15.037 6.1992-9.1037 6.2655-15.508 15.355-19.783 24.881-2.3918 5.0672-3.037 10.107-3.9473 14.199a3.3988 3.3988 0 0 0 -0.0156 0.084c-1.4517 7.0526-2.422 13.997-3.6602 20.695-1.9679 8.9805-4.9673 17.71-9.209 25.713a3.3988 3.3988 0 0 0 -0.002 0.002c-1.1327 2.1392-2.671 4.2961-4.3672 6.4941a3.3988 3.3988 0 0 0 -0.53906 1.0215c-0.20892 0.63932-0.37436 1.2916-0.4961 1.9531a3.3988 3.3988 0 0 0 -0.0137 1.1484c0.40535 2.547 2.092 4.002 3.0938 4.6856 0.39377 0.26871 0.74063 0.47657 0.98828 0.61914 0.24765 0.14258 0.74066 0.51271 0.0703 0.0156a3.3988 3.3988 0 0 0 0.17188 0.11914c0.11498 0.0747 0.23068 0.14721 0.34765 0.21875a3.3988 3.3988 0 0 0 0.21485 0.12109c5.8767 3.0311 11.907 4.8416 17.445 6.707a3.3988 3.3988 0 0 0 0.0547 0.0176c0.0148 0.005 0.0301 0.011 0.0449 0.0156 6.8211 2.15 13.755 4.2964 20.889 6.0469a3.3988 3.3988 0 0 0 0.0606 0.0137c0.0378 0.009 0.0754 0.0171 0.11328 0.0254a3.3988 3.3988 0 0 0 0.0645 0.0137c12.834 2.5403 26.006 2.9513 38.912 1.5898a3.3988 3.3988 0 0 0 0.0254 -0.002c0.0219-0.002 0.0426-0.005 0.0645-0.008a3.3988 3.3988 0 0 0 0.0469 -0.006c6.2817-0.82619 12.715-2.1266 18.949-4.5098a3.3988 3.3988 0 0 0 0.0801 -0.0312c0.0404-0.0166 0.0808-0.0338 0.12109-0.0508a3.3988 3.3988 0 0 0 0.0547 -0.0234c-0.26443 0.1169 0.2032-0.0656 0.625-0.26953 0.4218-0.20389 0.95326-0.50892 1.5059-0.94727 0.4777-0.37893 1.6897-1.5356 2.1406-3.1797 0.6183-2.2548 0.0824-3.7775-1.1523-5.293a3.3988 3.3988 0 0 0 -0.54687 -0.53516c-0.35773-0.27874-0.72799-0.53979-1.1094-0.78516a3.3988 3.3988 0 0 0 -0.68359 -0.33984c-2.1417-0.77276-3.978-0.95436-3.998-0.96094a3.3988 3.3988 0 0 0 -0.11914 -0.0371c-0.0688-0.0198-0.13798-0.0397-0.20703-0.0586a3.3988 3.3988 0 0 0 -0.10938 -0.0274c-4.0227-0.95465-7.5983-2.8683-9.793-5.6308a3.3988 3.3988 0 0 0 -0.0801 -0.0977c-0.0442-0.0516-0.0879-0.10333-0.13282-0.1543a3.3988 3.3988 0 0 0 -0.0684 -0.0742c-1.4835-1.5878-2.3348-3.1991-2.4453-4.3008a3.3988 3.3988 0 0 0 0 -0.006c-0.31367-3.087-0.16708-6.1623 0.58008-8.6465 1.4109-3.5109 4.8403-6.653 8.625-7.9336a3.3988 3.3988 0 0 0 0.0371 -0.0137c0.0261-0.009 0.0521-0.018 0.0781-0.0273a3.3988 3.3988 0 0 0 0.0488 -0.0176c2.6762-1.0033 6.2705-1.0446 10.271-0.79492 3.881 0.47239 7.6248 2.7659 9.1113 5.791a3.3988 3.3988 0 0 0 0.0156 0.0293c2.0497 4.1065 1.687 9.6748 0.20508 15.328a3.3988 3.3988 0 0 0 -0.0274 0.10742c-0.0147 0.0646-0.0291 0.12855-0.043 0.19336a3.3988 3.3988 0 0 0 -0.0195 0.10742c0.12173-0.67408 0.1225-0.44166 0.0215-0.20117-0.10101 0.24049-0.26887 0.641-0.42188 1.1445-0.30601 1.007-0.53905 2.474-0.23828 4.1152a3.3988 3.3988 0 0 0 0.25781 0.8086c0.21034 0.45673 0.44236 0.90249 0.69727 1.3359a3.3988 3.3988 0 0 0 0.51758 0.67188c1.3304 1.3394 2.5704 1.8126 4.3984 1.7539 1.2575-0.0404 2.3644-0.54332 2.6836-0.70313 0.24178-0.12103 0.38801-0.18062 0.7207-0.36133 0.0278-0.0151 0.11875-0.0781 0.15235-0.0957 0.002-0.00085 0.006-0.003 0.008-0.004 9.2726-4.6294 16.465-12.796 20-22.484 3.4687-9.383 3.5048-19.212 2.6191-28.258a3.3988 3.3988 0 0 0 -0.006 -0.0859 3.3988 3.3988 0 0 0 -0.008 -0.0859c-0.71106-6.1828-1.9024-12.584-4.3516-18.771a3.3988 3.3988 0 0 0 -0.0313 -0.0762c-0.015-0.0353-0.0297-0.0722-0.0449-0.10742a3.3988 3.3988 0 0 0 -0.0176 -0.0391c-3.3912-7.5613-10.368-12.061-17.17-14.322-0.95575-0.3176-1.9575-0.42502-2.9297-0.67773 5.8515-7.4114 11.824-14.776 17.627-22.436a3.3988 3.3988 0 0 0 0.35937 -0.59375c0.17781-0.37384 0.34184-0.75342 0.48828-1.1406a3.3988 3.3988 0 0 0 0.17774 -0.67774c0.27249-1.7409-0.0805-3.0814-0.96094-4.4121-0.67239-1.0162-1.5583-1.6712-1.9805-1.9531-0.366-0.24445-0.6782-0.4408-0.96093-0.60352-0.045-0.0259-0.15438-0.0726-0.19141-0.0957-0.0138-0.01-0.0272-0.0197-0.041-0.0293a3.3988 3.3988 0 0 0 -0.19336 -0.125c-4.9828-2.9765-10.015-6.156-15.316-9.127a3.3988 3.3988 0 0 0 -0.18164 -0.0937c-0.10865-0.0526-0.21825-0.10434-0.32813-0.1543a3.3988 3.3988 0 0 0 -0.18359 -0.0781c-0.26372-0.10163-1.2524-0.4447-2.3535-0.41797zm25.977 104.37-0.14844 0.34375a3.3988 3.3988 0 0 0 0.14844 -0.34375z" xlink:href="#e" transform="translate(-.014866 5.905)" filter="url(#z)" fill="url(#k)"/>
<path d="m579.88 137.47a3.3988 3.3988 0 0 0 -0.24218 0.0156c-0.15153 0.0145-0.30211 0.0317-0.45313 0.0508a3.3988 3.3988 0 0 0 -0.26562 0.043c-1.7423 0.36169-2.8171 1.1465-3.7383 2.4356-0.67354 0.94245-0.96283 1.9697-1.0527 2.3184-0.0481 0.18631-0.0784 0.24819-0.17969 0.62109-0.005 0.0177-0.0172 0.10608-0.0234 0.12305a3.3988 3.3988 0 0 0 -0.0645 0.18164c-2.4111 7.9834-4.7488 15.942-7.1152 23.883-3.4487-3.6238-7.5454-6.6814-12.299-8.6973-6.1553-2.652-12.825-3.8882-19.459-3.7578-5.258-0.11217-10.418 0.56916-15.377 1.7695-5.0359 1.1104-10.316 2.8747-15.037 6.1992-9.1037 6.2655-15.508 15.355-19.783 24.881-2.3918 5.0672-3.037 10.107-3.9473 14.199a3.3988 3.3988 0 0 0 -0.0156 0.084c-1.4517 7.0526-2.422 13.997-3.6602 20.695-1.9679 8.9805-4.9673 17.71-9.209 25.713a3.3988 3.3988 0 0 0 -0.002 0.002c-1.1327 2.1392-2.671 4.2961-4.3672 6.4941a3.3988 3.3988 0 0 0 -0.53906 1.0215c-0.20892 0.63932-0.37436 1.2916-0.4961 1.9531a3.3988 3.3988 0 0 0 -0.0137 1.1484c0.40535 2.547 2.092 4.002 3.0938 4.6856 0.39377 0.26871 0.74063 0.47657 0.98828 0.61914 0.24765 0.14258 0.74066 0.51271 0.0703 0.0156a3.3988 3.3988 0 0 0 0.17188 0.11914c0.11498 0.0747 0.23068 0.14721 0.34765 0.21875a3.3988 3.3988 0 0 0 0.21485 0.12109c5.8767 3.0311 11.907 4.8416 17.445 6.707a3.3988 3.3988 0 0 0 0.0547 0.0176c0.0148 0.005 0.0301 0.011 0.0449 0.0156 6.8211 2.15 13.755 4.2964 20.889 6.0469a3.3988 3.3988 0 0 0 0.0606 0.0137c0.0378 0.009 0.0754 0.0171 0.11328 0.0254a3.3988 3.3988 0 0 0 0.0645 0.0137c12.834 2.5403 26.006 2.9513 38.912 1.5898a3.3988 3.3988 0 0 0 0.0254 -0.002c0.0219-0.002 0.0426-0.005 0.0645-0.008a3.3988 3.3988 0 0 0 0.0469 -0.006c6.2817-0.82619 12.715-2.1266 18.949-4.5098a3.3988 3.3988 0 0 0 0.0801 -0.0312c0.0404-0.0166 0.0808-0.0338 0.12109-0.0508a3.3988 3.3988 0 0 0 0.0547 -0.0234c-0.26443 0.1169 0.2032-0.0656 0.625-0.26953 0.4218-0.20389 0.95326-0.50892 1.5059-0.94727 0.4777-0.37893 1.6897-1.5356 2.1406-3.1797 0.6183-2.2548 0.0824-3.7775-1.1523-5.293a3.3988 3.3988 0 0 0 -0.54687 -0.53516c-0.35773-0.27874-0.72799-0.53979-1.1094-0.78516a3.3988 3.3988 0 0 0 -0.68359 -0.33984c-2.1417-0.77276-3.978-0.95436-3.998-0.96094a3.3988 3.3988 0 0 0 -0.11914 -0.0371c-0.0688-0.0198-0.13798-0.0397-0.20703-0.0586a3.3988 3.3988 0 0 0 -0.10938 -0.0274c-4.0227-0.95465-7.5983-2.8683-9.793-5.6308a3.3988 3.3988 0 0 0 -0.0801 -0.0977c-0.0442-0.0516-0.0879-0.10333-0.13282-0.1543a3.3988 3.3988 0 0 0 -0.0684 -0.0742c-1.4835-1.5878-2.3348-3.1991-2.4453-4.3008a3.3988 3.3988 0 0 0 0 -0.006c-0.31367-3.087-0.16708-6.1623 0.58008-8.6465 1.4109-3.5109 4.8403-6.653 8.625-7.9336a3.3988 3.3988 0 0 0 0.0371 -0.0137c0.0261-0.009 0.0521-0.018 0.0781-0.0273a3.3988 3.3988 0 0 0 0.0488 -0.0176c2.6762-1.0033 6.2705-1.0446 10.271-0.79492 3.881 0.47239 7.6248 2.7659 9.1113 5.791a3.3988 3.3988 0 0 0 0.0156 0.0293c2.0497 4.1065 1.687 9.6748 0.20508 15.328a3.3988 3.3988 0 0 0 -0.0274 0.10742c-0.0147 0.0646-0.0291 0.12855-0.043 0.19336a3.3988 3.3988 0 0 0 -0.0195 0.10742c0.12173-0.67408 0.1225-0.44166 0.0215-0.20117-0.10101 0.24049-0.26887 0.641-0.42188 1.1445-0.30601 1.007-0.53905 2.474-0.23828 4.1152a3.3988 3.3988 0 0 0 0.25781 0.8086c0.21034 0.45673 0.44236 0.90249 0.69727 1.3359a3.3988 3.3988 0 0 0 0.51758 0.67188c1.3304 1.3394 2.5704 1.8126 4.3984 1.7539 1.2575-0.0404 2.3644-0.54332 2.6836-0.70313 0.24178-0.12103 0.38801-0.18062 0.7207-0.36133 0.0278-0.0151 0.11875-0.0781 0.15235-0.0957 0.002-0.00085 0.006-0.003 0.008-0.004 9.2726-4.6294 16.465-12.796 20-22.484 3.4687-9.383 3.5048-19.212 2.6191-28.258a3.3988 3.3988 0 0 0 -0.006 -0.0859 3.3988 3.3988 0 0 0 -0.008 -0.0859c-0.71106-6.1828-1.9024-12.584-4.3516-18.771a3.3988 3.3988 0 0 0 -0.0313 -0.0762c-0.015-0.0353-0.0297-0.0722-0.0449-0.10742a3.3988 3.3988 0 0 0 -0.0176 -0.0391c-3.3912-7.5613-10.368-12.061-17.17-14.322-0.95575-0.3176-1.9575-0.42502-2.9297-0.67773 5.8515-7.4114 11.824-14.776 17.627-22.436a3.3988 3.3988 0 0 0 0.35937 -0.59375c0.17781-0.37384 0.34184-0.75342 0.48828-1.1406a3.3988 3.3988 0 0 0 0.17774 -0.67774c0.27249-1.7409-0.0805-3.0814-0.96094-4.4121-0.67239-1.0162-1.5583-1.6712-1.9805-1.9531-0.366-0.24445-0.6782-0.4408-0.96093-0.60352-0.045-0.0259-0.15438-0.0726-0.19141-0.0957-0.0138-0.01-0.0272-0.0197-0.041-0.0293a3.3988 3.3988 0 0 0 -0.19336 -0.125c-4.9828-2.9765-10.015-6.156-15.316-9.127a3.3988 3.3988 0 0 0 -0.18164 -0.0937c-0.10865-0.0526-0.21825-0.10434-0.32813-0.1543a3.3988 3.3988 0 0 0 -0.18359 -0.0781c-0.26372-0.10163-1.2524-0.4447-2.3535-0.41797zm25.977 104.37-0.14844 0.34375a3.3988 3.3988 0 0 0 0.14844 -0.34375z" xlink:href="#e" transform="translate(-.014866 1.905)" fill="url(#l)"/>
<path id="e" d="m1194.3 209.41a11.679 11.679 0 0 0 -2.0898 0.24023c-3.9906 0.82846-7.8585 3.6373-9.8457 6.418-1.9873 2.7807-2.6584 5.2108-3.1289 7.0352-0.9412 3.6487-1.8912 5.6864-0.5528 3.5195a11.679 11.679 0 0 0 -1.2441 2.7598c-17.868 59.161-35.078 118.46-52.867 177.41-22.181-32.29-52.527-59.247-89.227-74.805-33.86-14.603-70.743-21.437-107.45-20.645-29.306-0.65714-58.332 3.1394-86.459 9.9668-28.375 6.245-57.042 16.008-82.002 33.609-50.143 34.48-86.188 85.256-110.39 139.28-12.535 26.5-16.293 54.499-21.959 79.971a11.679 11.679 0 0 0 -0.0371 0.18164c-8.4578 41.089-14.202 82.24-21.686 122.64-11.982 54.734-30.309 108.19-56.441 157.49a11.679 11.679 0 0 0 -0.002 0.004c-7.5908 14.336-17.383 27.955-27.699 41.324a11.679 11.679 0 0 0 -2.2871 8.9707c1.1558 7.262 6.2864 11.881 9.7949 14.275 3.5085 2.3942 6.3304 3.7893 6.9043 4.2148a11.679 11.679 0 0 0 1.6016 0.99805c32.671 16.851 67.286 27.343 100.48 38.523a11.679 11.679 0 0 0 0.21875 0.0723c40.317 12.708 80.962 25.276 122.43 35.451a11.679 11.679 0 0 0 0.51563 0.11328c73.817 14.612 149.79 17.021 224.36 9.1543a11.679 11.679 0 0 0 0.29882 -0.035c36.238-4.7662 72.77-12.222 107.64-25.551a11.679 11.679 0 0 0 0.5508 -0.22656c1.0731-0.47437 4.3965-1.5004 8.2617-4.5664 1.9326-1.533 4.5275-3.859 5.7676-8.3808 1.24-4.5219-0.505-10.242-3.0117-13.318a11.679 11.679 0 0 0 -5.0899 -3.6074c-9.5729-3.4541-17.81-3.7516-23.121-5.4961a11.679 11.679 0 0 0 -0.9472 -0.26758c-27.012-6.4105-52.413-19.426-69.08-40.406a11.679 11.679 0 0 0 -0.6113 -0.70898c-10.61-11.27-18.59-24.01-19.92-37.23a11.679 11.679 0 0 0 0 -0.0137c-2.0696-20.368-1.3931-41.391 4.3477-59.898 10.663-27.414 35.429-49.792 63.711-59.361a11.679 11.679 0 0 0 0.3574 -0.12695c20.952-7.8552 45.197-7.503 69.809-5.9356 29.066 3.3726 57.466 19.793 70.09 45.484a11.679 11.679 0 0 0 0.031 0.0644c15.593 31.241 12.012 69.198 2.6699 104.84a11.679 11.679 0 0 0 -0.1953 0.88476c-0.5039 2.7902-6.0073 10.603-3.7813 22.75a11.679 11.679 0 0 0 3.2012 6.125c2.7639 2.7824 7.527 4.5683 11.113 4.4531 3.5863-0.1152 5.886-1.2203 7.5332-2.0449 3.2944-1.6492 5.4622-2.5834 3.1289-1.9375a11.679 11.679 0 0 0 2.1016 -0.80665c50.133-25.029 89.357-69.531 108.51-122.03l0.01-0.0176c19.028-51.441 19.486-106.68 14.338-158.9a11.679 11.679 0 0 0 -0.019 -0.1875c-4.0971-35.625-10.911-71.77-24.479-106.04a11.679 11.679 0 0 0 -0.2031 -0.48047c-17.023-37.957-53.088-61.796-89.646-73.947-15.042-4.9988-30.593-8.529-46.332-10.697 40.837-52.432 83.21-104 123.66-157.39a11.679 11.679 0 0 0 2.2285 -5.2461c0.651-4.1592-0.5841-8.8779-2.5879-11.906-2.0038-3.0283-4.2735-4.7003-6.1172-5.9316-3.6872-2.4626-6.5531-4.0652-5.6894-3.3164a11.679 11.679 0 0 0 -1.6621 -1.2012c-29.79-17.795-59.433-36.501-90.211-53.75a11.679 11.679 0 0 0 -1.5097 -0.70898c-1.2132-0.4675-3.2204-1.213-6.2012-1.1406z" xlink:href="#path4557" transform="matrix(.16890 0 0 .16890 378.25 105.5)" filter="url(#y)" fill="#f3e5ab"/>
</g>
</g>
<g fill-rule="evenodd" display="none">
<path d="m90.34 57.585c-0.75324 0.0152-1.5029 0.0574-2.2441 0.125-17.408 1.5882-30.287 17.053-28.699 34.461a2.8334 2.8334 0 0 0 0.002 0.002c0.70151 7.6 4.2407 14.544 9.6797 19.793-6.865 5.8201-11.399 14.293-10.428 24.934 0.81441 8.9268 1.4621 22.043 2.6973 33.516 0.61757 5.7362 1.3775 11.059 2.4238 15.363 1.0464 4.3039 1.9434 7.7199 4.9609 9.7441 1.5706 1.0536 3.2149 1.3432 5.3184 1.6445 2.1034 0.30132 4.6092 0.46089 7.4238 0.51757 5.6293 0.11337 12.479-0.19635 19.318-0.80859 6.8394-0.61224 13.651-1.5249 19.199-2.6523 2.7742-0.56373 5.2294-1.179 7.2676-1.8672 2.0381-0.6882 3.6391-1.3018 5-2.6289 2.6192-2.5543 2.9187-6.1449 3.1348-10.582 0.21605-4.4372-0.0669-9.8013-0.56836-15.537-1.0029-11.472-2.9037-24.427-3.7148-33.318-0.96374-10.564-6.8778-18.047-14.598-22.541 4.4635-6.1645 6.7298-13.679 6.0449-21.334a2.8334 2.8334 0 0 0 0 -0.006c-1.51-16.544-15.61-29.155-32.22-28.821zm88.928 21.227c-0.6357-0.0163-1.2734-0.0115-1.916 0.0176a2.8334 2.8334 0 0 0 -0.002 0c-13.161 0.59575-24.018 10.614-25.668 23.686a2.8334 2.8334 0 0 0 0 0.006c-0.79133 6.3562 0.81774 12.683 4.2578 18.002-6.5111 3.6552-11.609 9.8191-12.719 18.607-0.93699 7.4224-2.9117 18.255-4.0898 27.883-0.58908 4.8138-0.98479 9.3244-0.93164 13.096 0.0531 3.7713 0.13744 6.8691 2.4512 9.2871 1.2064 1.2608 2.5714 1.817 4.291 2.4648 1.7196 0.64783 3.7792 1.2396 6.1055 1.7969 4.6524 1.1145 10.358 2.0818 16.1 2.7969 5.7411 0.71511 11.499 1.1752 16.256 1.2441 2.3782 0.0345 4.5003-0.0257 6.3047-0.22071s3.2283-0.37353 4.707-1.293c2.8309-1.7602 3.6345-4.6827 4.6484-8.3027s1.8052-8.0838 2.4922-12.895c1.3741-9.6215 2.3008-20.626 3.2422-28.084 1.1178-8.8544-2.3455-16.133-7.8164-21.299 4.5962-4.2926 7.6856-9.9873 8.4883-16.295a2.8334 2.8334 0 0 0 0 -0.002c1.8706-14.82-8.678-28.42-23.498-30.291-0.89829-0.11379-1.7992-0.18162-2.7012-0.20507a2.8334 2.8334 0 0 0 -0.002 0z" display="inline" filter="url(#ag)" fill="url(#q)"/>
<path d="m90.34 54.641c-0.75324 0.01517-1.5029 0.05739-2.2441 0.125-17.408 1.5882-30.287 17.053-28.699 34.461a2.8334 2.8334 0 0 0 0.002 0.002c0.7015 7.6 4.2407 14.544 9.6797 19.793-6.865 5.8201-11.399 14.293-10.428 24.934 0.81441 8.9268 1.4621 22.043 2.6973 33.516 0.61757 5.7362 1.3775 11.059 2.4238 15.363 1.0463 4.3039 1.9434 7.7199 4.9609 9.7441 1.5706 1.0536 3.2149 1.3432 5.3184 1.6445 2.1034 0.30132 4.6092 0.46089 7.4238 0.51757 5.6293 0.11337 12.479-0.19635 19.318-0.80859 6.8394-0.61224 13.651-1.5249 19.199-2.6523 2.7742-0.56373 5.2294-1.179 7.2676-1.8672 2.0381-0.6882 3.6391-1.3018 5-2.6289 2.6192-2.5543 2.9187-6.1449 3.1348-10.582 0.21605-4.4372-0.0669-9.8013-0.56836-15.537-1.0029-11.472-2.9037-24.427-3.7148-33.318-0.96374-10.564-6.8778-18.047-14.598-22.541 4.4635-6.1645 6.7298-13.679 6.0449-21.334a2.8334 2.8334 0 0 0 0 -0.0059c-1.51-16.544-15.61-29.156-32.22-28.821zm88.928 21.227c-0.6357-0.01631-1.2734-0.01145-1.916 0.01758a2.8334 2.8334 0 0 0 -0.002 0c-13.161 0.59575-24.018 10.614-25.668 23.686a2.8334 2.8334 0 0 0 0 0.006c-0.79133 6.3562 0.81774 12.683 4.2578 18.002-6.5111 3.6552-11.609 9.8191-12.719 18.607-0.93699 7.4224-2.9117 18.255-4.0898 27.883-0.58908 4.8138-0.98479 9.3244-0.93164 13.096 0.0531 3.7713 0.13744 6.8691 2.4512 9.2871 1.2064 1.2608 2.5714 1.817 4.291 2.4648 1.7196 0.64783 3.7792 1.2396 6.1055 1.7969 4.6524 1.1145 10.358 2.0818 16.1 2.7969 5.7411 0.71511 11.499 1.1752 16.256 1.2441 2.3782 0.0345 4.5003-0.0257 6.3047-0.22071s3.2283-0.37353 4.707-1.293c2.8309-1.7602 3.6345-4.6827 4.6484-8.3027s1.8052-8.0838 2.4922-12.895c1.3741-9.6215 2.3008-20.626 3.2422-28.084 1.1178-8.8544-2.3455-16.133-7.8164-21.299 4.5962-4.2926 7.6856-9.9873 8.4883-16.295a2.8334 2.8334 0 0 0 0 -0.002c1.8706-14.82-8.678-28.42-23.498-30.291-0.89829-0.1138-1.7992-0.18162-2.7012-0.20508a2.8334 2.8334 0 0 0 -0.002 0z" fill="url(#r)"/>
<path d="m90.396 55.473c-0.68172 0.01373-1.3627 0.0516-2.0418 0.11354-15.883 1.4491-27.584 15.499-26.135 31.382 0.73408 7.953 4.729 15.247 11.035 20.148-7.7274 5.2833-12.786 13.577-11.782 24.581 1.6494 18.08 2.5863 52.331 8.839 56.526 6.2527 4.1945 54.371-0.01 59.971-5.4702 5.5995-5.4606-0.34394-39.071-1.9934-57.151-0.99745-10.933-7.3956-18.15-15.869-21.968 5.3813-5.968 8.0326-13.908 7.3165-21.912-1.38-15.093-14.19-26.554-29.344-26.249zm88.8 21.225c-0.57265-0.01469-1.1456-0.0091-1.7179 0.01675-11.803 0.53426-21.507 9.4886-22.986 21.211-0.83455 6.7034 1.1618 13.451 5.5092 18.622-7.2284 2.961-12.815 8.8375-13.97 17.992-1.9113 15.14-7.8787 43.203-3.3335 47.953 4.5452 4.7501 44.845 9.6831 50.22 6.3412 5.3747-3.3419 7.1585-32.09 9.0698-47.231 1.1633-9.215-2.8441-16.33-9.1814-20.993 5.4389-3.9342 9.0059-9.9451 9.8534-16.604 1.6789-13.301-7.7423-25.444-21.043-27.124-0.80296-0.10172-1.6105-0.16322-2.4196-0.18426z" filter="url(#ah)" fill="#f3e5ab"/>
</g>
<g display="none">
<path d="m132.55 48.904c-0.87022-0.0269-1.7438-0.0164-2.6171 0.023-2.7822-0.0385-5.5966 0.0848-8.4125 0.45852-32.338 4.1323-59.868 31.27-63.952 63.726-3.7672 25.494 6.9634 52.143 27.132 68.108 0.004 0.003 0.007 0.005 0.0105 0.009 1.0449 0.8843 3.7435 3.2561 6.0424 4.7694 0.58197 0.38309 1.125 0.71845 1.8069 1.0008 0.34096 0.14117 0.71242 0.2837 1.2918 0.34756 0.57941 0.0639 1.5652 0.0483 2.502-0.68463 0.93678-0.73294 1.26-1.9197 1.273-2.6129 0.013-0.69324-0.12267-1.1367-0.2638-1.5577-0.28227-0.8421-0.68266-1.5904-1.2646-2.5627l0.0817 0.14864c-7.1629-13.661-5.5725-31.561 4.2774-43.442a3.0273 3.0273 0 0 0 0.0503 -0.0607c7.3878-9.3968 19.305-14.753 31.309-15.001l-0.0294 0.002c11.752-0.13262 23.175-5.9569 29.747-15.87 7.0689-10.252 8.0028-23.967 3.2243-35.229a3.0273 3.0273 0 0 0 -0.0167 -0.0398c-5.5856-12.656-18.467-21.107-32.193-21.532zm40.637 14.476c-0.72469-0.0799-2.2569 0.14481-3.1238 1.3274-0.86693 1.1826-0.69304 2.224-0.56948 2.8495 0.24712 1.2511 0.72151 2.0259 1.4488 3.241l-0.0817-0.14866c7.1629 13.661 5.5725 31.561-4.2774 43.442a3.0273 3.0273 0 0 0 -0.0503 0.0607c-7.3875 9.3964-19.307 14.751-31.311 14.999l0.0293-0.002c-11.752 0.13261-23.175 5.9569-29.747 15.87-7.069 10.253-8.0005 23.967-3.2222 35.229a3.0273 3.0273 0 0 0 0.0167 0.0398c5.9478 13.476 20.171 22.198 34.873 21.506 2.7634 0.0358 5.5563-0.0857 8.3497-0.45643h0.004c32.336-4.1341 59.864-31.272 63.948-63.726 3.7679-25.499-6.9672-52.151-27.143-68.114-0.7173-0.60662-2.241-1.9234-3.8315-3.1615-0.8107-0.63108-1.6298-1.2398-2.4287-1.7503-0.79891-0.51054-1.2895-1.0303-2.883-1.206z" filter="url(#aj)" display="inline" fill="url(#s)"/>
<path fill="url(#t)" d="m132.55 44.839c-0.87022-0.02695-1.7438-0.01643-2.6171 0.02303-2.7822-0.03854-5.5966 0.08484-8.4125 0.45852-32.338 4.1323-59.868 31.27-63.952 63.726-3.7672 25.494 6.9634 52.143 27.132 68.108 0.0035 0.003 0.007 0.005 0.0105 0.009 1.0449 0.8843 3.7435 3.2561 6.0424 4.7694 0.58196 0.38309 1.1249 0.71845 1.8069 1.0008 0.34096 0.14117 0.71241 0.2837 1.2918 0.34756 0.5794 0.0639 1.5652 0.0483 2.502-0.68463 0.93678-0.73294 1.26-1.9197 1.273-2.6129 0.01297-0.69324-0.12267-1.1367-0.26381-1.5577-0.28227-0.8421-0.68265-1.5904-1.2646-2.5627l0.08165 0.14864c-7.1629-13.661-5.5725-31.561 4.2774-43.442a3.0273 3.0273 0 0 0 0.0503 -0.0607c7.3878-9.3968 19.305-14.753 31.309-15.001l-0.0294 0.002c11.752-0.13262 23.175-5.9569 29.747-15.87 7.0689-10.252 8.0028-23.967 3.2243-35.229a3.0273 3.0273 0 0 0 -0.0167 -0.03978c-5.58-12.676-18.46-21.127-32.19-21.552zm40.637 14.476c-0.72469-0.07989-2.2569 0.14482-3.1238 1.3274-0.86693 1.1826-0.69304 2.224-0.56948 2.8495 0.24712 1.2511 0.72151 2.0259 1.4488 3.241l-0.0817-0.14865c7.1629 13.661 5.5725 31.561-4.2774 43.442a3.0273 3.0273 0 0 0 -0.0503 0.0607c-7.3875 9.3964-19.307 14.751-31.311 14.999l0.0293-0.002c-11.752 0.13261-23.175 5.9569-29.747 15.87-7.069 10.253-8.0005 23.967-3.2222 35.229a3.0273 3.0273 0 0 0 0.0167 0.0398c5.9478 13.476 20.171 22.198 34.873 21.506 2.7634 0.0358 5.5563-0.0857 8.3497-0.45643h0.004c32.336-4.1341 59.864-31.272 63.948-63.726 3.7679-25.499-6.9672-52.151-27.143-68.114-0.7173-0.60663-2.241-1.9234-3.8315-3.1615-0.8107-0.63108-1.6298-1.2398-2.4287-1.7503-0.79891-0.51054-1.2895-1.0303-2.883-1.206z"/>
<path d="m132.46 45.721c-0.83512-0.02587-1.6736-0.01826-2.5124 0.02303-2.6818-0.03918-5.3694 0.08017-8.0293 0.4334-30.906 3.9445-57.474 30.152-61.35 61.155-3.6065 24.37 6.7276 50.044 26.025 65.313 2.1375 1.8042 11.1 9.626 6.9113 2.6276-7.7455-14.772-6.0613-33.886 4.6271-46.779 8.0138-10.193 20.77-15.889 33.627-16.155 10.777-0.12162 21.307-5.5137 27.279-14.543 6.42-9.2984 7.3125-22.04 2.9396-32.346-5.09-11.52-16.99-19.339-29.52-19.727zm40.4 14.459c-0.65006-0.07166-0.62436 0.66879 0.68463 2.8558 7.7455 14.772 6.0614 33.886-4.6271 46.779-8.0138 10.193-20.772 15.887-33.629 16.153-10.777 0.12161-21.307 5.5137-27.279 14.543-6.42 9.2984-7.3104 22.04-2.9375 32.346 5.4243 12.29 18.608 20.369 32.029 19.708 2.6818 0.0392 5.3694-0.0822 8.0293-0.43549 30.906-3.9445 57.474-30.152 61.35-61.155 3.6065-24.37-6.7276-50.042-26.025-65.311-1.4695-1.2404-6.1658-5.3257-7.5959-5.4834z" filter="url(#ai)" fill="#f3e5ab"/>
<path opacity=".6" d="m125.76 63.334c-0.68057-0.0082-1.3614 0.31968-1.8945 0.79688-0.53317 0.47719-0.93359 1.1199-0.93359 1.8184v13.623c0 6.6569 0.003 10.066 0.0918 11.945 0.0444 0.93985 0.10774 1.4989 0.21484 1.9082 0.1071 0.40935 0.27388 0.66655 0.44727 0.90039 0.44034 0.5938 1.2526 1.1893 1.9609 1.4434 0.48255 0.17302 1.2899 0.25261 2.6191 0.30664 1.3293 0.05403 3.1576 0.06622 5.5684 0.04102 3.2267-0.03372 4.9798-0.06208 6.0645-0.16602 1.0847-0.10393 1.5555-0.31867 2.0098-0.65234 0.51411-0.37753 0.94183-0.69955 1.2695-1.1953 0.3277-0.49576 0.53312-1.136 0.66797-2.1172 0.26971-1.9623 0.27214-5.3491 0.27149-12.035-0.00033-3.5163-0.0338-6.6781-0.0918-9.0488-0.029-1.1854-0.0638-2.1731-0.10351-2.9102-0.0397-0.73708-0.0662-1.1762-0.14258-1.4512-0.20361-0.73338-0.72941-1.619-1.2676-2.125-0.42321-0.3979-0.80622-0.6787-1.9356-0.79492-1.1293-0.11623-3.0866-0.14053-6.9785-0.18945l-7.8379-0.09766zm1.9473 4.9707h5.7363 5.7363v11.482 11.48h-5.7363-5.7363v-11.48-11.482z" transform="translate(0,-2)" display="inline" filter="url(#af)" fill="url(#o)"/>
<path opacity=".6" d="m130.36 142.72c-3.0624 0-4.7214 0.0129-5.8125 0.35937-0.54556 0.17323-0.98827 0.49624-1.2148 0.93945-0.22658 0.44322-0.25 0.90951-0.25 1.4238 0 0.43651 0.0165 0.82407 0.17188 1.2051 0.15535 0.38102 0.49423 0.70638 0.90039 0.87695 0.81231 0.34114 1.9018 0.3418 3.8652 0.3418h2.9414v11.377 11.379h-2.8438c-1.5101 0-2.4019 0.0158-3.0606 0.12109-0.65867 0.10529-1.1278 0.37193-1.4688 0.71289-0.46091 0.4609-0.76916 1.0004-0.80273 1.5957-0.0336 0.59532 0.19937 1.171 0.58984 1.7285 0.13034 0.18609 0.34337 0.46166 0.68555 0.6211 0.34218 0.15943 0.74066 0.22331 1.377 0.27148 1.2726 0.0964 3.5504 0.0957 8.0918 0.0957 3.9677 0 6.2726-0.0179 7.6738-0.0937 0.7006-0.0379 1.1742-0.0873 1.5449-0.17188 0.37073-0.0846 0.6702-0.2268 0.8789-0.43555 0.18387-0.18386 0.33421-0.44757 0.42188-0.75586 0.0877-0.30828 0.13564-0.67272 0.16797-1.1797 0.0646-1.0139 0.0597-2.6024 0.0215-5.2969l-0.0879-6.2754a0.60315 0.60315 0 0 0 -0.30859 -0.51758l-0.9043-0.50586a0.60315 0.60315 0 0 0 0 -0.002c-0.42267-0.23629-0.76525-0.41604-1.1973-0.41602-0.43201 0.00003-0.77463 0.17981-1.1973 0.41602l-0.90235 0.50391a0.60315 0.60315 0 0 0 -0.30859 0.51562l-0.0918 4.8301-0.0781 4.2383h-1.3691-1.3574v-13.348-13.951a0.60315 0.60315 0 0 0 -0.60352 -0.60351h-5.4726z" transform="translate(0 -1.0694)" display="inline" filter="url(#ae)" fill="url(#n)"/>
<path d="m126.21 63.669c-1.0588-0.01282-2.342 1.0871-2.342 2.1459v12.824c0 12.531 0.0149 12.844 0.64691 13.696 0.3558 0.47979 1.1205 1.0422 1.6993 1.2498 0.729 0.26139 3.0638 0.35634 7.5964 0.30896 6.0725-0.06346 6.6067-0.11456 7.4153-0.70848 1.9257-1.4141 1.9516-1.6052 1.9504-14.191-0.00062-6.6151-0.13017-11.897-0.30778-12.536-0.16863-0.60739-0.66527-1.4416-1.1037-1.8538-0.79151-0.74417-0.85012-0.75032-8.1763-0.84242zm1.5201 4.0474h5.716 5.716v11.123 11.123h-5.716-5.716v-11.123z" fill="#5b2f00"/>
<path d="m142.63 172.8c0.42208-0.42207 0.48017-1.3327 0.40829-6.3996l-0.0838-5.9075-0.84967-0.47502c-0.76434-0.42731-0.93498-0.42734-1.6993-0.00015l-0.84967 0.47485-0.0855 4.546-0.0854 4.5459h-1.8456-1.8456v-13.131-13.131h-5.1509c-5.7538 0-6.281 0.16735-6.281 1.9944 0 1.5454 0.3997 1.7133 4.0784 1.7133h3.3369v11.277 11.277h-3.2442c-2.8322 0-3.3227 0.0784-3.8621 0.61795-0.74235 0.74233-0.78433 1.4788-0.13701 2.403 0.47746 0.68167 0.54384 0.68669 9.0926 0.68669 7.4656 0 8.6771-0.0654 9.1037-0.4921z" fill="#5b2f00"/>
</g>
<g>
<g>
<path d="m116.11 54.381c-9.7401 0-17.775 8.0353-17.775 17.775v7.7793h-29.395c-6.439 0-11.74 5.2982-11.74 11.738v77.527c0 6.4401 5.3002 11.74 11.74 11.74h129.17c6.4401 0 11.74-5.3002 11.74-11.74v-77.527c0-6.4401-5.3012-11.738-11.74-11.738h-29.395v-7.7793c0-9.7401-8.0353-17.775-17.775-17.775h-34.834zm1.3633 19.137h32.107v6.418h-32.107v-6.418z" xlink:href="#d" transform="translate(0 5.788)" filter="url(#aa)" fill="url(#h)"/>
<path d="m116.11 54.381c-9.7401 0-17.775 8.0353-17.775 17.775v7.7793h-29.395c-6.439 0-11.74 5.2982-11.74 11.738v77.527c0 6.4401 5.3002 11.74 11.74 11.74h129.17c6.4401 0 11.74-5.3002 11.74-11.74v-77.527c0-6.4401-5.3012-11.738-11.74-11.738h-29.395v-7.7793c0-9.7401-8.0353-17.775-17.775-17.775h-34.834zm1.3633 19.137h32.107v6.418h-32.107v-6.418z" xlink:href="#d" transform="translate(0 1.9293)" fill="url(#i)"/>
<path id="d" d="m115.47 55.709c-7.9868 0-14.607 6.6206-14.607 14.607v11.883h-34.289c-4.6266 0-8.3516 3.7249-8.3516 8.3516v80.367c0 4.6266 3.7249 8.3516 8.3516 8.3516h133.9c4.6266 0 8.3516-3.7249 8.3516-8.3516v-80.367c0-4.6266-3.7249-8.3516-8.3516-8.3516h-34.289v-11.883c0-7.9868-6.6206-14.607-14.607-14.607h-36.111zm0 12.201h36.111c1.4378 0 2.4043 0.96847 2.4043 2.4062v11.883h-40.92v-11.883c0-1.4378 0.96652-2.4062 2.4043-2.4062z" transform="matrix(.96466 0 0 .96466 4.7183 4.3237)" filter="url(#ac)" fill="#f3e5ab"/>
<path d="m158.54 101.49a1.1415 1.1415 0 0 0 -0.49218 0.11133l-4.0859 1.9551c-2.2463 1.0748-4.4022 2.1014-4.7363 2.2578-0.38394 0.17975-1.8714 0.88992-3.3457 1.5976-2.5697 1.2336-4.4951 2.1529-8.9902 4.293-1.1416 0.54351-2.7095 1.2943-3.4902 1.6699-0.77522 0.37293-1.7777 0.8508-2.2148 1.0566-0.4591 0.2162-1.9761 0.94215-3.3945 1.623-1.4155 0.67949-3.4621 1.6569-4.543 2.1699-1.0846 0.51486-2.4934 1.186-3.1367 1.4941-0.63818 0.3057-2.7982 1.3392-4.7988 2.2949-0.23725 0.11333-0.38782 0.18502-0.61328 0.29296a1.1415 1.1415 0 0 0 -0.68165 -0.95898l-0.44531-0.19336c-0.18325-0.0795-1.8654-0.83635-3.6152-1.627-1.7514-0.79132-4.3207-1.9497-5.7109-2.5762-1.389-0.62593-2.8001-1.2623-3.1309-1.4121-2.3928-1.0836-4.9471-2.2382-6.6719-3.0137-1.1092-0.49867-3.4889-1.5724-5.2812-2.3848l-3.2617-1.4766a1.1415 1.1415 0 0 0 -0.47852 -0.10157l-3.4531 0.0254a1.1415 1.1415 0 0 0 -0.002 0l-3.4531 0.0273a1.1415 1.1415 0 0 0 -0.45508 2.1836l1.1055 0.49219c0.6085 0.27114 1.2866 0.57204 1.5117 0.67187 0.48937 0.21693 7.3977 3.3208 7.873 3.5371 0.24746 0.11264 1.7962 0.80709 3.4922 1.5664 1.6955 0.75909 3.7211 1.6654 4.498 2.0137 5.8363 2.6164 8.559 3.8386 10.307 4.627 1.1116 0.50151 2.196 0.98997 2.4277 1.0938 0.15768 0.0706 0.30662 0.1267 0.46094 0.17187 0.0772 0.0226 0.1546 0.0438 0.25781 0.0606 0.10322 0.0168 0.17181 0.0963 0.59571-0.0371 0.16168-0.0509 0.12229-0.0433 0.1582-0.0586 0.0359-0.0153 0.0775-0.0329 0.12695-0.0547 0.099-0.0436 0.22996-0.10312 0.38672-0.17383 0.0161-0.007 0.0439-0.0198 0.0605-0.0273 0.002 0.46321 0.004 0.95698 0.004 0.95704 0.00009 0.00009 0.44308 0.26944 0.44335 0.26953 0.00055 0.00018 0.16824 0.0406 0.19922 0.0449 0.062 0.009 0.079 0.009 0.0977 0.01 0.0374 0.002 0.0595 0.003 0.0879 0.004 0.0567 0.002 0.1261 0.004 0.2168 0.006 0.1814 0.003 0.4424 0.005 0.77929 0.008 0.67379 0.005 1.6467 0.008 2.8496 0.0117 2.4059 0.007 5.7288 0.0117 9.3887 0.0117h13.305a1.1415 1.1415 0 0 0 0.45508 -0.0937l2.8066-1.2227c1.5438-0.6726 3.1568-1.3765 3.5938-1.5684 1.6422-0.72099 2.5477-1.1143 9.5234-4.1602 3.9464-1.7232 9.3792-4.0951 12.074-5.2695 5.2797-2.3006 5.9221-2.5816 7.084-3.0996 0.40985-0.18273 1.3448-0.59404 2.0645-0.90821 3.8595-1.6849 7.9419-3.4657 9.1426-3.9863 0.75354-0.32672 2.0959-0.91214 2.9883-1.3047l1.6152-0.71094a1.1415 1.1415 0 0 0 -0.45899 -2.1856l-15.52-0.002-15.52-0.002zm2.3652 23.852a1.1415 1.1415 0 0 0 -1.1406 1.1406v4.9609 2.7598c-1.5257-0.99475-3.2237-1.6595-5.3242-1.7598-2.1166-0.10111-4.1624 0.31555-6.1094 1.2363-1.4968 0.70789-2.6699 1.5528-3.9062 2.8106-1.7491 1.7795-2.8422 3.7392-3.4863 6.2305-0.27361 1.0583-0.32221 1.5233-0.32422 3.3652-0.002 2.1619 0.11966 3.0828 0.61524 4.6133 0.64439 1.9899 1.7776 3.843 3.2285 5.2656 0.47761 0.4683 0.9155 0.8922 1.2305 1.1445 1.5794 1.2653 3.8159 2.2895 5.7734 2.6289 0.33186 0.0575 0.72113 0.1248 0.85351 0.14843a1.1415 1.1415 0 0 0 0.002 0c0.33103 0.0589 0.56321 0.0508 0.90429 0.0488s0.73318-0.016 1.1309-0.0371c0.79536-0.0422 1.4943-0.0793 2.0703-0.21875 1.49-0.36066 2.7373-1.0702 3.8457-1.9316l0.006 0.28711a1.1415 1.1415 0 0 0 1.1406 1.1191h2.5742 2.5742a1.1415 1.1415 0 0 0 1.1406 -1.1406v-15.766-15.766a1.1415 1.1415 0 0 0 -1.1406 -1.1406h-2.8301-2.8281zm-20.822 7.0723-0.68359 0.004c-1.5007 0.004-2.7939 0.62893-3.9219 1.5098a1.1415 1.1415 0 0 0 -1.0527 -0.70313h-2.5762-2.5781a1.1415 1.1415 0 0 0 -1.1406 1.1406v11.824 11.824a1.1415 1.1415 0 0 0 1.1406 1.1406h2.8301 2.8301a1.1415 1.1415 0 0 0 1.1406 -1.1406l0.002-7.2012c0.001-3.9536 0.006-5.9686 0.0781-7.0547 0.0717-1.0861 0.12182-1.0864 0.41602-1.6856 0.49194-1.0018 1.4628-1.6587 2.9746-1.8125l0.60546-0.0606a1.1415 1.1415 0 0 0 1.0274 -1.123l0.0273-2.7539 0.0274-2.7559a1.1415 1.1415 0 0 0 -1.1465 -1.1523zm-54.303 0.008c-0.61467 0.009-1.2296 0.0599-1.8359 0.1582-5.0484 0.81879-9.281 4.363-10.885 9.1406-0.50876 1.5156-0.64931 2.4463-0.65625 4.3633-0.0068 1.8689 0.09054 2.5868 0.55664 4.166 1.4293 4.8429 5.8288 8.6864 10.852 9.4941 0.20403 0.0328 0.40757 0.0662 0.56641 0.0937 0.15884 0.0276 0.33509 0.0662 0.25586 0.0469 0.46457 0.1126 0.58577 0.0619 0.92578 0.0586 0.34001-0.003 0.74615-0.0168 1.1621-0.0391 0.83192-0.0444 1.6143-0.0941 2.1797-0.21289 4.4412-0.93291 7.8497-3.7636 9.7578-8.0625 0.09315-0.20987 0.1764-0.40611 0.24024-0.56055 0.03191-0.0772 0.05884-0.14207 0.08203-0.20312 0.01159-0.0305 0.02182-0.0574 0.03516-0.0977 0.0067-0.0201 0.01465-0.0434 0.02539-0.084 0.0054-0.0203 0.01188-0.0455 0.01953-0.0859 0.0076-0.0404 0.01953-0.21399 0.01953-0.21484 0-0.00011-0.08589-0.43544-0.08594-0.43555-0.000044-0.00011-0.17569-0.29286-0.17578-0.29297-0.000175-0.00021-0.28871-0.24979-0.28906-0.25-0.000351-0.00021-0.12466-0.0654-0.16602-0.082-0.04135-0.0167-0.0717-0.0273-0.09766-0.0352-0.10381-0.0313-0.14043-0.0321-0.17383-0.0371-0.06679-0.0101-0.09692-0.013-0.13281-0.0156-0.07179-0.005-0.1434-0.009-0.23242-0.0117-0.17805-0.006-0.41755-0.0113-0.71289-0.0156-0.59017-0.009-1.3967-0.0127-2.2832-0.0117h-0.002l-3.207 0.002a1.1415 1.1415 0 0 0 -0.94531 0.50195l-0.32812 0.48633c-0.09653 0.1421-0.49456 0.61821-0.7207 0.84375-1.0479 1.0451-1.8858 1.3965-3.2871 1.3965-2.8519 0-4.8992-1.588-5.7129-4.498-0.22327-0.79851-0.23991-2.6368 0.0059-3.6211 0.55562-2.2245 2.12-3.7783 4.1875-4.2383 0.67714-0.15065 2.6901-0.0289 3.0469 0.0996 0.91641 0.32998 1.7498 1.0001 2.416 2.0215h-0.002l0.44336 0.68164a1.1415 1.1415 0 0 0 0.95703 0.51758h3.1855 3.1855a1.1415 1.1415 0 0 0 1.0938 -1.4668l-0.06836-0.22852a1.1415 1.1415 0 0 0 -0.002 -0.006c-0.36816-1.2121-1.2005-2.7537-2.0684-3.9492-2.4508-3.3761-6.8257-5.3751-11.129-5.3164zm27.643 0.004c-1.6736-0.0428-3.4448 0.21917-5.0469 0.76757-4.2364 1.4502-7.6575 5.1723-8.7617 9.5254-0.89772 3.539-0.42724 7.1692 1.3496 10.256 1.3627 2.3672 3.4463 4.3472 5.8496 5.5488 1.106 0.55301 2.7445 1.0799 3.9629 1.2695 4.3231 0.67293 8.8161-0.73856 11.869-3.7539 2.3022-2.2737 3.6244-5.219 3.9258-8.6504 0.63689-7.2526-4.3223-13.629-11.518-14.814-0.52763-0.0869-1.0735-0.1342-1.6308-0.14843zm67.389 0.01c-0.37345 0.0109-0.73766 0.0357-1.0859 0.082-4.2504 0.56594-7.8847 3.1777-9.8203 7.0469-1.0317 2.0624-1.4485 3.9954-1.4492 6.5859-0.00046 1.7188 0.16699 2.9931 0.60351 4.5254 1.3799 4.8436 5.3875 8.4571 10.234 9.1641 3.0607 0.4464 6.3963-0.49158 8.9707-2.3203v0.49415a1.1415 1.1415 0 0 0 1.1406 1.1406h2.5762 2.5781a1.1415 1.1415 0 0 0 1.1406 -1.1406v-11.824-11.824a1.1415 1.1415 0 0 0 -1.1406 -1.1406h-2.5781-2.5762a1.1415 1.1415 0 0 0 -1.1406 1.1406v0.5332c-1.2448-0.9497-2.6799-1.7772-4.1348-2.1504-0.97406-0.2498-2.1867-0.34377-3.3164-0.3125a1.1415 1.1415 0 0 0 -0.002 0zm-67.625 7.5234c0.5654 0.0205 1.12 0.12573 1.4375 0.24804 1.5134 0.58298 2.876 1.9108 3.5176 3.4453 0.38789 0.9277 0.51333 1.6772 0.46094 2.875-0.0572 1.3095-0.156 1.7104-0.68945 2.7988-0.3049 0.6221-0.41058 0.76271-1.1191 1.4746-0.9013 0.90551-1.4536 1.2276-2.5254 1.502-0.52223 0.13371-2.1312 0.12627-2.7774-0.043-1.0268-0.26905-1.6624-0.64096-2.5391-1.5176-1.4248-1.4248-1.963-2.9632-1.7695-5.2305 0.081-0.94899 0.23494-1.4833 0.67969-2.3457 0.76871-1.4906 2.1604-2.618 3.7656-3.0566 0.40337-0.1102 0.99277-0.1709 1.5586-0.15039zm40.838 0.01c0.58713-0.0296 1.2042 0.0127 1.5957 0.0996v-0.002c1.8475 0.41101 3.5749 2.0237 4.2637 4.125 0.25554 0.77964 0.23438 0.67055 0.23438 1.998 0 1.2474 0.003 1.2689-0.17774 1.8105-0.68921 2.0642-2.1164 3.5714-3.7832 4.1621-0.53421 0.18933-0.62811 0.20226-1.5957 0.22461a1.1415 1.1415 0 0 0 -0.002 0c-1.2939 0.0299-1.3892 0.0194-2.2012-0.30859-2.3826-0.96234-3.9749-3.5269-3.8262-6.2832 0.0554-1.0268 0.26103-1.7697 0.71094-2.5977 0.80825-1.4875 1.9064-2.4528 3.3438-2.9883 0.27219-0.1014 0.84982-0.21057 1.4375-0.24024zm28.467 0c0.6606 0.0266 1.3498 0.13802 1.5938 0.22071 1.8072 0.61254 3.1761 2.0706 3.709 3.9844 0.37263 1.3382 0.26711 3.3757-0.22656 4.6152-0.703 1.7651-2.2069 3.0917-3.8867 3.5039-0.001 0.00027-0.003-0.00027-0.004 0a1.1415 1.1415 0 0 0 -0.008 0.002c-0.45271 0.11064-2.3661 0.11253-2.8066 0.006-2.2132-0.53672-3.9308-2.3925-4.3828-4.8398-0.11185-0.6056-0.0237-2.3788 0.17187-3.0625 0.65538-2.2911 2.186-3.8174 4.2383-4.3379 0.24394-0.0619 0.94123-0.11835 1.6016-0.0918z" xlink:href="#f" transform="translate(0 -.60509)" filter="url(#w)" fill="url(#g)"/>
<path id="f" d="m158.54 102.63-4.0859 1.9551c-2.2474 1.0754-4.3828 2.0926-4.7441 2.2617-0.3613 0.16915-1.8629 0.88663-3.3359 1.5938-2.5707 1.2341-4.4986 2.1547-8.9941 4.2949-1.1395 0.54251-2.7081 1.2936-3.4863 1.668-0.7782 0.37436-1.778 0.85114-2.2227 1.0606-0.44468 0.2094-1.9693 0.93872-3.3867 1.6191-1.4174 0.68043-3.463 1.6574-4.5469 2.1719s-2.4955 1.186-3.1348 1.4922c-0.63923 0.3062-2.7978 1.339-4.7988 2.2949-2.0011 0.95596-3.6585 1.7563-3.6816 1.7793-0.0232 0.0231 5.9459 0.041 13.264 0.041h13.305l2.8066-1.2227c1.5435-0.67244 3.1591-1.3773 3.5898-1.5664 1.6433-0.72149 2.5497-1.1163 9.5254-4.1621 3.9466-1.7232 9.3803-4.0948 12.076-5.2695 5.2795-2.3006 5.9148-2.5788 7.0742-3.0957 0.41688-0.18586 1.3496-0.59666 2.0723-0.91211 3.86-1.6851 7.9413-3.4638 9.1465-3.9863 0.75041-0.32536 2.093-0.91148 2.9824-1.3027l1.6152-0.71094-15.52-0.002-15.52-0.002zm-73.111 7.0723-3.4531 0.0254-3.4531 0.0273 1.1055 0.49219c0.60814 0.27098 1.2874 0.57328 1.5098 0.67188 0.53354 0.23651 7.363 3.3044 7.8828 3.541 0.22234 0.1012 1.791 0.80543 3.4863 1.5644 1.6954 0.75901 3.7198 1.6648 4.498 2.0137 5.8364 2.6164 8.5587 3.8375 10.309 4.627 1.1117 0.50153 2.2034 0.99415 2.4258 1.0938 0.22234 0.0996 0.45026 0.16594 0.50586 0.14844s0.82435-0.36368 1.709-0.77149l1.6074-0.74219-0.44532-0.19335c-0.2454-0.10649-1.8799-0.84174-3.6308-1.6328-1.7509-0.79109-4.3194-1.95-5.709-2.5762-1.3896-0.62622-2.7993-1.263-3.1328-1.4141-2.392-1.0833-4.9469-2.2371-6.6699-3.0117-1.1117-0.49982-3.4896-1.5738-5.2832-2.3867l-3.2617-1.4766zm75.477 16.779v4.9609 4.9629l-0.58203-0.5332c-1.6024-1.469-3.4194-2.1688-5.9375-2.2891-1.9363-0.0925-3.7756 0.28-5.5664 1.127-1.3958 0.66013-2.4115 1.3913-3.5801 2.5801-1.63 1.6584-2.5906 3.376-3.1953 5.7148-0.26746 1.0345-0.28706 1.2481-0.28906 3.082-0.002 2.1312 0.0832 2.7856 0.56054 4.2598 0.58643 1.8109 1.6353 3.5221 2.9414 4.8027 0.46329 0.45426 0.97778 0.93477 1.1445 1.0684 1.3822 1.1074 3.5629 2.101 5.2559 2.3945 0.33351 0.0578 0.72042 0.12559 0.85937 0.15039 0.51733 0.0921 3.0047-0.0399 3.6387-0.19336 1.9868-0.4809 3.5877-1.4379 4.7168-2.8203l0.48633-0.59765 0.0293 1.4297 0.0273 1.4316h2.5742 2.5742v-15.766-15.766h-2.8301-2.8281zm-20.816 7.0723-0.68359 0.004c-1.8164 0.004-3.3211 0.76496-4.377 2.2148-0.24567 0.33737-0.48229 0.61328-0.52539 0.61328-0.043 0-0.0781-0.45586-0.0781-1.0117v-1.0098h-2.5762-2.5781v11.824 11.824h2.8301 2.8301l0.002-7.2012c0.002-7.9081 0.0102-8.024 0.60938-9.2441 0.67985-1.3845 2.0709-2.2592 3.8867-2.4434l0.60547-0.0605 0.0274-2.7539 0.0273-2.7559zm-54.293 0.008c-0.56104 0.008-1.1189 0.0555-1.668 0.14453-4.6326 0.75134-8.5219 4.0145-9.9863 8.377-0.49043 1.461-0.59086 2.1267-0.59766 4.0039-0.0067 1.8436 0.05297 2.2921 0.50976 3.8398 1.2918 4.3769 5.3867 7.9573 9.9395 8.6894 0.41689 0.067 0.82678 0.1379 0.91016 0.1582 0.37338 0.0905 3.0572-0.0528 3.7637-0.20117 4.1148-0.86435 7.1649-3.3882 8.9492-7.4082 0.17909-0.40348 0.32422-0.7559 0.32422-0.7832s-1.4441-0.0489-3.209-0.0469l-3.209 0.002-0.32812 0.48633c-0.18105 0.26705-0.56794 0.72302-0.85938 1.0137-1.2077 1.2045-2.4499 1.7285-4.0938 1.7285-3.3137 0-5.8839-2.0111-6.8125-5.332-0.31133-1.1134-0.31235-2.9622-0.002-4.2051 0.65067-2.6051 2.5557-4.52 5.0469-5.0742 1.013-0.22538 2.8629-0.15614 3.6816 0.13867 1.176 0.42345 2.2033 1.275 2.9844 2.4727l0.44336 0.68164h3.1855 3.1855l-0.06836-0.22852c-0.29593-0.97431-1.1165-2.5315-1.9004-3.6113-2.188-3.0141-6.2622-4.8993-10.189-4.8457zm27.598 0.004c-1.5303-0.0391-3.1881 0.20715-4.6484 0.70703-3.8378 1.3137-7.0238 4.7784-8.0254 8.7266-0.82936 3.2695-0.39632 6.5749 1.2324 9.4043 1.2469 2.1661 3.1843 4.0042 5.3711 5.0977 0.93037 0.46519 2.6117 1.0057 3.6289 1.1641 3.96 0.61641 8.1128-0.69588 10.891-3.4394 2.1123-2.0862 3.3104-4.7328 3.5918-7.9375 0.58724-6.6872-3.9287-12.494-10.566-13.588-0.46982-0.0774-0.96452-0.12174-1.4746-0.13477zm67.451 0.01c-0.34407 0.01-0.67291 0.0329-0.96875 0.0723-3.883 0.51701-7.1757 2.8806-8.9492 6.4258-0.96537 1.9297-1.3294 3.5972-1.3301 6.0762-0.00044 1.651 0.14642 2.7592 0.56055 4.2129 1.2614 4.4279 4.9158 7.7081 9.3008 8.3476 3.2022 0.46704 7.0273-0.77448 9.3809-3.043 0.27659-0.2666 0.51796-0.48437 0.53516-0.48437s0.0312 0.63783 0.0312 1.416v1.4141h2.5762 2.5781v-11.824-11.824h-2.5781-2.5762v1.4648c0 0.806-0.0274 1.4648-0.0606 1.4648s-0.27263-0.2353-0.53125-0.52344c-1.0896-1.2139-3.2315-2.4729-4.9668-2.918-0.80233-0.20576-1.9697-0.30591-3.002-0.27734zm-67.617 5.2422c0.66448 0.0241 1.3137 0.13434 1.8066 0.32422 1.8273 0.70389 3.3926 2.2346 4.1602 4.0703 0.4466 1.0681 0.60633 2.0504 0.54883 3.3652-0.0606 1.3867-0.23214 2.0818-0.80469 3.25-0.33992 0.69356-0.59734 1.0353-1.3359 1.7773-0.99343 0.99808-1.8224 1.4883-3.0508 1.8027-0.8599 0.22017-2.4175 0.19926-3.3496-0.0449-1.1958-0.31333-2.0809-0.83869-3.0566-1.8145-1.6383-1.6384-2.3146-3.6151-2.0996-6.1348 0.0903-1.0586 0.30882-1.8138 0.80274-2.7715 0.91669-1.7776 2.5587-3.1102 4.4785-3.6348 0.55588-0.15187 1.2359-0.21354 1.9004-0.18946zm40.74 0.01c0.67031-0.0338 1.3595 0.005 1.9004 0.125 2.2983 0.51131 4.292 2.4188 5.0996 4.8828 0.26626 0.81234 0.29101 1.012 0.29101 2.3535 0 1.2668-0.0322 1.5603-0.23633 2.1719-0.78621 2.3547-2.4399 4.1524-4.4844 4.877-0.60875 0.21574-0.95141 0.26596-1.9512 0.28906-1.3352 0.0309-1.7678-0.0317-2.6562-0.39063-2.8634-1.1566-4.7133-4.1738-4.5391-7.4023 0.0628-1.1643 0.32548-2.1174 0.84961-3.082 0.92198-1.6968 2.2546-2.8832 3.9473-3.5137 0.45848-0.17079 1.109-0.27671 1.7793-0.31055zm28.568 0c0.73113 0.0294 1.4598 0.12664 1.916 0.28125 2.1666 0.73436 3.8118 2.4967 4.4414 4.7578 0.45513 1.6345 0.34746 3.8044-0.26563 5.3438-0.83668 2.1008-2.6137 3.6911-4.6875 4.1953v-0.002c-0.81327 0.19877-2.5422 0.20105-3.3476 0.006-2.6689-0.64723-4.7083-2.8832-5.2363-5.7422-0.1707-0.92426-0.0775-2.6236 0.19726-3.584 0.75211-2.6292 2.6041-4.5074 5.0547-5.1289 0.46379-0.11763 1.1966-0.15635 1.9277-0.12695z" fill="#5b2f00"/>
</g>
</g>
</svg>
