<?xml version="1.0" encoding="UTF-8" standalone="no"?>
<svg xmlns:rdf="http://www.w3.org/1999/02/22-rdf-syntax-ns#" xmlns="http://www.w3.org/2000/svg" height="72.571mm" width="75.367mm" version="1.1" xmlns:cc="http://creativecommons.org/ns#" xmlns:xlink="http://www.w3.org/1999/xlink" viewBox="0 0 267.04831 257.14285" xmlns:dc="http://purl.org/dc/elements/1.1/">
<defs>
<linearGradient id="a">
<stop stop-color="#5b2f00" offset="0"/>
<stop stop-color="#7b3f00" offset="1"/>
</linearGradient>
<linearGradient id="e" y2="364.12" gradientUnits="userSpaceOnUse" x2="537.55" y1="217.69" x1="537.55">
<stop stop-color="#f3e5ab" offset="0"/>
<stop stop-color="#917816" offset="1"/>
</linearGradient>
<linearGradient id="d" y2="321.26" gradientUnits="userSpaceOnUse" x2="536.13" y1="240.55" x1="536.13">
<stop stop-color="#582d00" offset="0"/>
<stop stop-color="#7b3f00" stop-opacity="0" offset="1"/>
</linearGradient>
<linearGradient id="h" y2="354.89" xlink:href="#a" gradientUnits="userSpaceOnUse" x2="373.45" gradientTransform="translate(25.072 -112.49)" y1="-1.2477" x1="373.45"/>
<linearGradient id="f" y2="235.96" xlink:href="#a" gradientUnits="userSpaceOnUse" x2="377.07" gradientTransform="matrix(.97664 0 0 .99404 33.765 -112.76)" y1="359.58" x1="377.07"/>
<linearGradient id="g" y2="97.746" gradientUnits="userSpaceOnUse" x2="370.78" gradientTransform="matrix(1 0 0 .92323 25.039 -104.85)" y1="110.6" x1="370.78">
<stop stop-color="#7b3f00" offset="0"/>
<stop stop-color="#a15200" offset="1"/>
</linearGradient>
<linearGradient id="i" y2="292.42" xlink:href="#a" gradientUnits="userSpaceOnUse" x2="371.03" gradientTransform="matrix(.98036 0 0 .92157 32.356 -85.773)" y1="309.59" x1="371.03"/>
<linearGradient id="c" y2="307.59" gradientUnits="userSpaceOnUse" x2="619.84" gradientTransform="matrix(1.0115 0 0 .97403 -225.68 -82.118)" y1="291.09" x1="619.84">
<stop stop-color="#dbba00" offset="0"/>
<stop stop-color="#d4b400" stop-opacity="0" offset="1"/>
</linearGradient>
<filter id="n" style="color-interpolation-filters:sRGB">
<feGaussianBlur stdDeviation="2 2" result="fbSourceGraphic"/>
<feColorMatrix values="0 0 0 -1 0 0 0 0 -1 0 0 0 0 -1 0 0 0 0 1 0" result="fbSourceGraphicAlpha" in="fbSourceGraphic"/>
<feGaussianBlur in="fbSourceGraphic" stdDeviation="2 2" result="blur"/>
</filter>
<filter id="m" style="color-interpolation-filters:sRGB" height="1.1127" width="1.0134" y="-.056354" x="-.0067149">
<feGaussianBlur stdDeviation="0.5911963"/>
</filter>
<filter id="l" style="color-interpolation-filters:sRGB" height="1.0243" width="1.0237" y="-.012173" x="-.011832">
<feGaussianBlur stdDeviation="0.72204457"/>
</filter>
<filter id="k" style="color-interpolation-filters:sRGB" height="1.0244" width="1.0236" y="-.012183" x="-.011822">
<feGaussianBlur stdDeviation="4.0741945"/>
</filter>
<filter id="j" style="color-interpolation-filters:sRGB" height="1.024" width="1.024" y="-.012019" x="-.011981">
<feGaussianBlur stdDeviation="0.84318371"/>
</filter>
</defs>
<g transform="translate(-263.62 22.253)">
<g transform="translate(0,10)">
<rect ry="9.8391" height="214.29" filter="url(#n)" width="222.54" y="-.82423" x="285.87" fill="url(#c)"/>
<rect ry="10.102" height="220" width="220" y="-13.457" x="287.14" fill="#7b3f00"/>
<rect ry="7.1429" height="180.09" width="180.09" y="-2.6455" x="307.1" fill="url(#h)"/>
<rect ry="6.6778" height="168.37" filter="url(#j)" width="168.91" y="7.7932" x="312.69" fill="url(#f)"/>
<path d="m297.21-13.457c-1.7728 0-3.4356 0.45434-4.8809 1.25l15.166 7.3398h180.24l14.223-7.2988c-1.4614-0.81976-3.1459-1.291-4.9473-1.291h-199.8z" fill="url(#g)"/>
<path d="m309.29 181.36-17.795 23.402c1.6265 1.1188 3.5967 1.7754 5.7285 1.7754h199.8c2.152 0 4.1402-0.67034 5.7754-1.8086l-16.852-23.369h-176.65z" filter="url(#m)" fill="url(#i)"/>
</g>
</g>
<g transform="translate(-263.62 22.253)">
<g transform="translate(-138.57 -108.57)">
<path d="m579.88 137.47a3.3988 3.3988 0 0 0 -0.24218 0.0156c-0.15153 0.0145-0.30211 0.0317-0.45313 0.0508a3.3988 3.3988 0 0 0 -0.26562 0.043c-1.7423 0.36169-2.8171 1.1465-3.7383 2.4356-0.67354 0.94245-0.96283 1.9697-1.0527 2.3184-0.0481 0.18631-0.0784 0.24819-0.17969 0.62109-0.005 0.0177-0.0172 0.10608-0.0234 0.12305a3.3988 3.3988 0 0 0 -0.0645 0.18164c-2.4111 7.9834-4.7488 15.942-7.1152 23.883-3.4487-3.6238-7.5454-6.6814-12.299-8.6973-6.1553-2.652-12.825-3.8882-19.459-3.7578-5.258-0.11217-10.418 0.56916-15.377 1.7695-5.0359 1.1104-10.316 2.8747-15.037 6.1992-9.1037 6.2655-15.508 15.355-19.783 24.881-2.3918 5.0672-3.037 10.107-3.9473 14.199a3.3988 3.3988 0 0 0 -0.0156 0.084c-1.4517 7.0526-2.422 13.997-3.6602 20.695-1.9679 8.9805-4.9673 17.71-9.209 25.713a3.3988 3.3988 0 0 0 -0.002 0.002c-1.1327 2.1392-2.671 4.2961-4.3672 6.4941a3.3988 3.3988 0 0 0 -0.53906 1.0215c-0.20892 0.63932-0.37436 1.2916-0.4961 1.9531a3.3988 3.3988 0 0 0 -0.0137 1.1484c0.40535 2.547 2.092 4.002 3.0938 4.6856 0.39377 0.26871 0.74063 0.47657 0.98828 0.61914 0.24765 0.14258 0.74066 0.51271 0.0703 0.0156a3.3988 3.3988 0 0 0 0.17188 0.11914c0.11498 0.0747 0.23068 0.14721 0.34765 0.21875a3.3988 3.3988 0 0 0 0.21485 0.12109c5.8767 3.0311 11.907 4.8416 17.445 6.707a3.3988 3.3988 0 0 0 0.0547 0.0176c0.0148 0.005 0.0301 0.011 0.0449 0.0156 6.8211 2.15 13.755 4.2964 20.889 6.0469a3.3988 3.3988 0 0 0 0.0606 0.0137c0.0378 0.009 0.0754 0.0171 0.11328 0.0254a3.3988 3.3988 0 0 0 0.0645 0.0137c12.834 2.5403 26.006 2.9513 38.912 1.5898a3.3988 3.3988 0 0 0 0.0254 -0.002c0.0219-0.002 0.0426-0.005 0.0645-0.008a3.3988 3.3988 0 0 0 0.0469 -0.006c6.2817-0.82619 12.715-2.1266 18.949-4.5098a3.3988 3.3988 0 0 0 0.0801 -0.0312c0.0404-0.0166 0.0808-0.0338 0.12109-0.0508a3.3988 3.3988 0 0 0 0.0547 -0.0234c-0.26443 0.1169 0.2032-0.0656 0.625-0.26953 0.4218-0.20389 0.95326-0.50892 1.5059-0.94727 0.4777-0.37893 1.6897-1.5356 2.1406-3.1797 0.6183-2.2548 0.0824-3.7775-1.1523-5.293a3.3988 3.3988 0 0 0 -0.54687 -0.53516c-0.35773-0.27874-0.72799-0.53979-1.1094-0.78516a3.3988 3.3988 0 0 0 -0.68359 -0.33984c-2.1417-0.77276-3.978-0.95436-3.998-0.96094a3.3988 3.3988 0 0 0 -0.11914 -0.0371c-0.0688-0.0198-0.13798-0.0397-0.20703-0.0586a3.3988 3.3988 0 0 0 -0.10938 -0.0274c-4.0227-0.95465-7.5983-2.8683-9.793-5.6308a3.3988 3.3988 0 0 0 -0.0801 -0.0977c-0.0442-0.0516-0.0879-0.10333-0.13282-0.1543a3.3988 3.3988 0 0 0 -0.0684 -0.0742c-1.4835-1.5878-2.3348-3.1991-2.4453-4.3008a3.3988 3.3988 0 0 0 0 -0.006c-0.31367-3.087-0.16708-6.1623 0.58008-8.6465 1.4109-3.5109 4.8403-6.653 8.625-7.9336a3.3988 3.3988 0 0 0 0.0371 -0.0137c0.0261-0.009 0.0521-0.018 0.0781-0.0273a3.3988 3.3988 0 0 0 0.0488 -0.0176c2.6762-1.0033 6.2705-1.0446 10.271-0.79492 3.881 0.47239 7.6248 2.7659 9.1113 5.791a3.3988 3.3988 0 0 0 0.0156 0.0293c2.0497 4.1065 1.687 9.6748 0.20508 15.328a3.3988 3.3988 0 0 0 -0.0274 0.10742c-0.0147 0.0646-0.0291 0.12855-0.043 0.19336a3.3988 3.3988 0 0 0 -0.0195 0.10742c0.12173-0.67408 0.1225-0.44166 0.0215-0.20117-0.10101 0.24049-0.26887 0.641-0.42188 1.1445-0.30601 1.007-0.53905 2.474-0.23828 4.1152a3.3988 3.3988 0 0 0 0.25781 0.8086c0.21034 0.45673 0.44236 0.90249 0.69727 1.3359a3.3988 3.3988 0 0 0 0.51758 0.67188c1.3304 1.3394 2.5704 1.8126 4.3984 1.7539 1.2575-0.0404 2.3644-0.54332 2.6836-0.70313 0.24178-0.12103 0.38801-0.18062 0.7207-0.36133 0.0278-0.0151 0.11875-0.0781 0.15235-0.0957 0.002-0.00085 0.006-0.003 0.008-0.004 9.2726-4.6294 16.465-12.796 20-22.484 3.4687-9.383 3.5048-19.212 2.6191-28.258a3.3988 3.3988 0 0 0 -0.006 -0.0859 3.3988 3.3988 0 0 0 -0.008 -0.0859c-0.71106-6.1828-1.9024-12.584-4.3516-18.771a3.3988 3.3988 0 0 0 -0.0313 -0.0762c-0.015-0.0353-0.0297-0.0722-0.0449-0.10742a3.3988 3.3988 0 0 0 -0.0176 -0.0391c-3.3912-7.5613-10.368-12.061-17.17-14.322-0.95575-0.3176-1.9575-0.42502-2.9297-0.67773 5.8515-7.4114 11.824-14.776 17.627-22.436a3.3988 3.3988 0 0 0 0.35937 -0.59375c0.17781-0.37384 0.34184-0.75342 0.48828-1.1406a3.3988 3.3988 0 0 0 0.17774 -0.67774c0.27249-1.7409-0.0805-3.0814-0.96094-4.4121-0.67239-1.0162-1.5583-1.6712-1.9805-1.9531-0.366-0.24445-0.6782-0.4408-0.96093-0.60352-0.045-0.0259-0.15438-0.0726-0.19141-0.0957-0.0138-0.01-0.0272-0.0197-0.041-0.0293a3.3988 3.3988 0 0 0 -0.19336 -0.125c-4.9828-2.9765-10.015-6.156-15.316-9.127a3.3988 3.3988 0 0 0 -0.18164 -0.0937c-0.10865-0.0526-0.21825-0.10434-0.32813-0.1543a3.3988 3.3988 0 0 0 -0.18359 -0.0781c-0.26372-0.10163-1.2524-0.4447-2.3535-0.41797zm25.977 104.37-0.14844 0.34375a3.3988 3.3988 0 0 0 0.14844 -0.34375z" xlink:href="#b" transform="translate(-.014866 5.905)" filter="url(#l)" fill="url(#d)"/>
<path d="m579.88 137.47a3.3988 3.3988 0 0 0 -0.24218 0.0156c-0.15153 0.0145-0.30211 0.0317-0.45313 0.0508a3.3988 3.3988 0 0 0 -0.26562 0.043c-1.7423 0.36169-2.8171 1.1465-3.7383 2.4356-0.67354 0.94245-0.96283 1.9697-1.0527 2.3184-0.0481 0.18631-0.0784 0.24819-0.17969 0.62109-0.005 0.0177-0.0172 0.10608-0.0234 0.12305a3.3988 3.3988 0 0 0 -0.0645 0.18164c-2.4111 7.9834-4.7488 15.942-7.1152 23.883-3.4487-3.6238-7.5454-6.6814-12.299-8.6973-6.1553-2.652-12.825-3.8882-19.459-3.7578-5.258-0.11217-10.418 0.56916-15.377 1.7695-5.0359 1.1104-10.316 2.8747-15.037 6.1992-9.1037 6.2655-15.508 15.355-19.783 24.881-2.3918 5.0672-3.037 10.107-3.9473 14.199a3.3988 3.3988 0 0 0 -0.0156 0.084c-1.4517 7.0526-2.422 13.997-3.6602 20.695-1.9679 8.9805-4.9673 17.71-9.209 25.713a3.3988 3.3988 0 0 0 -0.002 0.002c-1.1327 2.1392-2.671 4.2961-4.3672 6.4941a3.3988 3.3988 0 0 0 -0.53906 1.0215c-0.20892 0.63932-0.37436 1.2916-0.4961 1.9531a3.3988 3.3988 0 0 0 -0.0137 1.1484c0.40535 2.547 2.092 4.002 3.0938 4.6856 0.39377 0.26871 0.74063 0.47657 0.98828 0.61914 0.24765 0.14258 0.74066 0.51271 0.0703 0.0156a3.3988 3.3988 0 0 0 0.17188 0.11914c0.11498 0.0747 0.23068 0.14721 0.34765 0.21875a3.3988 3.3988 0 0 0 0.21485 0.12109c5.8767 3.0311 11.907 4.8416 17.445 6.707a3.3988 3.3988 0 0 0 0.0547 0.0176c0.0148 0.005 0.0301 0.011 0.0449 0.0156 6.8211 2.15 13.755 4.2964 20.889 6.0469a3.3988 3.3988 0 0 0 0.0606 0.0137c0.0378 0.009 0.0754 0.0171 0.11328 0.0254a3.3988 3.3988 0 0 0 0.0645 0.0137c12.834 2.5403 26.006 2.9513 38.912 1.5898a3.3988 3.3988 0 0 0 0.0254 -0.002c0.0219-0.002 0.0426-0.005 0.0645-0.008a3.3988 3.3988 0 0 0 0.0469 -0.006c6.2817-0.82619 12.715-2.1266 18.949-4.5098a3.3988 3.3988 0 0 0 0.0801 -0.0312c0.0404-0.0166 0.0808-0.0338 0.12109-0.0508a3.3988 3.3988 0 0 0 0.0547 -0.0234c-0.26443 0.1169 0.2032-0.0656 0.625-0.26953 0.4218-0.20389 0.95326-0.50892 1.5059-0.94727 0.4777-0.37893 1.6897-1.5356 2.1406-3.1797 0.6183-2.2548 0.0824-3.7775-1.1523-5.293a3.3988 3.3988 0 0 0 -0.54687 -0.53516c-0.35773-0.27874-0.72799-0.53979-1.1094-0.78516a3.3988 3.3988 0 0 0 -0.68359 -0.33984c-2.1417-0.77276-3.978-0.95436-3.998-0.96094a3.3988 3.3988 0 0 0 -0.11914 -0.0371c-0.0688-0.0198-0.13798-0.0397-0.20703-0.0586a3.3988 3.3988 0 0 0 -0.10938 -0.0274c-4.0227-0.95465-7.5983-2.8683-9.793-5.6308a3.3988 3.3988 0 0 0 -0.0801 -0.0977c-0.0442-0.0516-0.0879-0.10333-0.13282-0.1543a3.3988 3.3988 0 0 0 -0.0684 -0.0742c-1.4835-1.5878-2.3348-3.1991-2.4453-4.3008a3.3988 3.3988 0 0 0 0 -0.006c-0.31367-3.087-0.16708-6.1623 0.58008-8.6465 1.4109-3.5109 4.8403-6.653 8.625-7.9336a3.3988 3.3988 0 0 0 0.0371 -0.0137c0.0261-0.009 0.0521-0.018 0.0781-0.0273a3.3988 3.3988 0 0 0 0.0488 -0.0176c2.6762-1.0033 6.2705-1.0446 10.271-0.79492 3.881 0.47239 7.6248 2.7659 9.1113 5.791a3.3988 3.3988 0 0 0 0.0156 0.0293c2.0497 4.1065 1.687 9.6748 0.20508 15.328a3.3988 3.3988 0 0 0 -0.0274 0.10742c-0.0147 0.0646-0.0291 0.12855-0.043 0.19336a3.3988 3.3988 0 0 0 -0.0195 0.10742c0.12173-0.67408 0.1225-0.44166 0.0215-0.20117-0.10101 0.24049-0.26887 0.641-0.42188 1.1445-0.30601 1.007-0.53905 2.474-0.23828 4.1152a3.3988 3.3988 0 0 0 0.25781 0.8086c0.21034 0.45673 0.44236 0.90249 0.69727 1.3359a3.3988 3.3988 0 0 0 0.51758 0.67188c1.3304 1.3394 2.5704 1.8126 4.3984 1.7539 1.2575-0.0404 2.3644-0.54332 2.6836-0.70313 0.24178-0.12103 0.38801-0.18062 0.7207-0.36133 0.0278-0.0151 0.11875-0.0781 0.15235-0.0957 0.002-0.00085 0.006-0.003 0.008-0.004 9.2726-4.6294 16.465-12.796 20-22.484 3.4687-9.383 3.5048-19.212 2.6191-28.258a3.3988 3.3988 0 0 0 -0.006 -0.0859 3.3988 3.3988 0 0 0 -0.008 -0.0859c-0.71106-6.1828-1.9024-12.584-4.3516-18.771a3.3988 3.3988 0 0 0 -0.0313 -0.0762c-0.015-0.0353-0.0297-0.0722-0.0449-0.10742a3.3988 3.3988 0 0 0 -0.0176 -0.0391c-3.3912-7.5613-10.368-12.061-17.17-14.322-0.95575-0.3176-1.9575-0.42502-2.9297-0.67773 5.8515-7.4114 11.824-14.776 17.627-22.436a3.3988 3.3988 0 0 0 0.35937 -0.59375c0.17781-0.37384 0.34184-0.75342 0.48828-1.1406a3.3988 3.3988 0 0 0 0.17774 -0.67774c0.27249-1.7409-0.0805-3.0814-0.96094-4.4121-0.67239-1.0162-1.5583-1.6712-1.9805-1.9531-0.366-0.24445-0.6782-0.4408-0.96093-0.60352-0.045-0.0259-0.15438-0.0726-0.19141-0.0957-0.0138-0.01-0.0272-0.0197-0.041-0.0293a3.3988 3.3988 0 0 0 -0.19336 -0.125c-4.9828-2.9765-10.015-6.156-15.316-9.127a3.3988 3.3988 0 0 0 -0.18164 -0.0937c-0.10865-0.0526-0.21825-0.10434-0.32813-0.1543a3.3988 3.3988 0 0 0 -0.18359 -0.0781c-0.26372-0.10163-1.2524-0.4447-2.3535-0.41797zm25.977 104.37-0.14844 0.34375a3.3988 3.3988 0 0 0 0.14844 -0.34375z" xlink:href="#b" transform="translate(-.014866 1.905)" fill="url(#e)"/>
<path id="b" d="m1194.3 209.41a11.679 11.679 0 0 0 -2.0898 0.24023c-3.9906 0.82846-7.8585 3.6373-9.8457 6.418-1.9873 2.7807-2.6584 5.2108-3.1289 7.0352-0.9412 3.6487-1.8912 5.6864-0.5528 3.5195a11.679 11.679 0 0 0 -1.2441 2.7598c-17.868 59.161-35.078 118.46-52.867 177.41-22.181-32.29-52.527-59.247-89.227-74.805-33.86-14.603-70.743-21.437-107.45-20.645-29.306-0.65714-58.332 3.1394-86.459 9.9668-28.375 6.245-57.042 16.008-82.002 33.609-50.143 34.48-86.188 85.256-110.39 139.28-12.535 26.5-16.293 54.499-21.959 79.971a11.679 11.679 0 0 0 -0.0371 0.18164c-8.4578 41.089-14.202 82.24-21.686 122.64-11.982 54.734-30.309 108.19-56.441 157.49a11.679 11.679 0 0 0 -0.002 0.004c-7.5908 14.336-17.383 27.955-27.699 41.324a11.679 11.679 0 0 0 -2.2871 8.9707c1.1558 7.262 6.2864 11.881 9.7949 14.275 3.5085 2.3942 6.3304 3.7893 6.9043 4.2148a11.679 11.679 0 0 0 1.6016 0.99805c32.671 16.851 67.286 27.343 100.48 38.523a11.679 11.679 0 0 0 0.21875 0.0723c40.317 12.708 80.962 25.276 122.43 35.451a11.679 11.679 0 0 0 0.51563 0.11328c73.817 14.612 149.79 17.021 224.36 9.1543a11.679 11.679 0 0 0 0.29882 -0.035c36.238-4.7662 72.77-12.222 107.64-25.551a11.679 11.679 0 0 0 0.5508 -0.22656c1.0731-0.47437 4.3965-1.5004 8.2617-4.5664 1.9326-1.533 4.5275-3.859 5.7676-8.3808 1.24-4.5219-0.505-10.242-3.0117-13.318a11.679 11.679 0 0 0 -5.0899 -3.6074c-9.5729-3.4541-17.81-3.7516-23.121-5.4961a11.679 11.679 0 0 0 -0.9472 -0.26758c-27.012-6.4105-52.413-19.426-69.08-40.406a11.679 11.679 0 0 0 -0.6113 -0.70898c-10.61-11.27-18.59-24.01-19.92-37.23a11.679 11.679 0 0 0 0 -0.0137c-2.0696-20.368-1.3931-41.391 4.3477-59.898 10.663-27.414 35.429-49.792 63.711-59.361a11.679 11.679 0 0 0 0.3574 -0.12695c20.952-7.8552 45.197-7.503 69.809-5.9356 29.066 3.3726 57.466 19.793 70.09 45.484a11.679 11.679 0 0 0 0.031 0.0644c15.593 31.241 12.012 69.198 2.6699 104.84a11.679 11.679 0 0 0 -0.1953 0.88476c-0.5039 2.7902-6.0073 10.603-3.7813 22.75a11.679 11.679 0 0 0 3.2012 6.125c2.7639 2.7824 7.527 4.5683 11.113 4.4531 3.5863-0.1152 5.886-1.2203 7.5332-2.0449 3.2944-1.6492 5.4622-2.5834 3.1289-1.9375a11.679 11.679 0 0 0 2.1016 -0.80665c50.133-25.029 89.357-69.531 108.51-122.03l0.01-0.0176c19.028-51.441 19.486-106.68 14.338-158.9a11.679 11.679 0 0 0 -0.019 -0.1875c-4.0971-35.625-10.911-71.77-24.479-106.04a11.679 11.679 0 0 0 -0.2031 -0.48047c-17.023-37.957-53.088-61.796-89.646-73.947-15.042-4.9988-30.593-8.529-46.332-10.697 40.837-52.432 83.21-104 123.66-157.39a11.679 11.679 0 0 0 2.2285 -5.2461c0.651-4.1592-0.5841-8.8779-2.5879-11.906-2.0038-3.0283-4.2735-4.7003-6.1172-5.9316-3.6872-2.4626-6.5531-4.0652-5.6894-3.3164a11.679 11.679 0 0 0 -1.6621 -1.2012c-29.79-17.795-59.433-36.501-90.211-53.75a11.679 11.679 0 0 0 -1.5097 -0.70898c-1.2132-0.4675-3.2204-1.213-6.2012-1.1406z" xlink:href="#path4557" transform="matrix(.16890 0 0 .16890 378.25 105.5)" filter="url(#k)" fill="#f3e5ab"/>
</g>
</g>
</svg>
