<?xml version="1.0" encoding="UTF-8" standalone="no"?>
<!-- Created with Inkscape (http://www.inkscape.org/) -->

<svg
   xmlns:dc="http://purl.org/dc/elements/1.1/"
   xmlns:cc="http://creativecommons.org/ns#"
   xmlns:rdf="http://www.w3.org/1999/02/22-rdf-syntax-ns#"
   xmlns:svg="http://www.w3.org/2000/svg"
   xmlns="http://www.w3.org/2000/svg"
   xmlns:xlink="http://www.w3.org/1999/xlink"
   xmlns:sodipodi="http://sodipodi.sourceforge.net/DTD/sodipodi-0.dtd"
   xmlns:inkscape="http://www.inkscape.org/namespaces/inkscape"
   width="75.366966mm"
   height="72.571426mm"
   viewBox="0 0 267.04831 257.14285"
   id="svg2"
   version="1.1"
   inkscape:version="0.91 r13725"
   sodipodi:docname="Choconana_Logos_aclister.svg">
  <defs
     id="defs4">
    <linearGradient
       id="linearGradient4641"
       inkscape:collect="always">
      <stop
         id="stop4643"
         offset="0"
         style="stop-color:#582d00;stop-opacity:1" />
      <stop
         id="stop4645"
         offset="1"
         style="stop-color:#7b3f00;stop-opacity:0;" />
    </linearGradient>
    <linearGradient
       inkscape:collect="always"
       id="linearGradient4609">
      <stop
         style="stop-color:#f3e5ab;stop-opacity:1;"
         offset="0"
         id="stop4611" />
      <stop
         style="stop-color:#917816;stop-opacity:1"
         offset="1"
         id="stop4613" />
    </linearGradient>
    <inkscape:path-effect
       effect="bend_path"
       id="path-effect4568"
       is_visible="true"
       bendpath="m -392.4082,476.41345 803.71158,0"
       prop_scale="1"
       scale_y_rel="false"
       vertical="false" />
    <linearGradient
       id="linearGradient4339"
       inkscape:collect="always">
      <stop
         id="stop4312"
         offset="0"
         style="stop-color:#5b2f00;stop-opacity:1;" />
      <stop
         id="stop4314"
         offset="1"
         style="stop-color:#7b3f00;stop-opacity:1" />
    </linearGradient>
    <filter
       style="color-interpolation-filters:sRGB"
       inkscape:label="Drop Shadow"
       id="filter4451">
      <feFlood
         flood-opacity="0.498039"
         flood-color="rgb(0,0,0)"
         result="flood"
         id="feFlood4453" />
      <feComposite
         in="flood"
         in2="SourceGraphic"
         operator="in"
         result="composite1"
         id="feComposite4455" />
      <feGaussianBlur
         in="composite1"
         stdDeviation="3"
         result="blur"
         id="feGaussianBlur4457" />
      <feOffset
         dx="6"
         dy="6"
         result="offset"
         id="feOffset4459" />
      <feComposite
         in="SourceGraphic"
         in2="offset"
         operator="over"
         result="composite2"
         id="feComposite4461" />
    </filter>
    <linearGradient
       inkscape:collect="always"
       id="linearGradient4371">
      <stop
         style="stop-color:#dbba00;stop-opacity:1"
         offset="0"
         id="stop4373" />
      <stop
         style="stop-color:#d4b400;stop-opacity:0;"
         offset="1"
         id="stop4375" />
    </linearGradient>
    <linearGradient
       inkscape:collect="always"
       xlink:href="#linearGradient4609"
       id="linearGradient4615"
       x1="537.55432"
       y1="217.68988"
       x2="537.55432"
       y2="364.11847"
       gradientUnits="userSpaceOnUse" />
    <linearGradient
       inkscape:collect="always"
       xlink:href="#linearGradient4641"
       id="linearGradient4615-0"
       x1="536.12573"
       y1="240.54703"
       x2="536.12573"
       y2="321.26132"
       gradientUnits="userSpaceOnUse" />
    <linearGradient
       inkscape:collect="always"
       xlink:href="#linearGradient4339"
       id="linearGradient4300"
       x1="373.45209"
       y1="-1.2477264"
       x2="373.45209"
       y2="354.89008"
       gradientUnits="userSpaceOnUse"
       gradientTransform="translate(25.07228,-112.49021)" />
    <linearGradient
       inkscape:collect="always"
       xlink:href="#linearGradient4339"
       id="linearGradient4406"
       x1="377.06885"
       y1="359.57825"
       x2="377.06885"
       y2="235.9615"
       gradientUnits="userSpaceOnUse"
       gradientTransform="matrix(0.97663683,0,0,0.99403605,33.76499,-112.75679)" />
    <linearGradient
       inkscape:collect="always"
       xlink:href="#linearGradient4394"
       id="linearGradient4392-7"
       x1="370.77866"
       y1="110.60358"
       x2="370.77866"
       y2="97.746429"
       gradientUnits="userSpaceOnUse"
       gradientTransform="matrix(1,0,0,0.9232291,25.03852,-104.84574)" />
    <linearGradient
       id="linearGradient4394"
       inkscape:collect="always">
      <stop
         id="stop4396"
         offset="0"
         style="stop-color:#7b3f00;stop-opacity:1;" />
      <stop
         id="stop4398"
         offset="1"
         style="stop-color:#a15200;stop-opacity:1" />
    </linearGradient>
    <linearGradient
       inkscape:collect="always"
       xlink:href="#linearGradient4339"
       id="linearGradient4269-9"
       x1="371.0347"
       y1="309.59497"
       x2="371.0347"
       y2="292.42239"
       gradientUnits="userSpaceOnUse"
       gradientTransform="matrix(0.98036247,0,0,0.92156779,32.35619,-85.77339)" />
    <linearGradient
       inkscape:collect="always"
       xlink:href="#linearGradient4371"
       id="linearGradient4754"
       x1="619.83929"
       y1="291.08649"
       x2="619.83929"
       y2="307.58649"
       gradientUnits="userSpaceOnUse"
       gradientTransform="matrix(1.0115465,0,0,0.97402594,-225.68252,-82.117879)" />
    <filter
       style="color-interpolation-filters:sRGB"
       inkscape:label="Blur"
       id="filter4868">
      <feGaussianBlur
         stdDeviation="2 2"
         result="fbSourceGraphic"
         id="feGaussianBlur4870" />
      <feColorMatrix
         result="fbSourceGraphicAlpha"
         in="fbSourceGraphic"
         values="0 0 0 -1 0 0 0 0 -1 0 0 0 0 -1 0 0 0 0 1 0"
         id="feColorMatrix4872" />
      <feGaussianBlur
         id="feGaussianBlur4874"
         stdDeviation="2 2"
         result="blur"
         in="fbSourceGraphic" />
    </filter>
    <filter
       style="color-interpolation-filters:sRGB"
       inkscape:label="Blur"
       id="filter4876">
      <feGaussianBlur
         stdDeviation="2 2"
         result="blur"
         id="feGaussianBlur4878" />
    </filter>
    <filter
       inkscape:collect="always"
       style="color-interpolation-filters:sRGB"
       id="filter4904"
       x="-0.0067149354"
       width="1.0134299"
       y="-0.056354187"
       height="1.1127084">
      <feGaussianBlur
         inkscape:collect="always"
         stdDeviation="0.5911963"
         id="feGaussianBlur4906" />
    </filter>
    <filter
       inkscape:collect="always"
       style="color-interpolation-filters:sRGB"
       id="filter4934"
       x="-0.011831527"
       width="1.023663"
       y="-0.012173341"
       height="1.0243467">
      <feGaussianBlur
         inkscape:collect="always"
         stdDeviation="0.72204457"
         id="feGaussianBlur4936" />
    </filter>
    <filter
       inkscape:collect="always"
       style="color-interpolation-filters:sRGB"
       id="filter4950"
       x="-0.01182235"
       width="1.0236447"
       y="-0.012183071"
       height="1.0243661">
      <feGaussianBlur
         inkscape:collect="always"
         stdDeviation="4.0741945"
         id="feGaussianBlur4952" />
    </filter>
    <filter
       inkscape:collect="always"
       style="color-interpolation-filters:sRGB"
       id="filter4966"
       x="-0.011980783"
       width="1.0239615"
       y="-0.012019278"
       height="1.0240386">
      <feGaussianBlur
         inkscape:collect="always"
         stdDeviation="0.84318371"
         id="feGaussianBlur4968" />
    </filter>
    <linearGradient
       inkscape:collect="always"
       xlink:href="#linearGradient4339"
       id="linearGradient5247"
       x1="571.62506"
       y1="224.00905"
       x2="572.11285"
       y2="366.44055"
       gradientUnits="userSpaceOnUse" />
  </defs>
  <sodipodi:namedview
     id="base"
     pagecolor="#ffe135"
     bordercolor="#666666"
     borderopacity="1.0"
     inkscape:pageopacity="0"
     inkscape:pageshadow="2"
     inkscape:zoom="0.87645013"
     inkscape:cx="81.642825"
     inkscape:cy="76.563852"
     inkscape:document-units="px"
     inkscape:current-layer="layer2"
     showgrid="false"
     inkscape:window-width="1920"
     inkscape:window-height="1138"
     inkscape:window-x="-8"
     inkscape:window-y="-8"
     inkscape:window-maximized="1"
     fit-margin-top="0"
     fit-margin-left="0"
     fit-margin-right="0"
     fit-margin-bottom="0"
     showguides="false" />
  <metadata
     id="metadata7">
    <rdf:RDF>
      <cc:Work
         rdf:about="">
        <dc:format>image/svg+xml</dc:format>
        <dc:type
           rdf:resource="http://purl.org/dc/dcmitype/StillImage" />
        <dc:title></dc:title>
      </cc:Work>
    </rdf:RDF>
  </metadata>
  <g
     inkscape:groupmode="layer"
     id="layer2"
     inkscape:label="square"
     style="display:inline"
     transform="translate(-263.61701,22.252805)"
     sodipodi:insensitive="true">
    <g
       id="g4908">
      <rect
         ry="9.8391485"
         y="-0.82423311"
         x="285.87103"
         height="214.28571"
         width="222.54025"
         id="rect4211-8"
         style="display:inline;opacity:1;fill:url(#linearGradient4754);fill-opacity:1;stroke:none;stroke-width:0.5;stroke-linecap:round;stroke-linejoin:round;stroke-miterlimit:4;stroke-dasharray:none;stroke-dashoffset:0;stroke-opacity:1;filter:url(#filter4868)" />
      <rect
         ry="10.101525"
         y="-13.457279"
         x="287.14114"
         height="220"
         width="220"
         id="rect4211"
         style="opacity:1;fill:#7b3f00;fill-opacity:1;stroke:none;stroke-width:0.5;stroke-linecap:round;stroke-linejoin:round;stroke-miterlimit:4;stroke-dasharray:none;stroke-dashoffset:0;stroke-opacity:1" />
      <rect
         ry="7.1428571"
         y="-2.6454809"
         x="307.09579"
         height="180.0907"
         width="180.0907"
         id="rect4211-1"
         style="opacity:1;fill:url(#linearGradient4300);fill-opacity:1;stroke:none;stroke-width:0.40929705;stroke-linecap:round;stroke-linejoin:round;stroke-miterlimit:4;stroke-dasharray:none;stroke-dashoffset:0;stroke-opacity:1" />
      <rect
         ry="6.6778355"
         y="7.7932396"
         x="312.6875"
         height="168.36626"
         width="168.90723"
         id="rect4211-1-4"
         style="opacity:1;fill:url(#linearGradient4406);fill-opacity:1;stroke:none;stroke-width:0.40929705;stroke-linecap:round;stroke-linejoin:round;stroke-miterlimit:4;stroke-dasharray:none;stroke-dashoffset:0;stroke-opacity:1;filter:url(#filter4966)" />
      <path
         inkscape:connector-curvature="0"
         id="rect4211-0-9-6"
         d="m 297.20952,-13.45729 c -1.77277,0 -3.43558,0.45434 -4.88086,1.25 l 15.16601,7.33985 180.23633,0 14.22266,-7.29883 c -1.46144,-0.81976 -3.14586,-1.29102 -4.94727,-1.29102 l -199.79687,0 z"
         style="opacity:1;fill:url(#linearGradient4392-7);fill-opacity:1;stroke:none;stroke-width:0.12288694;stroke-linecap:round;stroke-linejoin:round;stroke-miterlimit:4;stroke-dasharray:none;stroke-dashoffset:0;stroke-opacity:1" />
      <path
         inkscape:connector-curvature="0"
         id="rect4211-0-3"
         d="m 309.28569,181.3647 -17.79492,23.40235 c 1.62646,1.11883 3.59668,1.77539 5.72852,1.77539 l 199.79687,0 c 2.15198,0 4.1402,-0.67034 5.77539,-1.8086 l -16.85156,-23.36914 -176.6543,0 z"
         style="opacity:1;fill:url(#linearGradient4269-9);fill-opacity:1;stroke:none;stroke-width:0.17655411;stroke-linecap:round;stroke-linejoin:round;stroke-miterlimit:4;stroke-dasharray:none;stroke-dashoffset:0;stroke-opacity:1;filter:url(#filter4904)" />
    </g>
  </g>
  <g
     inkscape:groupmode="layer"
     id="layer1"
     inkscape:label="aclister"
     transform="translate(-263.61701,22.252805)"
     style="display:inline"
     sodipodi:insensitive="true">
    <g
       id="g4723"
       transform="translate(-138.57143,-118.57143)">
      <path
         transform="translate(-0.01486574,5.904964)"
         d="m 579.87695,137.46875 a 3.3988341,3.3988341 0 0 0 -0.24218,0.0156 c -0.15153,0.0145 -0.30211,0.0317 -0.45313,0.0508 a 3.3988341,3.3988341 0 0 0 -0.26562,0.043 c -1.74226,0.36169 -2.81706,1.14648 -3.73829,2.43555 -0.67354,0.94245 -0.96283,1.96973 -1.05273,2.31836 -0.0481,0.18631 -0.0784,0.24819 -0.17969,0.62109 -0.005,0.0177 -0.0172,0.10608 -0.0234,0.12305 a 3.3988341,3.3988341 0 0 0 -0.0645,0.18164 c -2.41111,7.98338 -4.74881,15.94162 -7.11523,23.88281 -3.44873,-3.62375 -7.54543,-6.68142 -12.29883,-8.69726 -6.15533,-2.65199 -12.82498,-3.8882 -19.45898,-3.75781 -5.25804,-0.11217 -10.41783,0.56916 -15.37696,1.76953 -5.03589,1.11036 -10.31596,2.87471 -15.03711,6.19922 -9.10366,6.26547 -15.50787,15.35454 -19.7832,24.88086 -2.39181,5.0672 -3.03702,10.1071 -3.94727,14.19922 a 3.3988341,3.3988341 0 0 0 -0.0156,0.084 c -1.4517,7.05261 -2.42199,13.99723 -3.66016,20.69531 -1.96794,8.98051 -4.96727,17.71045 -9.20898,25.71289 a 3.3988341,3.3988341 0 0 0 -0.002,0.002 c -1.13269,2.13922 -2.67104,4.29607 -4.36718,6.49414 a 3.3988341,3.3988341 0 0 0 -0.53906,1.02148 c -0.20892,0.63932 -0.37436,1.29164 -0.4961,1.95313 a 3.3988341,3.3988341 0 0 0 -0.0137,1.14843 c 0.40535,2.54702 2.092,4.00196 3.09375,4.68555 0.39377,0.26871 0.74063,0.47657 0.98828,0.61914 0.24765,0.14258 0.74066,0.51271 0.0703,0.0156 a 3.3988341,3.3988341 0 0 0 0.17188,0.11914 c 0.11498,0.0747 0.23068,0.14721 0.34765,0.21875 a 3.3988341,3.3988341 0 0 0 0.21485,0.12109 c 5.8767,3.03106 11.90725,4.84159 17.44531,6.70703 a 3.3988341,3.3988341 0 0 0 0.0547,0.0176 c 0.0148,0.005 0.0301,0.011 0.0449,0.0156 6.82108,2.14996 13.75467,4.29642 20.88867,6.04688 a 3.3988341,3.3988341 0 0 0 0.0606,0.0137 c 0.0378,0.009 0.0754,0.0171 0.11328,0.0254 a 3.3988341,3.3988341 0 0 0 0.0645,0.0137 c 12.83362,2.54034 26.00632,2.95131 38.91211,1.58985 a 3.3988341,3.3988341 0 0 0 0.0254,-0.002 c 0.0219,-0.002 0.0426,-0.005 0.0645,-0.008 a 3.3988341,3.3988341 0 0 0 0.0469,-0.006 c 6.28173,-0.82619 12.71473,-2.12664 18.94922,-4.50976 a 3.3988341,3.3988341 0 0 0 0.0801,-0.0312 c 0.0404,-0.0166 0.0808,-0.0338 0.12109,-0.0508 a 3.3988341,3.3988341 0 0 0 0.0547,-0.0234 c -0.26443,0.1169 0.2032,-0.0656 0.625,-0.26953 0.4218,-0.20389 0.95326,-0.50892 1.50586,-0.94727 0.4777,-0.37893 1.68973,-1.53557 2.14062,-3.17969 0.6183,-2.25476 0.0824,-3.77754 -1.15234,-5.29296 a 3.3988341,3.3988341 0 0 0 -0.54687,-0.53516 c -0.35773,-0.27874 -0.72799,-0.53979 -1.10938,-0.78516 a 3.3988341,3.3988341 0 0 0 -0.68359,-0.33984 c -2.14168,-0.77276 -3.97802,-0.95436 -3.99805,-0.96094 a 3.3988341,3.3988341 0 0 0 -0.11914,-0.0371 c -0.0688,-0.0198 -0.13798,-0.0397 -0.20703,-0.0586 a 3.3988341,3.3988341 0 0 0 -0.10938,-0.0274 c -4.02268,-0.95465 -7.59828,-2.86831 -9.79297,-5.63085 a 3.3988341,3.3988341 0 0 0 -0.0801,-0.0977 c -0.0442,-0.0516 -0.0879,-0.10333 -0.13282,-0.1543 a 3.3988341,3.3988341 0 0 0 -0.0684,-0.0742 c -1.48347,-1.58778 -2.33482,-3.19913 -2.44531,-4.30078 a 3.3988341,3.3988341 0 0 0 0,-0.006 c -0.31367,-3.08702 -0.16708,-6.1623 0.58008,-8.64648 1.41094,-3.51086 4.8403,-6.65305 8.625,-7.9336 a 3.3988341,3.3988341 0 0 0 0.0371,-0.0137 c 0.0261,-0.009 0.0521,-0.018 0.0781,-0.0273 a 3.3988341,3.3988341 0 0 0 0.0488,-0.0176 c 2.67616,-1.0033 6.27049,-1.04462 10.27149,-0.79492 3.88095,0.47239 7.62482,2.76586 9.11132,5.79101 a 3.3988341,3.3988341 0 0 0 0.0156,0.0293 c 2.04966,4.10653 1.68695,9.67479 0.20508,15.32813 a 3.3988341,3.3988341 0 0 0 -0.0274,0.10742 c -0.0147,0.0646 -0.0291,0.12855 -0.043,0.19336 a 3.3988341,3.3988341 0 0 0 -0.0195,0.10742 c 0.12173,-0.67408 0.1225,-0.44166 0.0215,-0.20117 -0.10101,0.24049 -0.26887,0.641 -0.42188,1.14453 -0.30601,1.00705 -0.53905,2.47398 -0.23828,4.11523 a 3.3988341,3.3988341 0 0 0 0.25781,0.8086 c 0.21034,0.45673 0.44236,0.90249 0.69727,1.33593 a 3.3988341,3.3988341 0 0 0 0.51758,0.67188 c 1.3304,1.33935 2.57035,1.81264 4.39844,1.75391 1.25748,-0.0404 2.36435,-0.54332 2.68359,-0.70313 0.24178,-0.12103 0.38801,-0.18062 0.7207,-0.36133 0.0278,-0.0151 0.11875,-0.0781 0.15235,-0.0957 0.002,-8.5e-4 0.006,-0.003 0.008,-0.004 9.27259,-4.62943 16.46469,-12.79625 20,-22.48437 3.46872,-9.383 3.50479,-19.21236 2.61914,-28.25781 a 3.3988341,3.3988341 0 0 0 -0.006,-0.0859 3.3988341,3.3988341 0 0 0 -0.008,-0.0859 c -0.71106,-6.18281 -1.90244,-12.58448 -4.35156,-18.77148 a 3.3988341,3.3988341 0 0 0 -0.0313,-0.0762 c -0.015,-0.0353 -0.0297,-0.0722 -0.0449,-0.10742 a 3.3988341,3.3988341 0 0 0 -0.0176,-0.0391 c -3.3912,-7.56127 -10.36792,-12.06138 -17.16992,-14.32227 -0.95575,-0.3176 -1.95752,-0.42502 -2.92968,-0.67773 5.8515,-7.41138 11.82363,-14.77558 17.62695,-22.43555 a 3.3988341,3.3988341 0 0 0 0.35937,-0.59375 c 0.17781,-0.37384 0.34184,-0.75342 0.48828,-1.14062 a 3.3988341,3.3988341 0 0 0 0.17774,-0.67774 c 0.27249,-1.74093 -0.0805,-3.08145 -0.96094,-4.41211 -0.67239,-1.01615 -1.55829,-1.67117 -1.98047,-1.95312 -0.366,-0.24445 -0.6782,-0.4408 -0.96093,-0.60352 -0.045,-0.0259 -0.15438,-0.0726 -0.19141,-0.0957 -0.0138,-0.01 -0.0272,-0.0197 -0.041,-0.0293 a 3.3988341,3.3988341 0 0 0 -0.19336,-0.125 c -4.98284,-2.97649 -10.01534,-6.15601 -15.3164,-9.12695 a 3.3988341,3.3988341 0 0 0 -0.18164,-0.0937 c -0.10865,-0.0526 -0.21825,-0.10434 -0.32813,-0.1543 a 3.3988341,3.3988341 0 0 0 -0.18359,-0.0781 c -0.26372,-0.10163 -1.2524,-0.4447 -2.35352,-0.41797 z m 25.97657,104.36914 -0.14844,0.34375 a 3.3988341,3.3988341 0 0 0 0.14844,-0.34375 z"
         inkscape:href="#path4566-2"
         id="path4607-1"
         style="fill:url(#linearGradient4615-0);fill-opacity:1;filter:url(#filter4934)"
         xlink:href="#path4566-2"
         inkscape:original="M 579.95898 140.86719 A 11.679336 11.679336 0 0 0 579.60742 140.90625 C 578.93342 141.04617 578.27899 141.52058 577.94336 141.99023 C 577.60771 142.45988 577.49548 142.87156 577.41602 143.17969 C 577.25705 143.79594 577.09621 144.13942 577.32227 143.77344 A 11.679336 11.679336 0 0 0 577.11133 144.24023 C 574.09352 154.23242 571.18823 164.24648 568.18359 174.20312 C 564.43721 168.74939 559.31172 164.19803 553.11328 161.57031 C 547.39441 159.10384 541.16403 157.94813 534.96484 158.08203 C 530.01512 157.97104 525.11393 158.61249 520.36328 159.76562 C 515.5708 160.8204 510.72731 162.47053 506.51172 165.44336 C 498.04261 171.26692 491.95525 179.84268 487.86719 188.9668 C 485.75008 193.4426 485.11517 198.17048 484.1582 202.47266 A 11.679336 11.679336 0 0 0 484.15234 202.50391 C 482.72384 209.44382 481.75421 216.39325 480.49023 223.2168 C 478.46642 232.46125 475.37067 241.49156 470.95703 249.81836 C 469.67496 252.23969 468.01976 254.54079 466.27734 256.79883 A 11.679336 11.679336 0 0 0 465.89258 258.3125 C 466.08778 259.53904 466.95429 260.32023 467.54688 260.72461 C 468.13946 261.12899 468.61597 261.36368 468.71289 261.43555 A 11.679336 11.679336 0 0 0 468.98242 261.60547 C 474.50054 264.45158 480.34698 266.22296 485.95312 268.11133 A 11.679336 11.679336 0 0 0 485.99023 268.12305 C 492.79972 270.26935 499.6641 272.3928 506.66797 274.11133 A 11.679336 11.679336 0 0 0 506.75586 274.13086 C 519.22332 276.59872 532.05589 277.0044 544.65039 275.67578 A 11.679336 11.679336 0 0 0 544.70117 275.66992 C 550.82173 274.86492 556.99129 273.60675 562.88086 271.35547 A 11.679336 11.679336 0 0 0 562.97461 271.31641 C 563.15585 271.23629 563.71632 271.06277 564.36914 270.54492 C 564.69555 270.286 565.1343 269.89264 565.34375 269.12891 C 565.55318 268.36518 565.25736 267.4005 564.83398 266.88086 A 11.679336 11.679336 0 0 0 563.97461 266.27148 C 562.35777 265.68809 560.96743 265.63644 560.07031 265.3418 A 11.679336 11.679336 0 0 0 559.91016 265.29688 C 555.34781 264.21415 551.05727 262.01612 548.24219 258.47266 A 11.679336 11.679336 0 0 0 548.13867 258.35352 C 546.36674 256.457 545.01888 254.30538 544.79492 252.07227 A 11.679336 11.679336 0 0 0 544.79492 252.07031 C 544.44537 248.63019 544.55969 245.07897 545.5293 241.95312 C 547.33018 237.3229 551.51424 233.54394 556.29102 231.92773 A 11.679336 11.679336 0 0 0 556.35156 231.90625 C 559.89037 230.57953 563.98386 230.63761 568.14062 230.90234 C 573.0498 231.47196 577.84635 234.24679 579.97852 238.58594 A 11.679336 11.679336 0 0 0 579.98438 238.5957 C 582.61803 243.87227 582.01349 250.2829 580.43555 256.30273 A 11.679336 11.679336 0 0 0 580.40234 256.45312 C 580.31724 256.92438 579.38771 258.24336 579.76367 260.29492 A 11.679336 11.679336 0 0 0 580.30469 261.33008 C 580.7715 261.80003 581.57592 262.10149 582.18164 262.08203 C 582.78736 262.06257 583.17492 261.8756 583.45312 261.73633 C 584.00954 261.45779 584.37651 261.29911 583.98242 261.4082 A 11.679336 11.679336 0 0 0 584.33789 261.27344 C 592.80516 257.04607 599.42929 249.52963 602.66406 240.66211 L 602.66602 240.6582 C 605.87973 231.96994 605.95546 222.63934 605.08594 213.82031 A 11.679336 11.679336 0 0 0 605.08398 213.78906 C 604.39199 207.77208 603.24079 201.66789 600.94922 195.87891 A 11.679336 11.679336 0 0 0 600.91406 195.79688 C 598.03885 189.38611 591.94811 185.36096 585.77344 183.30859 C 583.2328 182.46432 580.6075 181.86818 577.94922 181.50195 C 584.8465 172.64628 592.00235 163.93524 598.83398 154.91797 A 11.679336 11.679336 0 0 0 599.21094 154.0332 C 599.32089 153.33072 599.11187 152.53296 598.77344 152.02148 C 598.435 151.51001 598.05163 151.2275 597.74023 151.01953 C 597.11748 150.6036 596.63342 150.33252 596.7793 150.45898 A 11.679336 11.679336 0 0 0 596.49805 150.25781 C 591.46662 147.25229 586.45998 144.09106 581.26172 141.17773 A 11.679336 11.679336 0 0 0 581.00781 141.05859 C 580.80291 140.97963 580.46243 140.85497 579.95898 140.86719 z "
         inkscape:radius="3.3984942"
         sodipodi:type="inkscape:offset" />
      <path
         transform="translate(-0.01486574,1.904964)"
         d="m 579.87695,137.46875 a 3.3988341,3.3988341 0 0 0 -0.24218,0.0156 c -0.15153,0.0145 -0.30211,0.0317 -0.45313,0.0508 a 3.3988341,3.3988341 0 0 0 -0.26562,0.043 c -1.74226,0.36169 -2.81706,1.14648 -3.73829,2.43555 -0.67354,0.94245 -0.96283,1.96973 -1.05273,2.31836 -0.0481,0.18631 -0.0784,0.24819 -0.17969,0.62109 -0.005,0.0177 -0.0172,0.10608 -0.0234,0.12305 a 3.3988341,3.3988341 0 0 0 -0.0645,0.18164 c -2.41111,7.98338 -4.74881,15.94162 -7.11523,23.88281 -3.44873,-3.62375 -7.54543,-6.68142 -12.29883,-8.69726 -6.15533,-2.65199 -12.82498,-3.8882 -19.45898,-3.75781 -5.25804,-0.11217 -10.41783,0.56916 -15.37696,1.76953 -5.03589,1.11036 -10.31596,2.87471 -15.03711,6.19922 -9.10366,6.26547 -15.50787,15.35454 -19.7832,24.88086 -2.39181,5.0672 -3.03702,10.1071 -3.94727,14.19922 a 3.3988341,3.3988341 0 0 0 -0.0156,0.084 c -1.4517,7.05261 -2.42199,13.99723 -3.66016,20.69531 -1.96794,8.98051 -4.96727,17.71045 -9.20898,25.71289 a 3.3988341,3.3988341 0 0 0 -0.002,0.002 c -1.13269,2.13922 -2.67104,4.29607 -4.36718,6.49414 a 3.3988341,3.3988341 0 0 0 -0.53906,1.02148 c -0.20892,0.63932 -0.37436,1.29164 -0.4961,1.95313 a 3.3988341,3.3988341 0 0 0 -0.0137,1.14843 c 0.40535,2.54702 2.092,4.00196 3.09375,4.68555 0.39377,0.26871 0.74063,0.47657 0.98828,0.61914 0.24765,0.14258 0.74066,0.51271 0.0703,0.0156 a 3.3988341,3.3988341 0 0 0 0.17188,0.11914 c 0.11498,0.0747 0.23068,0.14721 0.34765,0.21875 a 3.3988341,3.3988341 0 0 0 0.21485,0.12109 c 5.8767,3.03106 11.90725,4.84159 17.44531,6.70703 a 3.3988341,3.3988341 0 0 0 0.0547,0.0176 c 0.0148,0.005 0.0301,0.011 0.0449,0.0156 6.82108,2.14996 13.75467,4.29642 20.88867,6.04688 a 3.3988341,3.3988341 0 0 0 0.0606,0.0137 c 0.0378,0.009 0.0754,0.0171 0.11328,0.0254 a 3.3988341,3.3988341 0 0 0 0.0645,0.0137 c 12.83362,2.54034 26.00632,2.95131 38.91211,1.58985 a 3.3988341,3.3988341 0 0 0 0.0254,-0.002 c 0.0219,-0.002 0.0426,-0.005 0.0645,-0.008 a 3.3988341,3.3988341 0 0 0 0.0469,-0.006 c 6.28173,-0.82619 12.71473,-2.12664 18.94922,-4.50976 a 3.3988341,3.3988341 0 0 0 0.0801,-0.0312 c 0.0404,-0.0166 0.0808,-0.0338 0.12109,-0.0508 a 3.3988341,3.3988341 0 0 0 0.0547,-0.0234 c -0.26443,0.1169 0.2032,-0.0656 0.625,-0.26953 0.4218,-0.20389 0.95326,-0.50892 1.50586,-0.94727 0.4777,-0.37893 1.68973,-1.53557 2.14062,-3.17969 0.6183,-2.25476 0.0824,-3.77754 -1.15234,-5.29296 a 3.3988341,3.3988341 0 0 0 -0.54687,-0.53516 c -0.35773,-0.27874 -0.72799,-0.53979 -1.10938,-0.78516 a 3.3988341,3.3988341 0 0 0 -0.68359,-0.33984 c -2.14168,-0.77276 -3.97802,-0.95436 -3.99805,-0.96094 a 3.3988341,3.3988341 0 0 0 -0.11914,-0.0371 c -0.0688,-0.0198 -0.13798,-0.0397 -0.20703,-0.0586 a 3.3988341,3.3988341 0 0 0 -0.10938,-0.0274 c -4.02268,-0.95465 -7.59828,-2.86831 -9.79297,-5.63085 a 3.3988341,3.3988341 0 0 0 -0.0801,-0.0977 c -0.0442,-0.0516 -0.0879,-0.10333 -0.13282,-0.1543 a 3.3988341,3.3988341 0 0 0 -0.0684,-0.0742 c -1.48347,-1.58778 -2.33482,-3.19913 -2.44531,-4.30078 a 3.3988341,3.3988341 0 0 0 0,-0.006 c -0.31367,-3.08702 -0.16708,-6.1623 0.58008,-8.64648 1.41094,-3.51086 4.8403,-6.65305 8.625,-7.9336 a 3.3988341,3.3988341 0 0 0 0.0371,-0.0137 c 0.0261,-0.009 0.0521,-0.018 0.0781,-0.0273 a 3.3988341,3.3988341 0 0 0 0.0488,-0.0176 c 2.67616,-1.0033 6.27049,-1.04462 10.27149,-0.79492 3.88095,0.47239 7.62482,2.76586 9.11132,5.79101 a 3.3988341,3.3988341 0 0 0 0.0156,0.0293 c 2.04966,4.10653 1.68695,9.67479 0.20508,15.32813 a 3.3988341,3.3988341 0 0 0 -0.0274,0.10742 c -0.0147,0.0646 -0.0291,0.12855 -0.043,0.19336 a 3.3988341,3.3988341 0 0 0 -0.0195,0.10742 c 0.12173,-0.67408 0.1225,-0.44166 0.0215,-0.20117 -0.10101,0.24049 -0.26887,0.641 -0.42188,1.14453 -0.30601,1.00705 -0.53905,2.47398 -0.23828,4.11523 a 3.3988341,3.3988341 0 0 0 0.25781,0.8086 c 0.21034,0.45673 0.44236,0.90249 0.69727,1.33593 a 3.3988341,3.3988341 0 0 0 0.51758,0.67188 c 1.3304,1.33935 2.57035,1.81264 4.39844,1.75391 1.25748,-0.0404 2.36435,-0.54332 2.68359,-0.70313 0.24178,-0.12103 0.38801,-0.18062 0.7207,-0.36133 0.0278,-0.0151 0.11875,-0.0781 0.15235,-0.0957 0.002,-8.5e-4 0.006,-0.003 0.008,-0.004 9.27259,-4.62943 16.46469,-12.79625 20,-22.48437 3.46872,-9.383 3.50479,-19.21236 2.61914,-28.25781 a 3.3988341,3.3988341 0 0 0 -0.006,-0.0859 3.3988341,3.3988341 0 0 0 -0.008,-0.0859 c -0.71106,-6.18281 -1.90244,-12.58448 -4.35156,-18.77148 a 3.3988341,3.3988341 0 0 0 -0.0313,-0.0762 c -0.015,-0.0353 -0.0297,-0.0722 -0.0449,-0.10742 a 3.3988341,3.3988341 0 0 0 -0.0176,-0.0391 c -3.3912,-7.56127 -10.36792,-12.06138 -17.16992,-14.32227 -0.95575,-0.3176 -1.95752,-0.42502 -2.92968,-0.67773 5.8515,-7.41138 11.82363,-14.77558 17.62695,-22.43555 a 3.3988341,3.3988341 0 0 0 0.35937,-0.59375 c 0.17781,-0.37384 0.34184,-0.75342 0.48828,-1.14062 a 3.3988341,3.3988341 0 0 0 0.17774,-0.67774 c 0.27249,-1.74093 -0.0805,-3.08145 -0.96094,-4.41211 -0.67239,-1.01615 -1.55829,-1.67117 -1.98047,-1.95312 -0.366,-0.24445 -0.6782,-0.4408 -0.96093,-0.60352 -0.045,-0.0259 -0.15438,-0.0726 -0.19141,-0.0957 -0.0138,-0.01 -0.0272,-0.0197 -0.041,-0.0293 a 3.3988341,3.3988341 0 0 0 -0.19336,-0.125 c -4.98284,-2.97649 -10.01534,-6.15601 -15.3164,-9.12695 a 3.3988341,3.3988341 0 0 0 -0.18164,-0.0937 c -0.10865,-0.0526 -0.21825,-0.10434 -0.32813,-0.1543 a 3.3988341,3.3988341 0 0 0 -0.18359,-0.0781 c -0.26372,-0.10163 -1.2524,-0.4447 -2.35352,-0.41797 z m 25.97657,104.36914 -0.14844,0.34375 a 3.3988341,3.3988341 0 0 0 0.14844,-0.34375 z"
         inkscape:href="#path4566-2"
         id="path4607"
         style="fill:url(#linearGradient4615);fill-opacity:1"
         xlink:href="#path4566-2"
         inkscape:original="M 579.95898 140.86719 A 11.679336 11.679336 0 0 0 579.60742 140.90625 C 578.93342 141.04617 578.27899 141.52058 577.94336 141.99023 C 577.60771 142.45988 577.49548 142.87156 577.41602 143.17969 C 577.25705 143.79594 577.09621 144.13942 577.32227 143.77344 A 11.679336 11.679336 0 0 0 577.11133 144.24023 C 574.09352 154.23242 571.18823 164.24648 568.18359 174.20312 C 564.43721 168.74939 559.31172 164.19803 553.11328 161.57031 C 547.39441 159.10384 541.16403 157.94813 534.96484 158.08203 C 530.01512 157.97104 525.11393 158.61249 520.36328 159.76562 C 515.5708 160.8204 510.72731 162.47053 506.51172 165.44336 C 498.04261 171.26692 491.95525 179.84268 487.86719 188.9668 C 485.75008 193.4426 485.11517 198.17048 484.1582 202.47266 A 11.679336 11.679336 0 0 0 484.15234 202.50391 C 482.72384 209.44382 481.75421 216.39325 480.49023 223.2168 C 478.46642 232.46125 475.37067 241.49156 470.95703 249.81836 C 469.67496 252.23969 468.01976 254.54079 466.27734 256.79883 A 11.679336 11.679336 0 0 0 465.89258 258.3125 C 466.08778 259.53904 466.95429 260.32023 467.54688 260.72461 C 468.13946 261.12899 468.61597 261.36368 468.71289 261.43555 A 11.679336 11.679336 0 0 0 468.98242 261.60547 C 474.50054 264.45158 480.34698 266.22296 485.95312 268.11133 A 11.679336 11.679336 0 0 0 485.99023 268.12305 C 492.79972 270.26935 499.6641 272.3928 506.66797 274.11133 A 11.679336 11.679336 0 0 0 506.75586 274.13086 C 519.22332 276.59872 532.05589 277.0044 544.65039 275.67578 A 11.679336 11.679336 0 0 0 544.70117 275.66992 C 550.82173 274.86492 556.99129 273.60675 562.88086 271.35547 A 11.679336 11.679336 0 0 0 562.97461 271.31641 C 563.15585 271.23629 563.71632 271.06277 564.36914 270.54492 C 564.69555 270.286 565.1343 269.89264 565.34375 269.12891 C 565.55318 268.36518 565.25736 267.4005 564.83398 266.88086 A 11.679336 11.679336 0 0 0 563.97461 266.27148 C 562.35777 265.68809 560.96743 265.63644 560.07031 265.3418 A 11.679336 11.679336 0 0 0 559.91016 265.29688 C 555.34781 264.21415 551.05727 262.01612 548.24219 258.47266 A 11.679336 11.679336 0 0 0 548.13867 258.35352 C 546.36674 256.457 545.01888 254.30538 544.79492 252.07227 A 11.679336 11.679336 0 0 0 544.79492 252.07031 C 544.44537 248.63019 544.55969 245.07897 545.5293 241.95312 C 547.33018 237.3229 551.51424 233.54394 556.29102 231.92773 A 11.679336 11.679336 0 0 0 556.35156 231.90625 C 559.89037 230.57953 563.98386 230.63761 568.14062 230.90234 C 573.0498 231.47196 577.84635 234.24679 579.97852 238.58594 A 11.679336 11.679336 0 0 0 579.98438 238.5957 C 582.61803 243.87227 582.01349 250.2829 580.43555 256.30273 A 11.679336 11.679336 0 0 0 580.40234 256.45312 C 580.31724 256.92438 579.38771 258.24336 579.76367 260.29492 A 11.679336 11.679336 0 0 0 580.30469 261.33008 C 580.7715 261.80003 581.57592 262.10149 582.18164 262.08203 C 582.78736 262.06257 583.17492 261.8756 583.45312 261.73633 C 584.00954 261.45779 584.37651 261.29911 583.98242 261.4082 A 11.679336 11.679336 0 0 0 584.33789 261.27344 C 592.80516 257.04607 599.42929 249.52963 602.66406 240.66211 L 602.66602 240.6582 C 605.87973 231.96994 605.95546 222.63934 605.08594 213.82031 A 11.679336 11.679336 0 0 0 605.08398 213.78906 C 604.39199 207.77208 603.24079 201.66789 600.94922 195.87891 A 11.679336 11.679336 0 0 0 600.91406 195.79688 C 598.03885 189.38611 591.94811 185.36096 585.77344 183.30859 C 583.2328 182.46432 580.6075 181.86818 577.94922 181.50195 C 584.8465 172.64628 592.00235 163.93524 598.83398 154.91797 A 11.679336 11.679336 0 0 0 599.21094 154.0332 C 599.32089 153.33072 599.11187 152.53296 598.77344 152.02148 C 598.435 151.51001 598.05163 151.2275 597.74023 151.01953 C 597.11748 150.6036 596.63342 150.33252 596.7793 150.45898 A 11.679336 11.679336 0 0 0 596.49805 150.25781 C 591.46662 147.25229 586.45998 144.09106 581.26172 141.17773 A 11.679336 11.679336 0 0 0 581.00781 141.05859 C 580.80291 140.97963 580.46243 140.85497 579.95898 140.86719 z "
         inkscape:radius="3.3984942"
         sodipodi:type="inkscape:offset" />
      <path
         transform="matrix(0.16889748,0,0,0.16889748,378.24835,105.4981)"
         d="m 1194.2832,209.40625 a 11.679336,11.679336 0 0 0 -2.0898,0.24023 c -3.9906,0.82846 -7.8585,3.63729 -9.8457,6.41797 -1.9873,2.78068 -2.6584,5.21082 -3.1289,7.03516 -0.9412,3.64868 -1.8912,5.68641 -0.5528,3.51953 a 11.679336,11.679336 0 0 0 -1.2441,2.75977 c -17.8677,59.16127 -35.0775,118.46128 -52.8672,177.41211 -22.1814,-32.2902 -52.5272,-59.24665 -89.2266,-74.80469 -33.86,-14.60335 -70.74339,-21.43731 -107.44724,-20.64453 -29.30606,-0.65714 -58.33158,3.13937 -86.45898,9.96679 -28.37509,6.24505 -57.04248,16.00802 -82.00196,33.60938 -50.14347,34.47984 -86.18816,85.2557 -110.39258,139.27734 -12.53484,26.50013 -16.293,54.4986 -21.95898,79.97071 a 11.679336,11.679336 0 0 0 -0.0371,0.18164 c -8.45782,41.08949 -14.20186,82.24012 -21.68555,122.64062 -11.9825,54.73413 -30.30933,108.1913 -56.4414,157.49219 a 11.679336,11.679336 0 0 0 -0.002,0.004 c -7.59083,14.33608 -17.38281,27.95494 -27.69922,41.32421 a 11.679336,11.679336 0 0 0 -2.2871,8.97071 c 1.15575,7.26204 6.2864,11.88115 9.79492,14.27539 3.50852,2.39424 6.33044,3.78933 6.90429,4.21484 a 11.679336,11.679336 0 0 0 1.60157,0.99805 c 32.67141,16.85109 67.28594,27.34286 100.47851,38.52344 a 11.679336,11.679336 0 0 0 0.21875,0.0723 c 40.31729,12.7077 80.96151,25.2762 122.42969,35.45117 a 11.679336,11.679336 0 0 0 0.51563,0.11328 c 73.81673,14.61157 149.79436,17.02067 224.36328,9.15427 a 11.679336,11.679336 0 0 0 0.29882,-0.035 c 36.23832,-4.7662 72.76992,-12.22153 107.64062,-25.55081 a 11.679336,11.679336 0 0 0 0.5508,-0.22656 c 1.0731,-0.47437 4.3965,-1.50035 8.2617,-4.56641 1.9326,-1.53302 4.5275,-3.859 5.7676,-8.38085 1.24,-4.52186 -0.505,-10.24168 -3.0117,-13.31836 a 11.679336,11.679336 0 0 0 -5.0899,-3.60743 c -9.5729,-3.45413 -17.8095,-3.75159 -23.1211,-5.49609 a 11.679336,11.679336 0 0 0 -0.9472,-0.26758 c -27.0125,-6.41052 -52.4127,-19.42629 -69.0801,-40.40625 a 11.679336,11.679336 0 0 0 -0.6113,-0.70898 C 995.38971,893.78876 987.41,881.04788 986.08398,867.82617 a 11.679336,11.679336 0 0 0 0,-0.0137 c -2.06963,-20.36812 -1.39313,-41.3911 4.34766,-59.89844 10.66256,-27.41443 35.42886,-49.79215 63.71096,-59.36133 a 11.679336,11.679336 0 0 0 0.3574,-0.12695 c 20.9524,-7.85519 45.1974,-7.50299 69.8086,-5.93555 29.066,3.37255 57.4658,19.79334 70.0898,45.48438 a 11.679336,11.679336 0 0 0 0.031,0.0644 c 15.5932,31.24122 12.0125,69.1979 2.6699,104.83985 a 11.679336,11.679336 0 0 0 -0.1953,0.88476 c -0.5039,2.79019 -6.0073,10.60319 -3.7813,22.75 a 11.679336,11.679336 0 0 0 3.2012,6.125 c 2.7639,2.78245 7.527,4.56833 11.1133,4.45313 3.5863,-0.1152 5.886,-1.22034 7.5332,-2.04492 3.2944,-1.64918 5.4622,-2.58343 3.1289,-1.9375 a 11.679336,11.679336 0 0 0 2.1016,-0.80665 c 50.1326,-25.02922 89.3574,-69.5308 108.5097,-122.0332 l 0.01,-0.0176 c 19.0276,-51.44102 19.4861,-106.68314 14.3379,-158.89843 a 11.679336,11.679336 0 0 0 -0.019,-0.1875 c -4.0971,-35.62507 -10.9108,-71.76981 -24.4786,-106.04493 a 11.679336,11.679336 0 0 0 -0.2031,-0.48047 c -17.0234,-37.95654 -53.0878,-61.79571 -89.6465,-73.94726 -15.0425,-4.99876 -30.593,-8.52896 -46.332,-10.69727 40.8371,-52.43223 83.2098,-103.99964 123.6582,-157.38867 a 11.679336,11.679336 0 0 0 2.2285,-5.24609 c 0.651,-4.15922 -0.5841,-8.87791 -2.5879,-11.90625 -2.0038,-3.02834 -4.2735,-4.70032 -6.1172,-5.93164 -3.6872,-2.46264 -6.5531,-4.06517 -5.6894,-3.31641 a 11.679336,11.679336 0 0 0 -1.6621,-1.20117 c -29.7898,-17.79498 -59.4334,-36.50094 -90.211,-53.75 a 11.679336,11.679336 0 0 0 -1.5097,-0.70898 c -1.2132,-0.4675 -3.2204,-1.21299 -6.2012,-1.14063 z"
         id="path4566-2"
         style="fill:#f3e5ab;fill-opacity:1;filter:url(#filter4950)"
         xlink:href="#path4557"
         inkscape:original="M 1194.5664 221.08008 C 1189.6292 222.10507 1190.7194 229.32717 1188.6016 232.75586 C 1168.2553 300.12408 1148.8538 367.87605 1128.2734 435.10156 C 1106.9391 394.85568 1073.0031 360.63568 1030.7559 342.73047 C 998.36822 328.75289 962.94767 322.19512 927.70703 323.01562 C 899.50918 322.37437 871.41728 326.03199 844.04688 332.68555 C 816.50091 338.73875 789.2967 348.11792 766.08203 364.50781 C 718.1456 397.45402 683.18188 446.47033 659.625 499.0918 C 648.06105 523.49068 644.28051 550.57368 638.46875 576.70117 C 630.09952 617.36028 624.36016 658.49697 616.79688 699.29688 C 604.62311 754.97442 585.96222 809.50224 559.22266 859.94922 C 551.12524 875.24204 540.91936 889.37486 530.44922 902.94336 C 531.36018 908.66726 538.41853 910.81013 542.57031 913.88867 C 573.99427 930.09636 608.01611 940.47156 641.42383 951.72461 C 681.69959 964.41922 722.10624 976.90748 763.12695 986.97266 C 835.68546 1001.3352 910.50005 1003.7221 983.99805 995.96875 C 1019.6778 991.27599 1055.3097 983.96299 1088.9922 971.08789 C 1091.9552 969.77811 1099.0669 967.04067 1095.6777 962.88086 C 1088.4324 960.2666 1080.2921 959.9321 1072.875 957.49609 C 1044.0216 950.64869 1016.1204 936.6203 997.34766 912.99023 C 985.91025 900.74862 976.16554 885.94988 974.46484 868.99219 C 972.27491 847.44016 972.87698 824.73253 979.40625 803.99414 C 991.40755 772.81516 1018.8035 748.18097 1050.4004 737.49023 C 1074.272 728.54062 1100.3935 729.24624 1125.4355 730.85352 C 1157.9756 734.56293 1190.0948 752.73737 1204.8789 782.82422 C 1222.437 818.00213 1218.0579 858.98147 1208.3965 895.83984 C 1207.2968 901.92919 1203.4641 908.1587 1204.6094 914.4082 C 1207.6397 917.45888 1211.8096 912.73239 1214.9844 911.85352 C 1262.3454 888.20807 1299.6491 845.8983 1317.7578 796.2168 C 1335.8623 747.28294 1336.4954 693.83901 1331.4336 642.5 C 1327.4027 607.45024 1320.7211 572.32086 1307.6973 539.41992 C 1292.4785 505.48703 1259.3968 483.20058 1225.0234 471.77539 C 1204.0902 464.81912 1182.1569 460.62019 1160.1289 459.50977 C 1205.0453 401.04546 1252.2096 344.31138 1296.7246 285.55469 C 1297.6231 279.81388 1289.5833 277.94989 1286.2168 275.03125 C 1256.2642 257.13901 1226.7093 238.49431 1196.2852 221.44336 C 1195.7389 221.23284 1195.1559 221.06577 1194.5664 221.08008 z "
         inkscape:radius="11.678168"
         sodipodi:type="inkscape:offset"
         inkscape:href="#path4557" />
    </g>
  </g>
</svg>
