<?xml version="1.0" encoding="UTF-8" standalone="no"?>
<svg xmlns:rdf="http://www.w3.org/1999/02/22-rdf-syntax-ns#" xmlns="http://www.w3.org/2000/svg" height="72.571mm" width="75.367mm" version="1.1" xmlns:cc="http://creativecommons.org/ns#" xmlns:xlink="http://www.w3.org/1999/xlink" viewBox="0 0 267.04831 257.14285" xmlns:dc="http://purl.org/dc/elements/1.1/">
<defs>
<linearGradient id="a">
<stop stop-color="#f3e5ab" offset="0"/>
<stop stop-color="#917816" offset="1"/>
</linearGradient>
<linearGradient id="b">
<stop stop-color="#5b2f00" offset="0"/>
<stop stop-color="#7b3f00" offset="1"/>
</linearGradient>
<linearGradient id="j" y2="354.89" xlink:href="#b" gradientUnits="userSpaceOnUse" x2="373.45" gradientTransform="translate(25.072 -112.49)" y1="-1.2477" x1="373.45"/>
<linearGradient id="d" y2="235.96" xlink:href="#b" gradientUnits="userSpaceOnUse" x2="377.07" gradientTransform="matrix(.97664 0 0 .99404 33.765 -112.76)" y1="359.58" x1="377.07"/>
<linearGradient id="g" y2="97.746" gradientUnits="userSpaceOnUse" x2="370.78" gradientTransform="matrix(1 0 0 .92323 25.039 -104.85)" y1="110.6" x1="370.78">
<stop stop-color="#7b3f00" offset="0"/>
<stop stop-color="#a15200" offset="1"/>
</linearGradient>
<linearGradient id="k" y2="292.42" xlink:href="#b" gradientUnits="userSpaceOnUse" x2="371.03" gradientTransform="matrix(.98036 0 0 .92157 32.356 -85.773)" y1="309.59" x1="371.03"/>
<linearGradient id="c" y2="307.59" gradientUnits="userSpaceOnUse" x2="619.84" gradientTransform="matrix(1.0115 0 0 .97403 -225.68 -82.118)" y1="291.09" x1="619.84">
<stop stop-color="#dbba00" offset="0"/>
<stop stop-color="#d4b400" stop-opacity="0" offset="1"/>
</linearGradient>
<filter id="n" style="color-interpolation-filters:sRGB">
<feGaussianBlur stdDeviation="2 2" result="fbSourceGraphic"/>
<feColorMatrix values="0 0 0 -1 0 0 0 0 -1 0 0 0 0 -1 0 0 0 0 1 0" result="fbSourceGraphicAlpha" in="fbSourceGraphic"/>
<feGaussianBlur in="fbSourceGraphic" stdDeviation="2 2" result="blur"/>
</filter>
<filter id="m" style="color-interpolation-filters:sRGB" height="1.1127" width="1.0134" y="-.056354" x="-.0067149">
<feGaussianBlur stdDeviation="0.5911963"/>
</filter>
<filter id="l" style="color-interpolation-filters:sRGB" height="1.024" width="1.024" y="-.012019" x="-.011981">
<feGaussianBlur stdDeviation="0.84318371"/>
</filter>
<linearGradient id="i" y2="406.46" xlink:href="#a" gradientUnits="userSpaceOnUse" x2="134.59" gradientTransform="matrix(1.072 0 0 1.072 -9.6101 -8.73)" y1="64.821" x1="134.59"/>
<linearGradient id="h" y2="380.91" gradientUnits="userSpaceOnUse" x2="134.59" gradientTransform="matrix(1.072 0 0 1.072 -9.6101 -4.6649)" y1="97.284" x1="134.59">
<stop stop-color="#582d00" offset="0"/>
<stop stop-color="#7b3f00" stop-opacity="0" offset="1"/>
</linearGradient>
<filter id="r" style="color-interpolation-filters:sRGB" height="1.024" width="1.024" y="-.012018" x="-.011982">
<feGaussianBlur stdDeviation="0.7658461"/>
</filter>
<filter id="q" style="color-interpolation-filters:sRGB" height="1.024" width="1.024" y="-.012018" x="-.011982">
<feGaussianBlur stdDeviation="0.73557476"/>
</filter>
<linearGradient id="f" y2="26.953" xlink:href="#a" gradientUnits="userSpaceOnUse" x2="246.69" gradientTransform="matrix(1.0624 0 0 1.0624 -120.13 -8.5599)" y1="135.92" x1="246.69"/>
<linearGradient id="e" y2="113.67" xlink:href="#a" gradientUnits="userSpaceOnUse" x2="260.47" gradientTransform="matrix(1.0624 0 0 1.0624 -120.13 -13.534)" y1="200.38" x1="260.47"/>
<filter id="p" style="color-interpolation-filters:sRGB" height="1.0198" width="1.0306" y="-.0098759" x="-.015288">
<feGaussianBlur stdDeviation="0.13495382"/>
</filter>
<filter id="o" style="color-interpolation-filters:sRGB" height="1.0198" width="1.0305" y="-.0099005" x="-.015230">
<feGaussianBlur stdDeviation="0.13633307"/>
</filter>
</defs>
<g transform="translate(-263.62 22.253)">
<g transform="translate(0,10)">
<rect ry="9.8391" height="214.29" filter="url(#n)" width="222.54" y="-.82423" x="285.87" fill="url(#c)"/>
<rect ry="10.102" height="220" width="220" y="-13.457" x="287.14" fill="#7b3f00"/>
<rect ry="7.1429" height="180.09" width="180.09" y="-2.6455" x="307.1" fill="url(#j)"/>
<rect ry="6.6778" height="168.37" filter="url(#l)" width="168.91" y="7.7932" x="312.69" fill="url(#d)"/>
<path d="m297.21-13.457c-1.7728 0-3.4356 0.45434-4.8809 1.25l15.166 7.3398h180.24l14.223-7.2988c-1.4614-0.81976-3.1459-1.291-4.9473-1.291h-199.8z" fill="url(#g)"/>
<path d="m309.29 181.36-17.795 23.402c1.6265 1.1188 3.5967 1.7754 5.7285 1.7754h199.8c2.152 0 4.1402-0.67034 5.7754-1.8086l-16.852-23.369h-176.65z" filter="url(#m)" fill="url(#k)"/>
</g>
</g>
<g>
<path d="m132.55 48.904c-0.87022-0.0269-1.7438-0.0164-2.6171 0.023-2.7822-0.0385-5.5966 0.0848-8.4125 0.45852-32.338 4.1323-59.868 31.27-63.952 63.726-3.7672 25.494 6.9634 52.143 27.132 68.108 0.004 0.003 0.007 0.005 0.0105 0.009 1.0449 0.8843 3.7435 3.2561 6.0424 4.7694 0.58197 0.38309 1.125 0.71845 1.8069 1.0008 0.34096 0.14117 0.71242 0.2837 1.2918 0.34756 0.57941 0.0639 1.5652 0.0483 2.502-0.68463 0.93678-0.73294 1.26-1.9197 1.273-2.6129 0.013-0.69324-0.12267-1.1367-0.2638-1.5577-0.28227-0.8421-0.68266-1.5904-1.2646-2.5627l0.0817 0.14864c-7.1629-13.661-5.5725-31.561 4.2774-43.442a3.0273 3.0273 0 0 0 0.0503 -0.0607c7.3878-9.3968 19.305-14.753 31.309-15.001l-0.0294 0.002c11.752-0.13262 23.175-5.9569 29.747-15.87 7.0689-10.252 8.0028-23.967 3.2243-35.229a3.0273 3.0273 0 0 0 -0.0167 -0.0398c-5.5856-12.656-18.467-21.107-32.193-21.532zm40.637 14.476c-0.72469-0.0799-2.2569 0.14481-3.1238 1.3274-0.86693 1.1826-0.69304 2.224-0.56948 2.8495 0.24712 1.2511 0.72151 2.0259 1.4488 3.241l-0.0817-0.14866c7.1629 13.661 5.5725 31.561-4.2774 43.442a3.0273 3.0273 0 0 0 -0.0503 0.0607c-7.3875 9.3964-19.307 14.751-31.311 14.999l0.0293-0.002c-11.752 0.13261-23.175 5.9569-29.747 15.87-7.069 10.253-8.0005 23.967-3.2222 35.229a3.0273 3.0273 0 0 0 0.0167 0.0398c5.9478 13.476 20.171 22.198 34.873 21.506 2.7634 0.0358 5.5563-0.0857 8.3497-0.45643h0.004c32.336-4.1341 59.864-31.272 63.948-63.726 3.7679-25.499-6.9672-52.151-27.143-68.114-0.7173-0.60662-2.241-1.9234-3.8315-3.1615-0.8107-0.63108-1.6298-1.2398-2.4287-1.7503-0.79891-0.51054-1.2895-1.0303-2.883-1.206z" filter="url(#r)" fill="url(#h)"/>
<path fill="url(#i)" d="m132.55 44.839c-0.87022-0.02695-1.7438-0.01643-2.6171 0.02303-2.7822-0.03854-5.5966 0.08484-8.4125 0.45852-32.338 4.1323-59.868 31.27-63.952 63.726-3.7672 25.494 6.9634 52.143 27.132 68.108 0.0035 0.003 0.007 0.005 0.0105 0.009 1.0449 0.8843 3.7435 3.2561 6.0424 4.7694 0.58196 0.38309 1.1249 0.71845 1.8069 1.0008 0.34096 0.14117 0.71241 0.2837 1.2918 0.34756 0.5794 0.0639 1.5652 0.0483 2.502-0.68463 0.93678-0.73294 1.26-1.9197 1.273-2.6129 0.01297-0.69324-0.12267-1.1367-0.26381-1.5577-0.28227-0.8421-0.68265-1.5904-1.2646-2.5627l0.08165 0.14864c-7.1629-13.661-5.5725-31.561 4.2774-43.442a3.0273 3.0273 0 0 0 0.0503 -0.0607c7.3878-9.3968 19.305-14.753 31.309-15.001l-0.0294 0.002c11.752-0.13262 23.175-5.9569 29.747-15.87 7.0689-10.252 8.0028-23.967 3.2243-35.229a3.0273 3.0273 0 0 0 -0.0167 -0.03978c-5.58-12.676-18.46-21.127-32.19-21.552zm40.637 14.476c-0.72469-0.07989-2.2569 0.14482-3.1238 1.3274-0.86693 1.1826-0.69304 2.224-0.56948 2.8495 0.24712 1.2511 0.72151 2.0259 1.4488 3.241l-0.0817-0.14865c7.1629 13.661 5.5725 31.561-4.2774 43.442a3.0273 3.0273 0 0 0 -0.0503 0.0607c-7.3875 9.3964-19.307 14.751-31.311 14.999l0.0293-0.002c-11.752 0.13261-23.175 5.9569-29.747 15.87-7.069 10.253-8.0005 23.967-3.2222 35.229a3.0273 3.0273 0 0 0 0.0167 0.0398c5.9478 13.476 20.171 22.198 34.873 21.506 2.7634 0.0358 5.5563-0.0857 8.3497-0.45643h0.004c32.336-4.1341 59.864-31.272 63.948-63.726 3.7679-25.499-6.9672-52.151-27.143-68.114-0.7173-0.60663-2.241-1.9234-3.8315-3.1615-0.8107-0.63108-1.6298-1.2398-2.4287-1.7503-0.79891-0.51054-1.2895-1.0303-2.883-1.206z"/>
<path d="m132.46 45.721c-0.83512-0.02587-1.6736-0.01826-2.5124 0.02303-2.6818-0.03918-5.3694 0.08017-8.0293 0.4334-30.906 3.9445-57.474 30.152-61.35 61.155-3.6065 24.37 6.7276 50.044 26.025 65.313 2.1375 1.8042 11.1 9.626 6.9113 2.6276-7.7455-14.772-6.0613-33.886 4.6271-46.779 8.0138-10.193 20.77-15.889 33.627-16.155 10.777-0.12162 21.307-5.5137 27.279-14.543 6.42-9.2984 7.3125-22.04 2.9396-32.346-5.09-11.52-16.99-19.339-29.52-19.727zm40.4 14.459c-0.65006-0.07166-0.62436 0.66879 0.68463 2.8558 7.7455 14.772 6.0614 33.886-4.6271 46.779-8.0138 10.193-20.772 15.887-33.629 16.153-10.777 0.12161-21.307 5.5137-27.279 14.543-6.42 9.2984-7.3104 22.04-2.9375 32.346 5.4243 12.29 18.608 20.369 32.029 19.708 2.6818 0.0392 5.3694-0.0822 8.0293-0.43549 30.906-3.9445 57.474-30.152 61.35-61.155 3.6065-24.37-6.7276-50.042-26.025-65.311-1.4695-1.2404-6.1658-5.3257-7.5959-5.4834z" filter="url(#q)" fill="#f3e5ab"/>
<path opacity=".6" d="m125.76 63.334c-0.68057-0.0082-1.3614 0.31968-1.8945 0.79688-0.53317 0.47719-0.93359 1.1199-0.93359 1.8184v13.623c0 6.6569 0.003 10.066 0.0918 11.945 0.0444 0.93985 0.10774 1.4989 0.21484 1.9082 0.1071 0.40935 0.27388 0.66655 0.44727 0.90039 0.44034 0.5938 1.2526 1.1893 1.9609 1.4434 0.48255 0.17302 1.2899 0.25261 2.6191 0.30664 1.3293 0.05403 3.1576 0.06622 5.5684 0.04102 3.2267-0.03372 4.9798-0.06208 6.0645-0.16602 1.0847-0.10393 1.5555-0.31867 2.0098-0.65234 0.51411-0.37753 0.94183-0.69955 1.2695-1.1953 0.3277-0.49576 0.53312-1.136 0.66797-2.1172 0.26971-1.9623 0.27214-5.3491 0.27149-12.035-0.00033-3.5163-0.0338-6.6781-0.0918-9.0488-0.029-1.1854-0.0638-2.1731-0.10351-2.9102-0.0397-0.73708-0.0662-1.1762-0.14258-1.4512-0.20361-0.73338-0.72941-1.619-1.2676-2.125-0.42321-0.3979-0.80622-0.6787-1.9356-0.79492-1.1293-0.11623-3.0866-0.14053-6.9785-0.18945l-7.8379-0.09766zm1.9473 4.9707h5.7363 5.7363v11.482 11.48h-5.7363-5.7363v-11.48-11.482z" transform="translate(0,-2)" filter="url(#p)" fill="url(#f)"/>
<path opacity=".6" d="m130.36 142.72c-3.0624 0-4.7214 0.0129-5.8125 0.35937-0.54556 0.17323-0.98827 0.49624-1.2148 0.93945-0.22658 0.44322-0.25 0.90951-0.25 1.4238 0 0.43651 0.0165 0.82407 0.17188 1.2051 0.15535 0.38102 0.49423 0.70638 0.90039 0.87695 0.81231 0.34114 1.9018 0.3418 3.8652 0.3418h2.9414v11.377 11.379h-2.8438c-1.5101 0-2.4019 0.0158-3.0606 0.12109-0.65867 0.10529-1.1278 0.37193-1.4688 0.71289-0.46091 0.4609-0.76916 1.0004-0.80273 1.5957-0.0336 0.59532 0.19937 1.171 0.58984 1.7285 0.13034 0.18609 0.34337 0.46166 0.68555 0.6211 0.34218 0.15943 0.74066 0.22331 1.377 0.27148 1.2726 0.0964 3.5504 0.0957 8.0918 0.0957 3.9677 0 6.2726-0.0179 7.6738-0.0937 0.7006-0.0379 1.1742-0.0873 1.5449-0.17188 0.37073-0.0846 0.6702-0.2268 0.8789-0.43555 0.18387-0.18386 0.33421-0.44757 0.42188-0.75586 0.0877-0.30828 0.13564-0.67272 0.16797-1.1797 0.0646-1.0139 0.0597-2.6024 0.0215-5.2969l-0.0879-6.2754a0.60315 0.60315 0 0 0 -0.30859 -0.51758l-0.9043-0.50586a0.60315 0.60315 0 0 0 0 -0.002c-0.42267-0.23629-0.76525-0.41604-1.1973-0.41602-0.43201 0.00003-0.77463 0.17981-1.1973 0.41602l-0.90235 0.50391a0.60315 0.60315 0 0 0 -0.30859 0.51562l-0.0918 4.8301-0.0781 4.2383h-1.3691-1.3574v-13.348-13.951a0.60315 0.60315 0 0 0 -0.60352 -0.60351h-5.4726z" transform="translate(0 -1.0694)" filter="url(#o)" fill="url(#e)"/>
<path d="m126.21 63.669c-1.0588-0.01282-2.342 1.0871-2.342 2.1459v12.824c0 12.531 0.0149 12.844 0.64691 13.696 0.3558 0.47979 1.1205 1.0422 1.6993 1.2498 0.729 0.26139 3.0638 0.35634 7.5964 0.30896 6.0725-0.06346 6.6067-0.11456 7.4153-0.70848 1.9257-1.4141 1.9516-1.6052 1.9504-14.191-0.00062-6.6151-0.13017-11.897-0.30778-12.536-0.16863-0.60739-0.66527-1.4416-1.1037-1.8538-0.79151-0.74417-0.85012-0.75032-8.1763-0.84242zm1.5201 4.0474h5.716 5.716v11.123 11.123h-5.716-5.716v-11.123z" fill="#5b2f00"/>
<path d="m142.63 172.8c0.42208-0.42207 0.48017-1.3327 0.40829-6.3996l-0.0838-5.9075-0.84967-0.47502c-0.76434-0.42731-0.93498-0.42734-1.6993-0.00015l-0.84967 0.47485-0.0855 4.546-0.0854 4.5459h-1.8456-1.8456v-13.131-13.131h-5.1509c-5.7538 0-6.281 0.16735-6.281 1.9944 0 1.5454 0.3997 1.7133 4.0784 1.7133h3.3369v11.277 11.277h-3.2442c-2.8322 0-3.3227 0.0784-3.8621 0.61795-0.74235 0.74233-0.78433 1.4788-0.13701 2.403 0.47746 0.68167 0.54384 0.68669 9.0926 0.68669 7.4656 0 8.6771-0.0654 9.1037-0.4921z" fill="#5b2f00"/>
</g>
</svg>
