<?xml version="1.0" encoding="UTF-8" standalone="no"?>
<svg xmlns:rdf="http://www.w3.org/1999/02/22-rdf-syntax-ns#" xmlns="http://www.w3.org/2000/svg" height="72.571mm" width="75.367mm" version="1.1" xmlns:cc="http://creativecommons.org/ns#" xmlns:xlink="http://www.w3.org/1999/xlink" viewBox="0 0 267.04831 257.14285" xmlns:dc="http://purl.org/dc/elements/1.1/">
<defs>
<linearGradient id="a">
<stop stop-color="#5b2f00" offset="0"/>
<stop stop-color="#7b3f00" offset="1"/>
</linearGradient>
<linearGradient id="t" x1="373.45" xlink:href="#a" gradientUnits="userSpaceOnUse" y1="-1.2477" gradientTransform="translate(25.072 -112.49)" x2="373.45" y2="354.89"/>
<linearGradient id="x" x1="377.07" xlink:href="#a" gradientUnits="userSpaceOnUse" y1="359.58" gradientTransform="matrix(.97664 0 0 .99404 33.765 -112.76)" x2="377.07" y2="235.96"/>
<linearGradient id="w" x1="370.78" gradientUnits="userSpaceOnUse" y1="110.6" gradientTransform="matrix(1 0 0 .92323 25.039 -104.85)" x2="370.78" y2="97.746">
<stop stop-color="#7b3f00" offset="0"/>
<stop stop-color="#a15200" offset="1"/>
</linearGradient>
<linearGradient id="s" x1="371.03" xlink:href="#a" gradientUnits="userSpaceOnUse" y1="309.59" gradientTransform="matrix(.98036 0 0 .92157 32.356 -85.773)" x2="371.03" y2="292.42"/>
<linearGradient id="y" x1="619.84" gradientUnits="userSpaceOnUse" y1="291.09" gradientTransform="matrix(1.0115 0 0 .97403 -225.68 -82.118)" x2="619.84" y2="307.59">
<stop stop-color="#dbba00" offset="0"/>
<stop stop-color="#d4b400" stop-opacity="0" offset="1"/>
</linearGradient>
<filter id="p" style="color-interpolation-filters:sRGB">
<feGaussianBlur stdDeviation="2 2" result="fbSourceGraphic"/>
<feColorMatrix values="0 0 0 -1 0 0 0 0 -1 0 0 0 0 -1 0 0 0 0 1 0" result="fbSourceGraphicAlpha" in="fbSourceGraphic"/>
<feGaussianBlur stdDeviation="2 2" result="blur" in="fbSourceGraphic"/>
</filter>
<filter id="q" style="color-interpolation-filters:sRGB" height="1.1127" width="1.0134" y="-.056354" x="-.0067149">
<feGaussianBlur stdDeviation="0.5911963"/>
</filter>
<filter id="r" style="color-interpolation-filters:sRGB" height="1.024" width="1.024" y="-.012019" x="-.011981">
<feGaussianBlur stdDeviation="0.84318371"/>
</filter>
<linearGradient id="u" y2="424.2" gradientUnits="userSpaceOnUse" y1="62.516" x2="130.97" x1="130.97">
<stop stop-color="#f3e5ab" offset="0"/>
<stop stop-color="#917816" offset="1"/>
</linearGradient>
<filter id="n" style="color-interpolation-filters:sRGB" height="1.0246" width="1.0234" y="-.012314" x="-.011701">
<feGaussianBlur stdDeviation="0.68992275"/>
</filter>
<linearGradient id="v" x1="130.97" gradientUnits="userSpaceOnUse" y1="74.615" gradientTransform="translate(-.0000025470 2.9444)" x2="130.97" y2="431.46">
<stop stop-color="#582d00" offset="0"/>
<stop stop-color="#7b3f00" stop-opacity="0" offset="1"/>
</linearGradient>
<filter id="o" style="color-interpolation-filters:sRGB" height="1.0246" width="1.0234" y="-.012301" x="-.011713">
<feGaussianBlur stdDeviation="0.71823303"/>
</filter>
</defs>
<g transform="translate(-263.62 22.253)">
<g transform="translate(0,10)">
<rect ry="9.8391" height="214.29" filter="url(#p)" width="222.54" y="-.82423" x="285.87" fill="url(#y)"/>
<rect ry="10.102" height="220" width="220" y="-13.457" x="287.14" fill="#7b3f00"/>
<rect ry="7.1429" height="180.09" width="180.09" y="-2.6455" x="307.1" fill="url(#t)"/>
<rect ry="6.6778" height="168.37" filter="url(#r)" width="168.91" y="7.7932" x="312.69" fill="url(#x)"/>
<path fill="url(#w)" d="m297.21-13.457c-1.7728 0-3.4356 0.45434-4.8809 1.25l15.166 7.3398h180.24l14.223-7.2988c-1.4614-0.81976-3.1459-1.291-4.9473-1.291h-199.8z"/>
<path filter="url(#q)" fill="url(#s)" d="m309.29 181.36-17.795 23.402c1.6265 1.1188 3.5967 1.7754 5.7285 1.7754h199.8c2.152 0 4.1402-0.67034 5.7754-1.8086l-16.852-23.369h-176.65z"/>
</g>
</g>
<g fill-rule="evenodd">
<path filter="url(#o)" fill="url(#v)" d="m90.34 57.585c-0.75324 0.0152-1.5029 0.0574-2.2441 0.125-17.408 1.5882-30.287 17.053-28.699 34.461a2.8334 2.8334 0 0 0 0.002 0.002c0.70151 7.6 4.2407 14.544 9.6797 19.793-6.865 5.8201-11.399 14.293-10.428 24.934 0.81441 8.9268 1.4621 22.043 2.6973 33.516 0.61757 5.7362 1.3775 11.059 2.4238 15.363 1.0464 4.3039 1.9434 7.7199 4.9609 9.7441 1.5706 1.0536 3.2149 1.3432 5.3184 1.6445 2.1034 0.30132 4.6092 0.46089 7.4238 0.51757 5.6293 0.11337 12.479-0.19635 19.318-0.80859 6.8394-0.61224 13.651-1.5249 19.199-2.6523 2.7742-0.56373 5.2294-1.179 7.2676-1.8672 2.0381-0.6882 3.6391-1.3018 5-2.6289 2.6192-2.5543 2.9187-6.1449 3.1348-10.582 0.21605-4.4372-0.0669-9.8013-0.56836-15.537-1.0029-11.472-2.9037-24.427-3.7148-33.318-0.96374-10.564-6.8778-18.047-14.598-22.541 4.4635-6.1645 6.7298-13.679 6.0449-21.334a2.8334 2.8334 0 0 0 0 -0.006c-1.51-16.544-15.61-29.155-32.22-28.821zm88.928 21.227c-0.6357-0.0163-1.2734-0.0115-1.916 0.0176a2.8334 2.8334 0 0 0 -0.002 0c-13.161 0.59575-24.018 10.614-25.668 23.686a2.8334 2.8334 0 0 0 0 0.006c-0.79133 6.3562 0.81774 12.683 4.2578 18.002-6.5111 3.6552-11.609 9.8191-12.719 18.607-0.93699 7.4224-2.9117 18.255-4.0898 27.883-0.58908 4.8138-0.98479 9.3244-0.93164 13.096 0.0531 3.7713 0.13744 6.8691 2.4512 9.2871 1.2064 1.2608 2.5714 1.817 4.291 2.4648 1.7196 0.64783 3.7792 1.2396 6.1055 1.7969 4.6524 1.1145 10.358 2.0818 16.1 2.7969 5.7411 0.71511 11.499 1.1752 16.256 1.2441 2.3782 0.0345 4.5003-0.0257 6.3047-0.22071s3.2283-0.37353 4.707-1.293c2.8309-1.7602 3.6345-4.6827 4.6484-8.3027s1.8052-8.0838 2.4922-12.895c1.3741-9.6215 2.3008-20.626 3.2422-28.084 1.1178-8.8544-2.3455-16.133-7.8164-21.299 4.5962-4.2926 7.6856-9.9873 8.4883-16.295a2.8334 2.8334 0 0 0 0 -0.002c1.8706-14.82-8.678-28.42-23.498-30.291-0.89829-0.11379-1.7992-0.18162-2.7012-0.20507a2.8334 2.8334 0 0 0 -0.002 0z"/>
<path fill="url(#u)" d="m90.34 54.641c-0.75324 0.01517-1.5029 0.05739-2.2441 0.125-17.408 1.5882-30.287 17.053-28.699 34.461a2.8334 2.8334 0 0 0 0.002 0.002c0.7015 7.6 4.2407 14.544 9.6797 19.793-6.865 5.8201-11.399 14.293-10.428 24.934 0.81441 8.9268 1.4621 22.043 2.6973 33.516 0.61757 5.7362 1.3775 11.059 2.4238 15.363 1.0463 4.3039 1.9434 7.7199 4.9609 9.7441 1.5706 1.0536 3.2149 1.3432 5.3184 1.6445 2.1034 0.30132 4.6092 0.46089 7.4238 0.51757 5.6293 0.11337 12.479-0.19635 19.318-0.80859 6.8394-0.61224 13.651-1.5249 19.199-2.6523 2.7742-0.56373 5.2294-1.179 7.2676-1.8672 2.0381-0.6882 3.6391-1.3018 5-2.6289 2.6192-2.5543 2.9187-6.1449 3.1348-10.582 0.21605-4.4372-0.0669-9.8013-0.56836-15.537-1.0029-11.472-2.9037-24.427-3.7148-33.318-0.96374-10.564-6.8778-18.047-14.598-22.541 4.4635-6.1645 6.7298-13.679 6.0449-21.334a2.8334 2.8334 0 0 0 0 -0.0059c-1.51-16.544-15.61-29.156-32.22-28.821zm88.928 21.227c-0.6357-0.01631-1.2734-0.01145-1.916 0.01758a2.8334 2.8334 0 0 0 -0.002 0c-13.161 0.59575-24.018 10.614-25.668 23.686a2.8334 2.8334 0 0 0 0 0.006c-0.79133 6.3562 0.81774 12.683 4.2578 18.002-6.5111 3.6552-11.609 9.8191-12.719 18.607-0.93699 7.4224-2.9117 18.255-4.0898 27.883-0.58908 4.8138-0.98479 9.3244-0.93164 13.096 0.0531 3.7713 0.13744 6.8691 2.4512 9.2871 1.2064 1.2608 2.5714 1.817 4.291 2.4648 1.7196 0.64783 3.7792 1.2396 6.1055 1.7969 4.6524 1.1145 10.358 2.0818 16.1 2.7969 5.7411 0.71511 11.499 1.1752 16.256 1.2441 2.3782 0.0345 4.5003-0.0257 6.3047-0.22071s3.2283-0.37353 4.707-1.293c2.8309-1.7602 3.6345-4.6827 4.6484-8.3027s1.8052-8.0838 2.4922-12.895c1.3741-9.6215 2.3008-20.626 3.2422-28.084 1.1178-8.8544-2.3455-16.133-7.8164-21.299 4.5962-4.2926 7.6856-9.9873 8.4883-16.295a2.8334 2.8334 0 0 0 0 -0.002c1.8706-14.82-8.678-28.42-23.498-30.291-0.89829-0.1138-1.7992-0.18162-2.7012-0.20508a2.8334 2.8334 0 0 0 -0.002 0z"/>
<path d="m90.396 55.473c-0.68172 0.01373-1.3627 0.0516-2.0418 0.11354-15.883 1.4491-27.584 15.499-26.135 31.382 0.73408 7.953 4.729 15.247 11.035 20.148-7.7274 5.2833-12.786 13.577-11.782 24.581 1.6494 18.08 2.5863 52.331 8.839 56.526 6.2527 4.1945 54.371-0.01 59.971-5.4702 5.5995-5.4606-0.34394-39.071-1.9934-57.151-0.99745-10.933-7.3956-18.15-15.869-21.968 5.3813-5.968 8.0326-13.908 7.3165-21.912-1.38-15.093-14.19-26.554-29.344-26.249zm88.8 21.225c-0.57265-0.01469-1.1456-0.0091-1.7179 0.01675-11.803 0.53426-21.507 9.4886-22.986 21.211-0.83455 6.7034 1.1618 13.451 5.5092 18.622-7.2284 2.961-12.815 8.8375-13.97 17.992-1.9113 15.14-7.8787 43.203-3.3335 47.953 4.5452 4.7501 44.845 9.6831 50.22 6.3412 5.3747-3.3419 7.1585-32.09 9.0698-47.231 1.1633-9.215-2.8441-16.33-9.1814-20.993 5.4389-3.9342 9.0059-9.9451 9.8534-16.604 1.6789-13.301-7.7423-25.444-21.043-27.124-0.80296-0.10172-1.6105-0.16322-2.4196-0.18426z" filter="url(#n)" fill="#f3e5ab"/>
</g>
</svg>
